<mxfile host="app.diagrams.net" modified="2022-02-27T15:04:48.984Z" agent="5.0 (Windows NT 10.0; Win64; x64) AppleWebKit/537.36 (KHTML, like Gecko) Chrome/98.0.4758.102 Safari/537.36 Edg/98.0.1108.62" etag="dBa5WSifLV6uZ_7So7gC" version="16.6.1" type="github" pages="3">
  <diagram id="OaYX371y1wo_LZSLDKuH" name="SmartFactory">
    <mxGraphModel dx="1038" dy="579" grid="1" gridSize="10" guides="1" tooltips="1" connect="1" arrows="1" fold="1" page="1" pageScale="1" pageWidth="1100" pageHeight="850" math="0" shadow="0">
      <root>
        <mxCell id="0" />
        <mxCell id="1" parent="0" />
        <mxCell id="Hx63oCPssNy2-sGb_Ebc-1" value="" style="edgeStyle=orthogonalEdgeStyle;rounded=0;orthogonalLoop=1;jettySize=auto;html=1;" edge="1" parent="1" source="Hx63oCPssNy2-sGb_Ebc-3" target="Hx63oCPssNy2-sGb_Ebc-5">
          <mxGeometry relative="1" as="geometry" />
        </mxCell>
        <mxCell id="Hx63oCPssNy2-sGb_Ebc-2" value="" style="edgeStyle=orthogonalEdgeStyle;rounded=0;orthogonalLoop=1;jettySize=auto;html=1;" edge="1" parent="1" source="Hx63oCPssNy2-sGb_Ebc-3" target="Hx63oCPssNy2-sGb_Ebc-29">
          <mxGeometry relative="1" as="geometry" />
        </mxCell>
        <mxCell id="Hx63oCPssNy2-sGb_Ebc-3" value="" style="shape=image;verticalLabelPosition=bottom;labelBackgroundColor=default;verticalAlign=top;aspect=fixed;imageAspect=0;image=data:image/png,iVBORw0KGgoAAAANSUhEUgAAAFoAAAB7CAYAAAD0WJeRAAAgAElEQVR4nO2d+5Mc13XfP/fe7p73zD6xiwd38ST4AgmKpkSRdvSgxZIjuSSWnfzi2K5USc4v8StxHPoPcFViSymVI6dKsUuWpWIs0XZZlGiJki1RkRVRsUSRIkSKNEm8CIAAdhezs7Mz089788Pt2zv7ALEQFiAD61Q1d7c5mO4+ffrcc77ne04LY4zhJ3LVRb7RJ/DPRX6i6GskP1H0NZKfKPoayU8UfY3kJ4q+RuJd6Re46FAIseHfaz69wW8roo2x/84YBCkIsN8iMEbm3ysx+V73JWLtl4nVvxf/e4NzM+6YV1muWNFgTzaOYwCCILjEya9XcWo0EoHGIJAsLl0gijqMtRqUS1WMEdiHT6K1QGv7t5IKTK5XwzoFrz2q2/VGpA5bomgA3/cRQhDHMUoppHx9ryRYrXLjNqP59ne+w5EXn2bX7p0cPnQHMztmKQcBRktKsoTyBGiDyVLQgO9trGSxZpcQ9riv+9RdHRFXmhkaY9BaY4xBKYUQAq31RRTt1LnyF0CmNRkaKSSnTp/ikb/6S053z5F6GSUvYNf2Hdx56+3sndnD+MgYFVVCInJLFlh7WaM0sfJj2HVsdLmXMoqtkC1zHcvLy2RZxshICyEkG3vh1fucEqQQYCQgePHFF3np5ZeIqqCqAXGmefZHz/Pcc88zOT7B3XfcyS0HD7Jregclz8cgUVIAqvjO4Y2hnwhrxcO6FoXf2Ui2zuKvWNFCgNYpn/zkn/LEE0/wnve8h3e9610cOnRoc/8e6PaWWVhYIIxCfvSjH9FZ7NC9ENKcHKVer9Ff6tPv95ibO8/LR19ibHSE3XtmufPwndx68Da2NXYgc2U5b75ORbkutdHEcUyapnieRxAEF7HorXUrW+I6jMn42Mc+xic/+UmklPi+z4MPPsjP/dzPcfPNN9PtdllYWGB+bo6F83O89tprvHrmNKdOnaK7vMz8/DztziKLi4tWAYFPKjKmpqep1mvgS5SSGM/QHG+RmAwkBOUSu3bcwM+/4/0cuuk2to1MoqRAClBGIJwvNpCEEaoUgICFhQU++9nPMjIywt13382+ffvwPA8pZX49bukUGGOK/VprPO/Hs80tUTRkfPS/fZRPfepTeMqecJqmNJtNDh48SBAEHDt+jMWFNtEgxBhDpVZFa0OSJujcv/uBj9aGXr+HyDRCCDI0quxTblTJPEOmDFoJjCdojY+gY802f5Sdk9vZt3cvdx4+zO23HqJVqyOALE45fvQozzz9NDOzs+zcPcOZ06f5+699jSiMqNaqjI+PMzszw+7de9ixcweNeh1jJP3+gFqtxvLyMvV6nSRJ8H3/jVG0XfY1f/CHf8BnPvMZfN9Ha02/36derxNFEVprbrvtNnZN72Tu/Bxnz56l2+3SDwdobahUK0gpybRGKUVrZISw06W/3CNKE+5/73s4cPONHHnxec6351mOB8y351lot5nZNYOMNA2/QrPZZNvkNibGxxlttsiihDgMMdq6i21TUzz+93/HtqltzMzMFIYihMDzPEqlEjt37uTw4cNMT++gXmuSZVlhOFJKlFJvlKIzwPCHH/lDPv3pTxcnIoQgyzKUUqRpah9BLchie8JCSYIgoNlssnvfXnr9PgsLCywtLWGMIUs1SRzjBz6jY6OMjo4yMjrC+OQEfinAYAijkMAPqFWrlIIAKSTL3S79Xg9hoNVsotOMwPdtyKkUnV6XTGuOHj1Ks9kkDEPCMGRxcZHl5WWUUiilGBkZ439+4k9ptVpIKQtr/nFDwivPDPP/ep7CGE2WWTegtUbrDN/3UEoSxzFZakjjxPq5TNDr9VhaWuLoieNMTU1x+M47qdVqfPd73+W183OUSmViY0BIlPA4dexVfvTMc0xNTHLjvn3s2raNzGiMEfSXlpBKoYBapcLpV19l4fx5wsGAXq/HwsICgyhisbuEkII0TRkMBnieR5IkVKvVIvFqNBq88vJR/vIv/5IPf/jDRFFEqVRadcUrsjnFb0F4ZxcMTwUYDcpXGCOQUqF1njEagRQeWmbgSTKjAYHyrT8v+x6dToevf+1r1Op1duzYwS233kZ7cZFXXn6Zc2fPkiUJvvKYmztPHIW0LywghGR8Ypxz7XNESUKn0yFN0yJtz9IMrTXlICDVGgOkOsPzPdJUU6s2ACgFlTzOM0xPT1CpVPGUottd5OTJ48Rxwg037KJUChBCkWUaISDTKUr6CCEvaelXHt7lOIRVLCjpk2UZWaoRqKFVHDJtioVPa+1SQRuSSXuyy90ux48d4+grrzAzM8Pdb3kLU1NTlMtljh8/zivHXqGXhMx1LhAEAaKq6A36zM3N02g0KJfLnD17nlKphBACqQKi1CClotFokGRpsY64xMrzPBoNq/SRkRGmp6e59dZbuOXWgxw99jIA7cV5RkdHObD/AEkaUS6VSTONlJvzvFuWgl+JGGOKRcfdBKUUR48epdPp0Gq18H0fKSWDwYDR0VF27drFPffcw969e/jCFx5ldnaWOLYu4Lbbbqff79NuL2K0hQeyzFp3pValVqsBkCSJfaLKZUZGRjDGEAQBExMTlEpl5s4vMD4+wcTEBGE44NzZec6fm2dychsTExO0Wk3S1CClQcqrbNFbIS5tF0KglCJJEpaXlxFCEIYhlUqleDR1HkGcO3eOMAzZvn2a7du302g06Ha77Nu3j8OH38LMzAzdpS7f+ta3eeGFF6hUKgDcMDvD6OgorVaLer1Os9kkCIIibHPnEEVRjt0kxHHCxMRUnpxBp9Ph6ad/wGDQ533vez/btk1e8hrfFIp2IZZLCoQQ1Go1hBAMBgOiKKJcLqOUYmZmhkqlQhzHfPvb3+bMmVNIKbn99kNMT2/n5MmTPPHEE5RKJWZnZzl06BD33nsv5XLZurH8pmqtyfKfy70+/X6fcDAgimMG/T6DQUSn06HXGzAIB5w4cZzTp09bf4yg0ajTbre54Ybd3P+z77rkkvimUPTwQuIU7X6vVqskSUKv1yuyNxcZTE5OMj4+TrvdJggCoihiz549HDhwkGPHjvG1r30NowU333wzrVaLcrXK/MIFFhcXabfbLCwsMDc3R6/XK26oc2G1Wp3R0XGCIKDRaDAzM8PBgzdTqVTYsWMHnudx9uxZprfvtDj31V4MjbEWWa1WEUKQJMlFV2AhRJHODhcKNvq82+9w7uGMLE1Tm7a325w4cYwbb7wRrQ2e5xGGIVqHLC8vc+uttzJ3foHjx49z9OhRytUqnh+glKJerzMxMcHevXtRSjE6OlrcVBv/+/T7A5RSzM/P4/s+xhgajQYvvPACjUaDXbt2XUq/hbwpLPpyRUpZ+OowHOR4xIrrSRK78IVhRKPRYDAYMDc3x+8+9BDL/RAjBDM33ECn06G9uEin0+H4q6+SJClaa1rNJv3+gHPnzlOtVgvQaffu3ezZt4+p7dup1Wq02226y71NnfOWKFoIsW67GlWMYezbLVpCGLTOcPG8+1wYhnieTxKnxT6AF158kWqtxpNPPsnCwoL1zWHIoUOH+OEPf8h73/te+v0+45UqY2NjNJpNlJTUajWiOGa5Z7PHOI64cGGBW2+7+ZJuA7YIJl2r06ulaBdrZ1lWHMeGhB6+v3Ip7vhJkuB59pH3PI9yucLMzAwvvfwyu3bt4r777uOZZ57hxhtvZP/+/Xzwgx9ECMHi4iL9fp/FxUXm5uaYm5tjaWmJOI7pdDoFiuf7Pj/zL356XRVtI7kqFn21ZDj5ccdJ04xarVYkKO5znufZtB9JGFrE8MiRI1SbI0xPb2epu8T3nvo+YRjy5He+wxcf+1v6/T7G6Nz9xMRxCAhKpRJRFKGUvame59FqtUAYPH9zINOW+WhnbcNRw9USd0NdYiOlZGpqmh/84AdMT0+TJMmqJ8rzPIwxPPro35Aa0GmG5/sIZUM1AWQ6Q3kewthox1MS6XtobSBL8ISxBQWdEocxqtXApDHNWm1TaMeWFMuuZZHzYsdbWlpicXFxVUw+7L2MMegsw1cCP5AoaVBCI8nApEg0QqcI7JZlCVmS5rV3YWuUxmAyjS8VjVodtCGJovW+cwP5/zLqWCtBEBTlKVfhASyOMhSTe56HzmJAkpkUKd0TKJFSkGUppaCEr3wGYUSWWSxkuNR17733MjMzw6lTp8iybNOFgOtC0UopgsCnVCqRpkNRhqCozBtj8ANJpdwAbZBKUiqXCAchjUYDpSS9wYByqYQwcHZunn6O/rnYH+DcuXMMBoOiGL3Zp/m6ULSt4634bSnVUESiimJEKSgxOT5GEkcWsWs2aV+4QLVaRnkeaRxR8pRlTOW4s9aaLMsKl/TKK6+gtWZ2drY4xmaUvWV0A6VUUcgc3r82zLuSsG/Y/65cnCAI/GJfEASkqV6nBM/z7D4hCheTpSlxHBfsKqdUYF0U5VzI9PQ0u3fvRinFsWPHNl2s3TKLdierlCpO9mrIsJLdz35/wKuvniTLMjzPY3HxAmmarvKfnueRpClRFBVpfbfbJUmSYhENw3Ao60yQUq2rE+7bt496vb7qRm6Gv3dduI4syxgMQiYnJ4tFz/pm+3Q5tC6JM86cO0eWpCjP1hDTJMFReSzGkdMOWK1IJ08++SRhGLJ7927K5fKm64jXhaKNMWzfvp1yuZyn3ituwrkErS2FUpsMKRSpBsiQUgESg0YqZUEyoVCepeGsfYJKpRKVSoV6vU6apiRJsqlzvC740S7SyLKswJ2zLEOvwUaEEAjpIZTdpPSRykcoBUIhhY/WglRrYGU9Gf73UWRxapspquJ4l5LrwKItlOoW4jT3w1LKHCce+qS0maA2NgFBgEagM4PWgGfrmiARwpDlN9At8C6CKZVKNia/DObSFVu0u5lriejDmESx2UtArdmkYdXmiOVmg01ICUKQ5VXtTBvK5SpagxAKIayVpWlqeXZJiFSQaVsfTFLDIErQQrLcj4iSjEGcoIUijDPizJAhcpw9Q+sUz5MYk2HvXYbnSbRO8X2F1ummMOlr7joMjtu08WaGGfqbFKVUUbx1OIfv+wwGgwIPgdwFAI1qFV8qSr6PSTPKgY8wmkqpZBWibdSktbbgERRJi+/7xHF8ySLHWtkSmNQlC5dE8ITYGE8c4tea4js3LwsLC3S7XcrlcrEgunAzSRIWFhYsNUEYapUKYV6DxBgOHNhfFGdPnDjBzTfdRKvV4skn/w979uzh/vvv56mnnuL5558nyzKSJCEIAiYnJ+l0OrmPvvQ5b5mPHlbw1cKjLyb79u3j+PHjHDtmy1rNZpMDBw7Q7Xbp9Xq8+OKLhGGIHwTs3DnLu++/nzAM+cpXvsJdd92F1pq5uTlOnDjB4uIivV6PJIk5efIkX/ziF1lcXCySIef/XZXcKv7SUOmWL4aXCuAvTU8f+q5NHnPXzu3snpnllVde4cgzT9NoNNi+fTuTk5N4Alr1GoduuZmXXjnK3NxZ/vaxL7C0tMRgMOCRz/0Fg8GASqWC53l0Fi/YjFZnxHHE2ddeK0K53vIyY2Nj1Ot1pBDcfujQppA72KLi7Dom/0UseiPlDz8FPw7cKgAyTZrE7J6d4YZdO1lYWOCll17i+099j4mJSTwl+am77uK1117j/EKbCxfa1sLzzLFSqRAEAWNjY4yPj1OtVmnUazSbDer1esGAcvySIAhIkoRWq3XtQaVhXOGiSltbTxz22YIVR3cJK1mdgq92kL7vMzY2xv3338+ZM2f4wQ9+AMD8/Bzbt29n58xuGo0mjWaD0ZFRxsbHqFarKKWo1Wp4ystPQZOmCUbbmmSWZbbXJg/5kjghTRLL89iErrfUdTjgRecB/1oRApBrwgohhraVfet6B1m/DthfrFJcVOCSl06nw/T0NGCVn6Ypb7vnHlJNngGaIva2FIWMQb9XZHueUighVx0bwFcegecjDQSeb/tnNlE03HKLdsH9xovhaotea/mrYvE87h6WjdrWBLaVQqLRRiMxCGFothosLS2RRAPQae5/F/HLFQx2EXMcjtHRUWuxOShVrVZRwqJ7w3i221xEY3ncGUL61ybqcApwJ3Ux1yGEjZWReWdU0TolEFLYTraCdAvrVb3epwshUFIVeIZDD5eXlwulpGlqQ7+gjBEWw6iULHGdPK3OkgStLZCv04RyqYxEYrSlGBtjMBjSNLOWLCS+8vCUt6lFe0vDu2EFXORTKHJ2E+SFUVEo25nFBuvr6x9b2Z6szBikENg2Zk25WuXc+TnGx8ds+i1WmFIm02hpD10pl1BSYHRelZEKISVplhH1Q7IsK5qYlJAEvmdxFAzG6PzK1suqAvHmL2fz4nBp97s7oCcEGIm1jeHTE8WmhzR80RBxuACQPx3C8zHakGTWqnUKqTZkQJikBEGATlMCzyMchNY9SMVgMIAoKVwJ2IwQJWi0GvhlH6U9RCqpVqvW+oUmSmKqOiUzGd7rmLS7/i3ndbi/L9oGnAcKxe9bIL4fkGUZpVKpSI8znSGNLJC8JEnI0oyF/qIlomN5dBpDp9NhaWmpcD2NRoPACzh37lxBCQuCgMVF+28jYYEsbTRSbYxiDC+2cJUSFvdzXRlLCOuj17CbrlTf7oIs8SUZAv5X6oa+7+P7PvV6q0D52u02//iP/8gzzzxDp9MplNJsNrnjzjs4dPsher0eo6OjGGMYHR0liqIiuXHEx82c31VNwTdkieYWbVx0Juzvwx+9XMXHcUQQBAwGA6rVatENNtyI6cprFxbOW351kvAP3/wmP/rRj4qDp1lGHMf0+30uPHGBStVSyObn55mYmAAs5u3KYVmWIZXaMOJYYVLZyGXL0bt1ce4aGYY8V83SsH+ugkk3fUwpWV5e5vjx44WrGFawQ93K5TKT01OUa1W+/o0n+N7T3yfRme13zG94pValXKuSpClf+tKXCq5dmqYFr9pRzIQQGK0vml+5J00IsXWKHh4dcdFpAUJg1NAm7bYWy754eLgSh7ukSOQAf7/fL0Ae1wwkhFgVB7tn5dixYzz//PN4nreqUVMIUfS6+L5f3DygcEmTk5M0Gg2azWbRrnGxiGP4Oq5a1LG2AGBcOMTqsQ4i99tFSA2vu1huRF84feYMnqfYsWMHQNFA6izabUJIeuGA737ve4RhiPI8VN6xa4ZvXC6+77O4uEipVCo6AbTWRFGEI6W/ng5W0L1ga13HMH+5KIgO78PFnrYNzjjFbRCYvJ6ssnhj2LF9R/H3cEeBgwSKarawx3vuuecKherc1cRJsjJqCPuEunCuWq0WT0gcxwX9zGWwG4l7qh20uqUW7S5Qb1DcdD9d1AGgMbZ2dxnfD6tTdVvesn0qvV5vFZnHbcVNz2zbc6/Xo9Vqrfo+l347N5OlKVpntFqtojZoOdblwrItl8+WuDa6iiiKijEVW2bR7qSHlbx+G3Ih+d9FmggWiLvEQrguPjeGUlAiSRJOnjxZKHn4HJyiHdI3MjKyqqFzmGVV4BrYCGPfvn0rj38O+KdpumYNWH+eLvIRwjb0b5miPaXyu5vjA0O+1PlfaQwy08hUIzON0iav0VlrM0av8+/Dm1PwWqpZlqW0mi0O7N9vs8MotkVgIZHCDrnylEfgeTQaNWZmbyCOI5QSGJMBGgvUaYQwCAFpmnDj/gPs3bMHX3n4yiOOYiqlCp4MwEjQEqPlhlGHi93d4rqlUYfWuiCtDCu4yBwNyMwgM4PIDEIbhAa0KSx7rbtZK2ujEeeq0iQh8APKpVKRSCilLPZhvxBjDOVymTvvPEypHOAHPnESE0Yh09NTCCmI4gg/8JgYH+etd99Ns96gUi5TKVco+SVbtzUgjSTwyijlbwh+OXHJ01Wrgm/kOlhjqe73KxUh7AJYr9cZDAaFkh0MOnysKAq5/fbbue2224q2tlarxfz8fLGQVqtVHnjgAW6//XZLhszRwMFgwGDQIwxDojgiSaP8Sbz0OV5TAs3a87koHnKZEkURzz77LLOzs0xNTRUQqfO5Ll1WvleElB/4wAeo1+t861vfot1uF3XBvXv38r73vY99e/YQhyFplhQpexD4eF6AlCvkGaEuUtlfI1dN0Rta6hp/+3pF3MuRUqnETTfdRJqmBQvfLcoOlYuiCB2FxFmG7wdUq1Ue/OCD3HfvfSwszOd95TuYmBjHGEjzhnzLeMKSIoWd7SQdYngZp34dUMKsMl3NL03T3PqCIqrwfdsNIJUiyPJKjBB0l5Zo1OvUazXK5bIdlKLs5LDOYrvgUoO9mTozZNlKMqT15unJV+yj3ULjYsswDIuWg1XxrjHrXMflytrIw2IN9qKPHDlCr2e7WJ1FuzERtsM2REqBlKJYLC2pRlAul8myrEhMBoMB5XIZIQyeZ8O/brfLcq9Lu93mwoUFLlxYsCQc8rDxEnJdWLQxmltuuYVKpVKgZYPBoLghSZIwMjKCkoo01cSDsFBwtVYljmOkVPSXe7TbbRYXF1nqLhLHA7LMGkmtVmdiYpJ6vU65VM1JjilZmiC90rWpGb7RUiqVOXr0KDMzM9TrdbTWxeImpWR+fr54GsIoJooiwjAseHpuQphzP5OTk0xv34bvS4KgRLlcQSkPY2wiYrQhzctbQoprTzd4o2RpaYnZ2dkC3O/1egUCNz09jTGWhtAfDGg2W0xPT9NoNAq3Uq1W6fV6tmqSRxOVagkpHUooWFxsc/r0abZtm2Z0dBRfeJsaduvkulB0tVrl1VdfzUf0lAoecxiG1Ot1JicnixYIIWyottztFsBTN01J04RGo8m5c+c4eeIEaRKis5Ak0wgp8P0SgyhiebnL3Xe/zfKpHYzApSOQa56wrJRh14SfUhSbucRJD4eIWZYRhiELCwtFluh+un5wl7w4bKJcqVAql0FJWwn3FdV6lV6vS2dxgZ3TU/z8z9zDdtMnOfUSp5/7Pqf+6Vnu/5m30aiVMFlmr0ULNmur19SiXQVlIx6TS9UBMgwb8TMvFnO74VPDg69gZZqNy/hclieMIdW29cIeWJNpg1ACKQzVcsC3v/wlTj39JOVGg97JU3gjowwuXCAQAmNSEAF4FjTaTMJynfSwJAV27LI4F/8CBUI3jNTBSpiYZRlCCiqVClprOp0Oz333Ke47cCvve+t9BMshfj9istZEZpokigiThESIvJjxzyS8w8DevXuLuNlZ/jAHcNjVZLml+74PErLUFlrRphjPlvYGlCJN2l6mogXjrVFUmuIVwxIlWkAqNhwTvk6uC0XLPCxrt9tF+Wg4GiimguVN9EmakmYZGkNmMoxOKQWBZS+5oYOlEkG1TKlWASkI44RyuYpAUgoChMr7CzeZh1812u7roXIrTNCVk7Q0MLeEX96xwzDk6aefZnR0lO3bt5OmKZVKpUDuVjZNFCVkWoO0YJMnPNIEyqUyvuexOD9HkiQsmZT//U/PIU6WaaPxSwGRgMRRRzONJ5St2m/inK/cR+eUgddjkRZ4NGLN3yti9GrA6XKkVCpx4MABWq1W0f/njjN8PCll0ZBZKVfwfb8Yl+mGYXW7XXbt2sUD//oXec2XHLkwxw0/9Rbe9t4H8EdG6AwGCM9HoJDaYJL09U6tkOvCdQwGfS5cuFAwiNyCN+yjnbKTJLG0BxvmgLQJT+D7jDRb1Go1zp8/z/T+A9xd+QB+UKLb7bNkBH/z+FfZsXOGLGdhKiHwpLq2bNI3UiqVKi+//DLbtm1j9+7dRSSxVtwCaJmn2lbic6BfGEMURbRaLU4dP8ncYomx6W1IqdgxvhNjJNO7NOVymW53GZPTq2y5Wb5ulQWuE0WnqcUsHM/CuYm1nQfG5CU3VyjWNjhLkgQlJElsR80fOnSIxIAISiwtLaFEhTRLqddqRFFKqVTBSMEgiWyStQm55hWWtaDihqdZ8Kc3+b3afmO5XC4ijGHqwDB+PBgM8vNwZB6N71u0r9looJOEzEClXKHbHTBeHyXTmqAUMAhDglLZUoOll3fxbu5Mr+mUMCNAD/+vPA9fm3LLoc+vk9y3ipytj7QkmO3btxdKdtXnjRZW6a0Q0odf0FNqlCzG7fkYI4jTlErFx5BgpCA1Gb6vgCyffGB50ZuNJq6969giTvSwBIFfxNAOvN/ohhdJSi5rF0x3grZNeiXjM0N3/MctvV0XPjqKYnzfp9FoFNWT4fERMESQxKyK84VYGf0zTKiXgMjbJpRceYVOkqYYIRFDA602I9eFotM0YWJ8nPHx8YLx7wCkjSrta/cNd1m5G2SyDFzzEENpvQEjZNFCt1m5LhRdKpXzIdqCsbGxi1bZhVhpNVihiVGEgsOKk4By1j30sgTf89FihZ682S6RLZvkOAxFXsqPOatx/3btd220//VEKcUNN9zA5KQdAT9cAR+OPJL8zRbLy8sAtlEIioyxXC4Xg7k9z6Ner1tOSB7BuFeIAMWYis1a9dYoevj3SyhoI5L5Rs1Ga/e/3vdqnXHmzJnivQBu8sDa7wEYHx9nYmICKSXNZpNyuVzwnx0V1/nsbl6FSfKC79LSUpHeLy8vs2fPnku2Uzt5Q/DozSjvckRKVSjiYl0HSqliPE+v1yvGtTl2qLNqOxs6zqdDBvT7dv7/3Nwczz33nE3X8wb9qenpVcT11z3HLbnSyxBXSdnsBMTNiMpJMsNvnnAy/Gg7a3evB4EVN7a8vMzZs2cZDAbMz89z7tzZgicyNjZGs9nkhRdeKG7O/v377XsYNylvqEVvlRisv3WKXjtN0lFnXZnLWfORI0f4zGc+w2AwYGxsjDiOefrpp3nkkUd49NEvEMcxMzMzNJtNzpw5wx133EG9XqderzM+MYFU6tq5jpxta+csF3PiHGdY5PtzxiegZQ6WC2H7DsVKOqyxmeNKorCeH71eBL7nFb2AWmtL38ojio1aPKIoIkkTHv/K49x6263s2bOHx/72MX73Pz/E5x75HMeOH0N5isOH7yTThrGxMY4cOcL+AzfS7fW46eBNNJt2Vg0CQikAAAocSURBVIdtx7i0nrbEoo0R7N6zl1/4xX+FH5QJoxjPD0BIlOfj+SUybew8ubzOlhpdIGhuaBX5TbB4yMX50cORhBCCNEuLt2a4PhNn1S50s2CSRvkSLTTP/vBZnv3hs3S6HX7jt3+Dv/va3zGxbYygHFBr1Lj/Z3+W5f4AIxT/6y8+y45dNxBUqkxNb2dichvWiEBKb1NGvSWK1lozNTXFQw89xMc+9jHuuuuuVQhaFEX4vm/bfYWbSCCLzRnEOgrCJiXLMvr9/jp8wzX1uM9EccxSZxnfK/F/v/NdAr/MY1/8Ekr6fPhD/w5PBXSXeuzds58bbzzI0tIS7Xab73//+9xxx2H6/T47duygnE+iuVQlaVi2RNGO3mqM4Z577uGjH/0ov/Vbv8Xk5CRZllGpVOzqPkQMLzKwLSCiu/enhGEIUIRqbvCgG9XmKY9Go8mJE69y/vw8H/rQh2m1RlhYaHPXXXezZ88eqtUa9977M0hpffnXv/513vrWtxIncRESXo6CCx1d8VVC4ffcVMPR0VF+6Zd+iT//8z/ngQceKFrIlFQrL3HMGzGH2zBWNSFexnUkScru3buZmppalTS5Znn3RiLP80lTzWc/+znuuede3va2t/Pe9/5LyuUKi4sd7r//Ad7xjncRhiFf/OJjfPWrX+W73/0uO3futET2oam7w65rM7Jl0w2ckoctddu2bfz+7/8+73//+/nUpz7Fk995kjiJVvEsir5AVjD0yzVyrW3lw3XPOqDIZYdRFFlw3/N58Z9e4fixk9ywa5bPfPphOp0OY6MT/Nf/8odFfP1496s0GxVm8kFYjUYDJRVGrH41iWvy3IxswYDB1aGa4725t1r6vs+73vUu7r77bh7/ypd56qmnOHHyBEtLS4RhyMmTJ4sb5ft+8fi76KEguIgVrvUwBOr4zt1ul0ajkc9H0oXbcBbu+z7K8+nnafM3v/nNYlKBcy+OVbpnzx6mto2zd/cMt99xuLhpamiaQRzHxaj7zcwnvWqgUhAExe9aaxqNBg8++CC/+Au/QKbte06WOku8euoUH//4f+cf/uEfSJO8XBTHeCWPNEsLFM5d2Ebi6n5nzpyxTM88eXEvhSxScakolwK2bZtkdHSEHTt2Uq1VGRkZsWPX6nVq+av3KqUAdEpQKufvZzGrLNj93Kzr2IKX+24sLq11FC1rWZZL7KwMVvz7o48+ykc+8hHm5+ep1Wr2FXhD07+cVbrko7BwnfIffv03CXyPkydPcvjwYYQQdDqdIo12xzE5bhFGcT5k2z5FSeKGVJFbL/hK2Fd/iLyPRUr8oMS73/1uGo0WmV59bpeSq5YZDhMNnTsZBtfdY+0evQcffJBHHnmEX/u1X7OtEUYTBMGqlzpGUbThsU6depX5+XnGx8eL9o6NuMvGWApuo1FDKfs6EDsSQpOmMVEUkmUpYGdyNBqNlapNpjl48CC1en2lxTpX9mbkqqbgbsFwd91NGxgG5l0PdhAEjI+P89BDD/GJT3yCnTt3Fn7c9aNUq9UNjzM5MUm32y389/A8J3dMp5R6vUKmUwwZyhMgMrRJ7HhiafB8iR8ogsArRlKEYUi9UWffvn2AzYLX9udcUhdXy3VsdLftvvU+zaXLTvkACxcWePzxx/njP/4ftNsXUMrDvv7ah3xuneVca/7Tb/8mtVoVrS3lwDZypjjieVFTF+QdWQoh7dwly9nOP5NzuywtwXKrEYLAK3HgpoMcOnTIqe2iOPrF5KpZ9EaPlCxqb6s3+3YIBQiU8lDKY2x0nF/+N7/C5//m89zztrfTvtCmXKqQpZreco/ADwjyfkEAISXzC/P0B33iJC7wFFc1N+RJUgZZmpHGKSY1xd9ZqskSTZZk6DQjim0TkDYSIyV79uzFvoFotQvcLED2puVHe55HFEVMTEzwR3/0R3zuc59j7969q3DkJElIU/tChFKpRKvVWjdJZngwysW2jWSYlXrzzTfTaDSuKIt90yraGFPM0ldK8fa3v51Pf/rTvPOd7yxCNnszwmJBbbVaRSQwDI0OK3Wjlo+L3QBjDJVKhZtuuumiNLPNypu2OGuMKSZxffKTn2RhYYFDhw7xwgsvoLWmVquxtLSUDyxRhSJcvL32tR3G0cDM+saOjYbWpjql1mgyOztbLK6bfXHCRvKmVfRww/w3vvENXnzxRf7kT/4ErTXNZpN+v8/OnTs5efIEURQXinVDptI0XaEIOExab0zf2mg9Ucq2xh08eBC48r71N62iXdSiteY973kP586dK+bqt9ttlFKcPHkSMChlb4qLn136PQz6g8VQ3PAW5x6G8RaXXGmt8Uplbr/1tmKO3mbj5YvJm1bRDn+4cOECH/rQh6hWq/zZn/0Z7Xab8fFxAM6ePQtotDarFAoUily7XyALGNX53H6/D6y8ydPzPLxSeRVR8kpLb29aRbuGzEqlwsMPP8zDDz9Mv9+nXC4Xvnl2dpazZ8+g1MrERhdxuKEow1ZtDKRJWoRkDj6dnJwsFOx+Cs9/3S6Gy5U3raIdvp0kCX/913+NMaYo///qr/4qH/jAB5idneV3fuc/EuXTC8IwLCBS94Y3WKEaKOVRH68X2alb3Obm5goCpLPeoFwtFsmtKCS/aRXt6LRBEHDffffx5S9/ubCws2fP0ul0eOyxx+h0FvFziHUtZdd9h/s+gOXeMlFoJ+XCSsTh+z5+PglMYCdMOjBsK9zHVUvBr1TcsBMXPXzzm9/k4x//OC+88ELBt1BKMTba4t/+yi8zMT5WDPMTQtBdXibMR0m4lrc4TsDzMZnB8z2CUgAGfC9ACJCeQGKz1DhNeMtb3sKdd95ZjGO7EprEm9aiHWLn2EXvfOc7ueWWW3j44Yf5/Oc/z/z8PIPBACmtWzBAGEZkOQMUY/sPdWYt1r51qIKWHm7YlW3uzEjCQbE4BoFN6x1/QwixaubdxTDxS8mb1qJdm7G7MGfhxhhOnz7N7/3e73HkyBHA8Nu//u9ptZosLy8XbRWOwOgWxzAMCeOYJFuJqx2nev/+/UxNTbFr166ipxwojucqMe77fhx50yoarEKc6xhuqNda0+/3+au/+iu+8IVHecdP38e2yQmSJFkFl4J9Imq1GhMTE9RbLaq1JqOjo4yNjRWsURezO1W4FzIMV1FcpnrdWbQL5YYtaBi7cGl2u93mia//Pb2cijs+McHBgweZnpqiUq0iXcHBGAwC5a1UaYbbLFyd0ZEdh9UyTDH+sS1aO84W69PMta0JVyoXu6fDIPrwvrUXO3wODsWz+w1xFBE4Klj+2Y2ZnnLVdw23YLjs0D0RwxY9XFD4cWSVop2sBe23SuFrmfjupxCCfr9fVKKHB6huTjZ+k9HGsl75a2+oWyiHC7uOyP7jug7PLTJrDzrMz7iSOzksw1wIZyUuwSiVSqv2Xd4NvTIcwvlzF0667LDX6xWz9C7vxq+X/wcE9UsItem8pAAAAABJRU5ErkJggg==;" vertex="1" parent="1">
          <mxGeometry x="160" y="244.4" width="43.9" height="60" as="geometry" />
        </mxCell>
        <mxCell id="Hx63oCPssNy2-sGb_Ebc-4" value="" style="edgeStyle=orthogonalEdgeStyle;rounded=0;orthogonalLoop=1;jettySize=auto;html=1;" edge="1" parent="1" source="Hx63oCPssNy2-sGb_Ebc-5" target="Hx63oCPssNy2-sGb_Ebc-7">
          <mxGeometry relative="1" as="geometry" />
        </mxCell>
        <mxCell id="Hx63oCPssNy2-sGb_Ebc-5" value="" style="shape=image;verticalLabelPosition=bottom;labelBackgroundColor=default;verticalAlign=top;aspect=fixed;imageAspect=0;image=data:image/png,iVBORw0KGgoAAAANSUhEUgAAAE0AAABfCAYAAACtF0ogAAAgAElEQVR4nO29ebQdd3Xn+9m/oepMd9LVaFmyZEnGNh7AIxiaIYE4QMKYRybyCAk00OR10iHpXk1eXkjSTWh43Wk6vTJ2EiAJkNAJCU0YAwbCYOMBG89YWJZlS9Z0daczVNXv99vvj6pzr2TJliBu2v0Wv7WO7q2659TwPXv87r1LoqrK99a3tcz/6gv433F9D7TvYH0PtO9gfQ+072B9D7TvYLn/1Rdw0jqdL5fxe/S4HWewzvBtZ7KenKCl5vfmRlVWt0UBVdDxm2z9mUeDciqQniDgnnzqOZak8YsatNS86l0JJLKC7mMBJqf42xNxiU+24FaJKEXzu6AYwAKCAIaEoKA1mPFRqAja7JHjMEvUSmWfkGt80qlnAkpASRhAiFgCBsFgAQPqAENEKYnUAGnzkuZd6VFHTfz/FjQwKDnaSIwjYlQRNdSA1VIHYEVwZnwLtUyKrmql1Lvrf0SeMFV9EqpnLWkATsEqkLQ2/gCY09ssPcXvDeZPxHrSSZoo+LE2xXSc4U+ItSCKihAbD+o0QkrUrrVGRhUwgqghpfoYIuYJ83pPOtAATFWAc6gXNCnqLKUKZUqoCKZRNdtYPbURi0FIxFRijUVVEY2IswgQg2Js6wm5vicfaJKoCBiFYHOGAiOBQiwLwXJ4rmTQ7zMajoghMDs1xZqpSWYmoGst1jgyQDTQtgKpQIg4/8QABk9G0BAka7FQQQUMBT5zR8F//9QNPHhomYV+BQjeWUQsiKUaLjPdVp5xyU5+6LkX8pSzHeucwwCZOCwlRRHI8yfoCh/tCFaSkxWvM94vK3+X4969+vvxFvn4yPS4v8np3JeSgOUoPHBowKdu2sPHrt/HfccMy2aGIT2COiQpVpVkMpLNcRJwYYFWnGfaLHPeph4/9KxzeOFVW1mXwYQDv+I/avunIsclYglRbfabk+7mtKCl5kYNgEaQ0BzMEZropw4ywaSAkQj4es8KooEUhqARYzPAgVgShpgU5+oLiyGhGuv3GUtRDDGdCb6yb5m3/b+f5mhqs3/kKdvrCaYD4kAjmQZyLakkZ2SnICyRpyXaHvplImZtXOizTuZ4xxuu4RUXT9LTRhDKRTCW0ncpBJxAS4dIKkE8lek0oc63AZrWwTZGASIQQIQkhoBbwcUCmgIaS0Q8RnxtfAWgQExqQHE424BKQlEMiqKklLDOUyZhGWGxiPz9DYd4z0fv4/DIMUqKOI/NHeWwz0zbcdZMl3VdoecDURwHqxblwhJzB/cxijDsbGLEDIVv4xkwvfwtfvGVl/Mj12xgk4MuQ7CGEsexYOm1oJMGiI5AMgrTw34noDEWmCZ7rtMV08TbYEmgtStXcVSVYgFrhRCg0oDLDJVCQhARPEodxysmKYQhkCiipep0eUjhV/7odj7/9UMsVOuIExP4cIwpFtnUGvJjP3g5l583yfZZT8fVfrMooTBgNXBooeDLty3w55+5mbsOgZ0+h1IynFOcDnjZxWt4189uZ31SWpoYVRVkOWKETIsVSStNq7nObwO0sTkaMwtJOE4lFaMJNNRgpoCKBWkR1TAMEB3Ml3D/4WUOL/ZZGFYUUdjQccx0cjatm2TjhGECyIgohocr+I2/uo8P3jTHwG8G14LFg+ycHfGqq9fyk9+/ja250pWATYokYCUTiCQMlTH0ER4cwEe+sp8Pfu4BHhq2GWkPtRO0ygP8+FVr+Tev2MKOLlitGI0K8m4XISKaAEMU1wQy3w5oTcqmAkFqBaVB3hExKQARVFEtEaP0+y202+bBZeEvPrWbz976TfYtBoKdYhA8IXgmWhWmWmLddJtLz13Ly67ZxT+7wFOO4LM37+U3P3ALD+hmtL2OvL+XSze3+bevv4LLN1rWkmilAUIJakByouakUOJthboWZXJUIkQDx0bK3rmKX/rtz3Dvco8l2QBZhjt8L//u9Zfw08/YzHofgBKxGYg9LomQ4/49Y0mrI20VSykQGsBMDGRG0VBijG1OFCmKkv3DjL/50sP8xefv5cFhzrLrUarBZF0kKCRDsqa+31jCaIGN7ciV503znMs38v4PfJnDsc0gW09Vlbzi3BG/8JPPYMf6Fj5CzwbQUWMSPGpyolhAsUQSjmqsDUlxKVKJsHcgvPvDd/KBLz1EObWTZCzbynv503/9fK7e7MlShViD4oki9X2u2KfHhu0UoMX64oxn1AieATKN2FjUKUy0DDWj8HCggre9+1N84xHDnMyy7KfACpR9TLlEqxrQQil6s/SjB7FgPRJLjEQ8ARsLjFY4gcu2T/PHP3MhWybtmHFERUkKYmxjPepwYaxGFavkT5YqJPRRHMn1uO1I5F0fupWP3N6nnN7OZP9+nr1hwPv+nxcxEwPWKopbBS3FJrl/bKt2aichekLOa1EMkVgWSN6jsJbSwlcPjPjl3/8Gew+20c5GiuUC0zJk1RF2bczZOWVYh6GVlANhgUPVNHv3H+LoMDHK11GlDlFy8EqW5uimI7zl/9jFximDjkaYPKMyltgk5uNQx2nCsEpCingUwWhNJSEgKWASbF1recOPXs7XH/4K31w4SuW73PTAQT5+00FedcUGOuNjMP6O0uMC9tigjbFrLtKSIJWYzLM8LKl6Xe5bgHd9aA/3LUyS2muQ0YjpVsEGu8i/ev2lXLixw/YJw5QBk6AvcLQfWFzs87ef38ef/sPtHOzsgqldsDiHTUN+4gcu5LINbYiKyXPU1Mn3WFPqUCDVwDQagShWEoqrfbsYsG0wkAzkwM5ZeMlVa5m/fsiRvtCa3cnHbn6I5zxtA2c7qb3lo5mRxzFqjwHaqjEUFKMBiSVJDa3eNEcq+LOP7eHGew+RutvIBnOsscv88KUb+Fev2cl6D10iViOSHCFAhrC1ZcmzFk991flctGs97/zobu7cfw9m7Vqml+b42Rc8k01S4a0nqRBLxXutWQxNGGMaLTB15C6NomodCtVRvqeKinWGEJXcwhqNvPSKrXz0i9dz2MxwbKDcuGeZxVgRvcdpWjnOmazHkMNV0Gp6uQJbMwYlcOM9R/nI579O8j0ySqbSIV73vPP4tZ/cyfZYsUb7tHQJxwAjieiFzEJbElZH9OyQH7p8Hb/+M1fw1K2G3vwdvOEHL2V7nvDVAoSIAbxTTCwwaYSRCrRqpMCSxBLEkcSTxKHiGrcgJGMICtaAKQf0zIhLt7bYMhXIXQJaHBlabthdO7o6GYysWsdvFzS1EB2iY96uAhmiUhJVOFQqn7j5MMutnVShR48BL71oire8fB1TxpDnDpGMoF0kGhjMI1qriVaB0rcYmJwocPX2jF/7kV18/7rDvPrKLnkURNqIOY7rtx6kBWR1GgWIVjityJqQe+wQxulPZiBrUiSXtRHTJhf4+Z96LmZ0BNvN6ccWn75ljr7CECFKBBnUBRt5fF72FOqpYLS5FKjzyg4SDDFrMxhG7txzhKWyA60uunyUlz//cjI1tDxIqMBahpXSy3NM8/2VwL2P5Hzia49gWobnXLWOc9fBNU+ZYucvvJper0vhIdcBxmS1jIshYuoqVMNdW8Cq1kn2CYTBqhmyJ+ypPUgGXLrN03OGoiox0fDAg4/gZEMDugU8Ki3GRZkzBk1NQolEao9k1YJ2iTGnipYHHhqx7+AhyM/BmSHre5bLLpyiK0BUNEWSWHw7I8QKwbMcEn/+yQO895P3csSspahGfPDTX+bNL72IV3/fDrbMThKBQhLkHVorJZWGwGUc+jTJnQgW05iOM7RDUZnywlS7y6HlRJa1WTi0j0wVr2DEgLYpjTlt3eok9VQSkRo4ofEqCYw4ksBt9xyiFMFMtDFxmZe/4Eq6AjaAhAK8JTZ0dJmE5DKuv+sgf/TZO9mdMo7kgaV2xt5iHX/+8QfYs2/AhEZmdUSuhkq7hOaSnSqZRloa6GigRSAj4Bq7kzCnLciP17iu0m53IApGHLEYIVXChmqFMg+c3qqdBJpgkYZIdjoOIxV8nVbt3X+IpJ5UgYkVV1/awSYwGhGTkBRBDCMA7ygx3HzXQ+xTQ2h3sUWJqRKj1hruHuTcuCdgK7CjEVk1wOi4qpQQLZHUx8QFTJzHhHlMXMakIVZDQyGcIWwiVEC/SuAdVajw3mCNgglAARpYrXU99jrZpqkg0WJEEClRIqBUpk0lhrnFZVJ0SJmTGUc3By/gnZCSQgwYK1gRVGFUQlElos6AzuKqecBRZBP0c8eNRzzHRFjjwJijtOlCmiQki9jGM6JUVSJ3gqaIE9A4wlgHkp3BbUIhMADmhgW4KVJVcta2rSTT2D2tc+qMCeQ0JZiTQBMVbBJUEjGMMLkSrKWvNVc/tXELnYeOsLQcEZe4//6SZz1NyEQxIqirObeYajAnWrBuepKWBAbJghWMJkQM0OHuQ0O+eihy2YYWa03CqCGJYz4o9z+yzJ5jQ/YvOPJcOGddziVnd5lJ0KWAosDk2RnVM0vghj0Vg1SBS2AsIbMsYBlpRlcSGQVxeAzfmlrx1GcEGkAoIs4bbN6lJDDAsaBw68MV9zx8jOVCwViMdXzjzrvhiksBJWlEUFKKZNYhVcQ5w3Mu3872L9/A3sEiwQVQQy8OaLW63HPHHn7ugT6veu65vPFF57HewsGFgv/6oRv5wr1zPBimGaQuYiwz+YhXPmszb3zhFrZay5q8dwYUenNPwD988RvEqoBqHnzO/vmKv7/1EZ7z9I0MUouzjGBl0GQaj30s+/a3v/3tJ+xRxVhBHfQDLJIxH4XPfnOed7/3Bu45WJHyGapRSZ6VdGWOV1yzAytCCgXWGlQcSQ05ASkKpmc7XHPVNg4+dAeZGGbzimefB+/8l1dy9fmb+NbuY9z49QX+4Uv7SN1pfuW/foav7h1yNDub5ThNam0gtddSiOfrt9zK3vsPcPFFW/C5o23PzH8+shz5ww9/jsU4iZGMpJajxxa57c57eaBYx9atLdZkOS0EMaYmFh5jnZrlIDKshMI4loDf+etv8Zdf+CZzMs1AOlifE43il/fzrG3C77/5eWyZsjgNWCrUZCwVMOkjUg4YZdOg0AcerCl6zu5BR0cEDHuXhA98/jD//XO3M1d5Bn6WKgqhSpjOFGKEthYM+4fZNCkUj+zmp175XP7FK7exlTqSPN3aPRd4+3u/yBd2VywXOVVnPYOiotseMUzKlefm/MZLL+D52/Na/cy3Qw1Rkajoa4eFBH/8sYf54//xdRZaW1kcCZMb15CO3svlOzq89pWXcvW5bbYqmCrScopIJERDch6fAhIqkm/XHj2Bc3XdQSNgIAzmMe0OR22Pv7tviV/8z/fQD9OQZ2Q+kkaLSCgxMdBr55RL88z0HMRl3v/Ol/CMqdh4UItRgxszzwai6Aq9PlJhyQh3LQjv+/Bt/OPtB+nnGznaV8ruZszSA7zg3Ir/8NOXc8H6DK/aEANjzlpIBpRwajcRcSwp/N2NB/jQ5+9gXqboJw/escYu886fvZS/eN0FvGabY2eCrkLHSt2ogsG4+ruvjKPK2kSBgYXoErCIMI86y8jkhM46jPW0UIYHC0xVYa3DxApGCzgpME6IfpLlNEuRnc3RosNSzLjp9iWUSIkybGKscTSsWtux0HSHtHTA2jjiqqnEf3jDpfzJL13D667sMT08BgND6u7gs3vht/72ZvYNA1WjdRoDBF3pZiqIp8gI1FAB984V/MFH7+ZbS55W3mIizLFjc49ffculXDYLm1KBaXg3GVMpsho5jXPBuq4AWaXAEHxCpYdiyOomC0bkLCDcP2cg6xKNBZMozbgu5EHbBMlAIzHvMioGPLTQB53EU6dJmSpQgQkY8Rg8CSGYhE1KikoUpWvgsi09LtzSY1C1+L3r7qeQWVqTG/j09V/jqq1n8bM/cA5GciQNsVZW+mfGLWCPkjLLolre86E7ua8/RdXZgsbAU3pLvOund/KMaVgDpJQIMdVGuAEsNS8Yc1+xppVS0dRQBSWjIKdsTu1SRZaWsTGxYb1lOKq5e6SoxWaMfhwBI3AFKfZRSjp5hkmQl5CVjYQZIdm6GdAlcGpqOty1qfIO1lpyhXYMTKfAz738LF73ku3k4WEGR+cJvV28/2M3cttDAwaAuAxUkdB0MR2Xla+sIPDlO4/xpbuPMmIaMR0yHfLrb7qWq9a1WVcskRdLKIq1NU8/LsJUYxVBMVR1RK8lkEjeEVybJNlYpusfqcKlZSZNYvs6TzYxg4sjbCggKAQHwUJSTCjoEGmXJbM+52lPma1ZGE11oUeEgfEsS5sKi4ngAmSaE9UxBEKgzmBSiU2LbMyGvPUVa7hgI+S5ZTjo8uBSl099bTdzCaK1DJaWEQuOgD2VpBUJ/vGOh1mKXTAeics895KNPGMntHWISf266i5C7UMiSm0/4goU6cQ9YigFChFAySloqWITIC2CzDDEcP9BcBrphECrElxoQ5yA1MXbSdwokRWRbnKs66xl19mQTAA3D36Z6CKD2gjU+WOqtZWibt9qkWibZr/WJGbuC6aAV1xzFr24jHVtynw9N9xfsFAEipTIO60abQWLYFSVsQNNKXFsmPjGAwnrO0gxTy8+wiuevYEWYHOPdiaxWRdjPSJj0GpDueKGtUK09jwqHsWTV0q3GmE0EENkND9PVDhmLZ+fs7zud2/mPX/6KTZli3TMEGctMTmQLqQWoT9iYnqCUdFnYqLH0bkF3vkH32JPmTG0XYIpGOkiokqG4tIA5BDY5ca3JtqM6mTfgLoctV00KSaNePGV57KlV5LrCPXT3P7AMQ4PC0pjMFbGDQIItnYEKdVUsjGGUSh58FhBjI6ZvGKqf5DLtj0bCyTjSOJIGByNS+bENhgDWE21xpiMCkcQoZNKonGM6mQFO+3ZP4T3f+Yu/urL32I4XORlV+/kJ194MQdL4U8+ege37TvMkdE8qol2PiIfLfEDz93Fs56+ic9d901uvfUbvOMDgX/70+cxkyZoa0mPiDcBK0fALqBmln7s4YnkjGpra3KiCElakJQp4zhrAp5z6Vb2XHeEZZnFmQ73PJy4ZBaSCEZrukq07hRAmlREVSlC4JHFiuRyTFjmrGnDpilbd+kghMY7ehpmUE4EzDBmOixBLAOE+aiMCqEsE+1JqJzj4HzgV3/rsywEodOK/PLPvJgfuXSayaQsWbj6rU/nE7ePeO9HvsbhuWNcuG2Sf/7ql7BrPUxZ+L6dl/Nrv7PAp284yNzcEX77F54JwTNhE1IMIVfUZowwLDmYYqySgSQZVXMfGTk2JTqqXHrBVvjCvvpmXIvdew7CJROIczTGGsaSNgYthMCgEpJa8G2Gw2Nsu2gHANKwV3bcBKNjmPQ4wMBqLX0pJCpvOBLgv31sHx++7gEWQ2BmjbBz6zr23fMwWYy88Iod/MRLtrFzGibTElL06doEZpZrL2hzw+cGTIz6/OYbfpgtXeilAVpG1uRd3vEvn8evvO8ubrn1Ht71Jzfwttc/k34y5K0pAl2GKBFLRkIwJOlgCCQC4Gv6K9VtBLko09Oewsd6riMmlpeXVwhQO46jtLFp4yUiGCOI9QQ8lW2xXJlGCSOiJU4TfqX9zHI8x2mahhlQUohEgS/dtswHP3kTD5c9jrrt7A7buO7uATMZ/Kc3/jPe8VNPYddsTrI589IlZLOY6Mi9Z2kxcmA/TPfWMtW2OAQvLVp+Eq+WTR3Db73pIi7aNslNtx/l//w3H+ebo8SDQbhrINw9D/MjaKeIJTEio2bhSgyBfOzBioAxhmGpVN6Cs6QQ6HXaK4TkKk6CG0uZiGCtpe0rMr9MtOtJVY+H9i40NGQtZwlTF2WLBLkSxFLBSje/xYJ4TDtjKcGXv3EfC9IltGaBDJYO09V53vL6q7n8wgnypj1rhIC1lNaSuRlsNBxZHHD3oMMvv/gpdBs/P8LSBZKtw96zJPLOX3wB73zfLXzyhgf5pT+6jSpkHDhwlKVjxzh7jeeF12zjjddewJb2kGQ8FR7FYAWcqcAKBXBoDnzqEZLinGV6YpYMiOUIbx00WrYC2hi43Aq91pB+vyDTHsWo4NiCMtELeGspY01HZdaAjpvXDfX4w2ouIGIwAmvXzpD7oyxnDjMqmbQjNtFnMhsHxnXrk8NSIUSBJB4Nwrf2Bw5HyzMv2cAkkaiNVCdFTMJQ4lNkc97l/3rdlYTJ7fz1l77JEHB+hpB5FkvY+7UhZ08/xFueP0OpbYLUWqFaojIkZl2WDXz9zj2kkQEpEFuxeV0bp5CZ0NgjWzsFHrVaeca2zbNYCpJVjiz3uXfvUcQYhJLMNLbfgoYCl0a0NJGj5ErtBKoCCYGJBK99wTaecVaLNfO7WTN8iNn+AZ69YyOXnj2FGSVMFIiCS9BS6CTwMZAc3HLz/Vy8Lue86USeKtpAJwIx4gh4FEKFLQLrLbzsOVO0whBrc0JoIZ1NlEwyvxT5wi17GUqP2JQT27HAF/OIBMRbDvbhxnt3kzJLK0/MZBUXbLVIoqaKVgbYTlEj6OWGC87OkLhIoRULKnzu9ocpcAyrsv52HWAC4qROMRScCtIwArVZi7gSNrfh37352bzqikmu2niUf/Gqi/iln3kmazqWTkvB9sEMQfqIFBiJBCzHBG6+bx9X7FhPG1bqFhJT05JgUXJCBbn35ApH9wRaJoLJwUyifj0p9lA3w6GB51isGZ9WSrhqsakGOY4U8MVv3E/fdqlCRRYXOWfasb6Tk9sEVdOTpKutGiesHHjeeWcxI4tkJpIm1vN3X9vDzQcLgp+mShZUqcohGAPiUTFUApXUsRy+SxwU5B5cBVsm4Df++dP5w19/Ka958XbWTgZSGlHEZVQimFg3fEiFSiAYw1cOwEMD5em7cowKQUzNWJiqppTEMsJAZ4qgibbAxedacl0ilsuQZ7DcB+9wYcD6mS4pgVeF2G/UrcXQdtk7Ev7H1xZ4+OgI3+nih4f4vss2MuHrDs7j+2HGRfSTQLv2orVcublDnkYUpeURcxa/8Duf4VtLwlJlSQ3qYMA0JTtYAa5EsBMTVOWAlk10FaYF1kjFFBEfQ12wcW0CHSIdEm0gJ1HboS/cuYyfnWXHhhyjSkhah0oSwSpRhEqE+WGBdQYNiR3rHVfumqGbDmLKRyBfoh0OMDXYywuvmGHag9cKqiHYFsHN8HBy/Np7b+Ur9x6ju3YbLCyw3g55yTW76BkgRNScWH4+CTSvJTOp5K0/fiXrbR/XalHoLLv76/n377uN/X0YKSQ3QVAhNd074xqpqNbqKyU+V4wMycyALBS0k5AnR0datKWL0QzUQ/JI8hA8JhoyB3feezcbZwxnr+miqVrpGMIMUVMiEjEKE502Jo3ougFrrPKLP3oVP3LFDNv0HrZVt3HNmkP85muexksv20yXCqQk5T2W3QR7RPjtjx3gi3cuEdwGhkfmmfWRN736+WyZrv2cswZJTXOMjKXtpPbRIaSKPpP8l48/wn/81H6O2kmQwJqwwNMnAm99zdO58qIObaAFRE11NX4cvjT9bKKrraakpm4tNCpN3Xc2Fvlxyzqwd6HPq//z5zh3xwZ+96euYCopKSkuE2ARxVHRITWhttMCUkmoElVrmiOMQyCYACaBFEuMNfSDUDnLnUfhbf/ta9y8pyK1N2KLAbMMuGZHj//0c09l1oOGSMcnqrLA+zbjmPRkElIsMY7IJfHaH9zItw71+eDN+xhl6xgywe37D/N//94/cuUzzuGFV23mKRsnWDtpao+aajNXd4E7BLeaKdSkAo2zXEnwGx7yBLHft1jwyJFlXnjts+ljKC20TI19IdMriiKM07kWzrYoNBGaawiN5JfAokKUjIUI9+1b4ot37+ej1x9mzzFHlU3gY59OeZAtkxU//6OXsSYDlxJiqVu6TN36ZRr9PEnSKlVGRHpJSQH2lo53f2I3v/+J3eSdc8iiI3dDCjuPLebYlFk2ru2ybmoCa6AsS7JOb6VlYNwRbgiojN32eMzu+FM3VSX1HDnmuO6+/TztyvPZ1e5TjHpMxz6RPsfyDEuFjzm2dBBG2DynX4wwLY8xYEXRVKEpsbTUJ897VCFw9/376Ntp0tQW5kpHWQLVItN6jGvOafHONz+Dzd2caVfn0Em0/hLEIIlVTXo0aAOFJWBiNEfHComce2KHP7/pKH/2kQc5MsgpjKKTGVJFpFQIAzIqMgMYSxGFaPwK+yGqGG2EWhKiqSYpSQipwU6arMMTtEXqdFCdx1V9ymqGmbiIuCHHWhMYHeGCJw8OL4kKR2EMyQkmFUga4SVgrEVNi2HwpBDo+JxCc0KAlHssA9aaozz3/Jw3veh8LtsySTsFvEY01e0LRQJrHG4saejJoJVak3idVOEpURGG0mEB5e6DiT/863u47rY9LLZmGGkO4sHU0b8opGRQbaLfscIpNXHZMFu1XkZyiYRhn263w6A/gN4MQTykvA5BwhJogXNttByBEaLL6+MkIAUsoW7VGbcXEJGmQ9IYAXGEBEi7mb6NtGxJtzrM5k6fX33jtVyzM2PCCO1U09l1326FSkKpx5QkNZpgipNBiyh143kFqYQUQHJG0RG9Z1GFG3Yv89nb9nL7A0P2z0eWFpYohiUqFms9onUWujpVLkQ7IJpEwoM6rIJNgcwkyioQszZDHMG2UclwJuFTHx8HEAqMy6iwRFxz1FQzD+OgWkCbs3nnSSlRxQpNijMO4xKdTNmxcZbzNwhX7Jzh+y87izVe6ZkSOza4pUDmwFYgAcVDypDUeC3bP9WYT0Q1YKSxO+NhqRBQm3NsqcBNTFNaWA6J5agMqsTyEiz1lWIkOKtNLsoKjRSdjqn++taa8KSVCQtDRVvCfCl85eaHufOO3bzqJVexbX2LnlOGi9Du1e1bsWlPkea4p2oaqkpwvnEwAhMTwoaeMuMUby0TzpKbuoJldYiJw5plDiDahryWdJUR4B4F2uBUDTAWSbbu02pOaqJiLZCUmYk2SSEbQV5JjfUAAAtASURBVDszzHigZZEJVhpf3HHRnzZK6utvhCAnNkdpqruwB0A/wTc+fhO7wmF+/KnXsGHKk2kTz7rV53KsPnSicSenKIbL+HxajzWEKDgDMSreQFlBYQFaiMvRJBgvpFSHFEYMhuNGfsbnEDlFyEGdygxtmyVqM9DxgibIvVA233DuYJRWqPMVfsOY1cH941fRvGds2WhuvB5Wg/kIBxYTDy14Nm3eReq0GDThiV2R0NXPjUELjz7Ro++nudm2rftwx0174qHSuqsyNC2mpsaECmruDkdW//WEr+MU6pkoFW45kvjwDQfZc3CIC31ySooA0u6RqohPQ7x1hOAQEURoHIA0TLA57phCMJFg6xokUIchsSJ3hqII+IlZjgwqbr3nAXq9LhfuOAcp+9gwZKKVMapCM0SmWA04rTuxw3EpzsptiRBjImlq5t0FHwsyDSTN645wY2sG10RiKsl9i1QKU90e1145yTOfuoYO0EoFVn39iAsDeipHkBI80oc3/94tfGZPRehsgMFRWlJRmBaV7QLg4xL2Mb/nE7MzRer8VCwqpi5OaIENI7wGMt9iYVAh7TWEYEh5u+5K1AKfSgyJ2IziCOA04LVCEQIdzqRBrTKGZADNUEzjIUucCaRUYZKQgsFXgQu6h3j3W1/ApVtzphlh1CHJ1USBCSerZ5J69PCr995DOXkxUQTbEopQEIxBbQsEolTENJ4qPum7PnmP1lGENpS4aKpJzeVlrPE4n1EmRY3FpIBohWlKgQlBG0mui4bjkZ6ESnXK8520xjdOPf5jKDEUGKr62GRY30ZIPLJQsufAHJecs4moik0RkqC2JitOYdOaMQSdITIDZLiiZDosUpkRQ1OBJCbDUYwaamrwcfFa8aJJDLEpGFsCVitmptsMyxGSTzFaXCafmEbCHFkaYamwGuqpZvHE5gsyVPhUYSQ0perTr6h1/dUo+FRP4SCBUgPRtxnGHsF1wXeYMbMsFbHGIVRkJltpvdJTgSbAaAjOtTEpoctHuHxrh998/Q8jUk/yGoU1sTaowzNrRMQ2ni+ME3WBFOuqWlC475HEu3/373ntj53Ps3dd0ASaqx6yaloflLqnwml9H4/lPU+5ms/ZpkUkChQOlh381ef289effQg1jlGZqNTWk33WoqnWjNS0XJ3cPiq1B4xhCVseZWJ9hx6HuHxjHdfE5qLzNAAjlCZb6VFZnd3TZrteRuveCUmCmrr5OIhQSO1plyu442t7ONsv8pxzPFevgx6KTSV1AzGoeKKpu4AsqVFhoS7dngFqUvP8qSbJV16lwDzw1dYCrbiAcRkqgstb9Wh6MiukgtH65ynVUwV81qNyiWP9Ywym1pOAvInERQ3q6odcZCeMKZw62hSUVI4Q36McWmJbWALuPLTEX35uN5/96iEGRY8ybeG3/+Ygb3hx5LKzp9iQZbQUbBiCB6F++IAgGGOax0Kc6TKUYviz6x7k5t1zpBh5/uW7eNkVk8wAng4juw5TeTLx+JRYJ4ranCRSt+iniFN76kblWtzrQrCKUhnfxDHj+fWMZqDxUZMdY5l79EqYrEWqAraT0wfuOgzveP/1XL+nZJDOxvi1RKN84b6j7HnPnbztdd/HS57WxSaD9RnjiTtZOY+BFdbk9GtYKXPA1w/1+Zub9mJFWbNhlh++ou5vM6JEqaf7otaP2rFoE9dJc58J09Qq/ucvAcShpq4lzFXKhz55G9fftUyZbUN7G4lZC2ybgh7HdIo/+MvPc2ggROsZjSrGYczKcIRKbRDP0KBZbxELZRgxGixgpcD72q6N7azKeBIvPu6xvkuPzWnoQi+MgINzQ66/eR9ZZzuD2IM4rOv+IdDptFnod3loecB1txziJ561nplWF1K1UuCo8045oY/ktFeQKtp4XnT5di4+dwNVBReeM4FQZyuFqWfsXSwxTxrQRCiCoh7mFxeJwUHM6rS+PSQ3fYwOSUctbmqWpcECB44uEcx6NNXFaJSmvasB67hfT7e8BGaIPGfHNN5PM4yQNVX6AVCJbdiXktONDn131LNZtikR5HmGtQZvPD7L0FCRJCJGMM5TDgeIgXanRRonHfpPvNRYz/HNLRbsOQTf3FuxuFxP4LWAPAFYIp3GIz/2+u5I2vgRq6nCS8b66QnO2jjF7jsPEtdsxbenKZcqQncGK5CzyAwF1zxtM20HqUqYJptecQW1YeNMRU1ti/nK8p6/vZmPfeleWpnntT9wCf/65TuZSDBRBUwSCplAtHjcY32XHIGSiiWcJExIrJv0vPzaS1gzWxHDEaoqwuRZJDNNJRa3tI/XvuipnL8esqg4Uw+EjMOhtALYmYccpVqGGSxNr+fB9lN4ODuHpWwtSkTSMp0Y6pRNWsTTPHDzu/b8NPEOFYtWyoSHay9vc2h+Bx++7h7uP3IUqWYoRwWzE4mf+MEL+bFnbWIyKTkVKQ4wvoWKIdBQSk3MWIvc6aXNGcUiTJrIudORnlMmzABhAjWOwtb5LVLXVB/3WE8EIKdbipBcixiUdu5JSVkvgTc87yye+5QJbrprkYMHImvXtrlgR8bF22dZm0FbK0QHaDEAn6/UsOoo7duTNBMGzDrh55+/mdc/azMpKet6DiMVA9dm3nuShSzN4/VUjODqeoyEXXE6xKUWMVkqY5mDpjhrsWaVVDx+6H6F3j5pWxgmh3cNaVkJ1lu8U87fMsN5W2ZO+AxaH39UOdp+ArpTlFoHn5GGhBSLwa4UhR/73PXLui4WWDsFZwkMi4jJDUfJmQeWrIE0INcKpwPUKEM1ZCgm1cUaFUM8VRoVgJQrLZbo6CwD6fLA3BI/94c3MxGUVhRUIpUdAtQz7mewHstkP5asPFrp9LifZx6dra4oligG0YTVGlIFKgzRZnzzUEUWC1yngx8cJqSSRYVZ0Xp4xLo6/+VUoCkUYhiUik50CLHN3ELFp++oaFeQRUs0SuUUUYuJT9CDFv+nLiGZRDQRqwmr48cJ1M9rVqcUdEh+mrKKbLYWE0dYAxqbUmCo0Gbm6yTQnMDaDsy0HcPRAj63pMyhpakfHmIyolFK4xD1WM1p6mfj/GY1tTntdiM//6RtWRXDx9wWVAKJCksaP/IEgDIErPUQ6r4Jk1nScIHNs5NIbACqSnDZiik6CTSrsN7Cm17xLN73ia/z8KBPEouViDW+HoA1hsokVEc4029u4kwsy/HbDYCraH6H29/OuesHZlpCPRJOoj0zwahcrlOpCD4krr3yPJ6+cy0+gXWJshiReY80RPkpCyuD4ZCYdbjjoSUOLA8JxtYf0Lrwm6h7Y/WEhzwcz6CdyfYTuc7k3HWCL+hKGduoEmPdfyampgJ85tixoctZXaFrwMcRGkaYrAWSEcWeqtWqAi1R6ynxjZccj+7pCkjHkzT/O6w6XFkdQTToqiAeh0BNy9dUUIbWz4ocBzriUTkVnyauCRjrJoAcD00rgKXEMqwPoDmMm1qOV0/Rx9huLkl4/O36Ik69LePi5+Ntn/pa1OhKX540qroK5/HLoDh0PFgi456UVfE4uRqFNLVJoe7ajyuUch2D14+qERVQezKf9WgN/Ha3H2/9E44tmk6I9JUGwebn6jOZmmd+10/rRFceNTEmQU+Rzgs1ISq26cZQRbVpxBNHIsdhEfIVHnBFYMYH+E63T+Ukn6BjI2alUWZ8p2n1LU2n0fj8oXHysjKOWf8nErIiUieClsBGoOlPRROSWoiBaEytvk27VJ08Vycbtidy+wk4lkA9Rad2RfpEVtmKsXWW4z8E42cCrqzx+0+2aeMZMTFAq/7ZqLRZ+Ugj0vJdJuSe4PVoy7m6akpAWK2BrN7nKUKO763Tr/8Pv1FufyQEAVQAAAAASUVORK5CYII=;" vertex="1" parent="1">
          <mxGeometry x="260" y="245" width="48.63" height="60" as="geometry" />
        </mxCell>
        <mxCell id="Hx63oCPssNy2-sGb_Ebc-6" value="" style="edgeStyle=orthogonalEdgeStyle;rounded=0;orthogonalLoop=1;jettySize=auto;html=1;" edge="1" parent="1" source="Hx63oCPssNy2-sGb_Ebc-7" target="Hx63oCPssNy2-sGb_Ebc-9">
          <mxGeometry relative="1" as="geometry" />
        </mxCell>
        <mxCell id="Hx63oCPssNy2-sGb_Ebc-7" value="" style="aspect=fixed;perimeter=ellipsePerimeter;html=1;align=center;shadow=0;dashed=0;spacingTop=3;image;image=img/lib/active_directory/firewall.svg;" vertex="1" parent="1">
          <mxGeometry x="340" y="250" width="30.5" height="50" as="geometry" />
        </mxCell>
        <mxCell id="Hx63oCPssNy2-sGb_Ebc-8" value="" style="edgeStyle=orthogonalEdgeStyle;rounded=0;orthogonalLoop=1;jettySize=auto;html=1;" edge="1" parent="1" source="Hx63oCPssNy2-sGb_Ebc-9" target="Hx63oCPssNy2-sGb_Ebc-11">
          <mxGeometry relative="1" as="geometry" />
        </mxCell>
        <mxCell id="Hx63oCPssNy2-sGb_Ebc-9" value="" style="aspect=fixed;perimeter=ellipsePerimeter;html=1;align=center;shadow=0;dashed=0;spacingTop=3;image;image=img/lib/active_directory/firewall.svg;" vertex="1" parent="1">
          <mxGeometry x="440" y="250" width="30.5" height="50" as="geometry" />
        </mxCell>
        <mxCell id="Hx63oCPssNy2-sGb_Ebc-10" value="" style="edgeStyle=orthogonalEdgeStyle;rounded=0;orthogonalLoop=1;jettySize=auto;html=1;" edge="1" parent="1" source="Hx63oCPssNy2-sGb_Ebc-11" target="Hx63oCPssNy2-sGb_Ebc-14">
          <mxGeometry relative="1" as="geometry" />
        </mxCell>
        <mxCell id="Hx63oCPssNy2-sGb_Ebc-11" value="" style="sketch=0;aspect=fixed;html=1;points=[];align=center;image;fontSize=12;image=img/lib/mscae/Azure_IoT_Hub.svg;" vertex="1" parent="1">
          <mxGeometry x="520" y="253" width="45" height="45" as="geometry" />
        </mxCell>
        <mxCell id="Hx63oCPssNy2-sGb_Ebc-12" value="" style="edgeStyle=orthogonalEdgeStyle;rounded=0;orthogonalLoop=1;jettySize=auto;html=1;" edge="1" parent="1" source="Hx63oCPssNy2-sGb_Ebc-14" target="Hx63oCPssNy2-sGb_Ebc-15">
          <mxGeometry relative="1" as="geometry" />
        </mxCell>
        <mxCell id="Hx63oCPssNy2-sGb_Ebc-13" value="" style="edgeStyle=orthogonalEdgeStyle;rounded=0;orthogonalLoop=1;jettySize=auto;html=1;" edge="1" parent="1" source="Hx63oCPssNy2-sGb_Ebc-14" target="Hx63oCPssNy2-sGb_Ebc-16">
          <mxGeometry relative="1" as="geometry" />
        </mxCell>
        <mxCell id="Hx63oCPssNy2-sGb_Ebc-14" value="" style="sketch=0;aspect=fixed;html=1;points=[];align=center;image;fontSize=12;image=img/lib/mscae/Stream_Analytics.svg;" vertex="1" parent="1">
          <mxGeometry x="600" y="256" width="50" height="39" as="geometry" />
        </mxCell>
        <mxCell id="Hx63oCPssNy2-sGb_Ebc-15" value="" style="sketch=0;aspect=fixed;html=1;points=[];align=center;image;fontSize=12;image=img/lib/mscae/Azure_Data_Explorer_Clusters.svg;" vertex="1" parent="1">
          <mxGeometry x="605" y="340" width="40" height="40" as="geometry" />
        </mxCell>
        <mxCell id="Hx63oCPssNy2-sGb_Ebc-16" value="" style="sketch=0;aspect=fixed;html=1;points=[];align=center;image;fontSize=12;image=img/lib/mscae/ClassicStorage.svg;" vertex="1" parent="1">
          <mxGeometry x="700" y="259" width="39.53" height="34" as="geometry" />
        </mxCell>
        <mxCell id="Hx63oCPssNy2-sGb_Ebc-17" value="" style="edgeStyle=orthogonalEdgeStyle;rounded=0;orthogonalLoop=1;jettySize=auto;html=1;" edge="1" parent="1" source="Hx63oCPssNy2-sGb_Ebc-20" target="Hx63oCPssNy2-sGb_Ebc-16">
          <mxGeometry relative="1" as="geometry" />
        </mxCell>
        <mxCell id="Hx63oCPssNy2-sGb_Ebc-18" value="" style="edgeStyle=orthogonalEdgeStyle;rounded=0;orthogonalLoop=1;jettySize=auto;html=1;" edge="1" parent="1" source="Hx63oCPssNy2-sGb_Ebc-20" target="Hx63oCPssNy2-sGb_Ebc-25">
          <mxGeometry relative="1" as="geometry" />
        </mxCell>
        <mxCell id="Hx63oCPssNy2-sGb_Ebc-19" value="" style="edgeStyle=orthogonalEdgeStyle;rounded=0;orthogonalLoop=1;jettySize=auto;html=1;" edge="1" parent="1" source="Hx63oCPssNy2-sGb_Ebc-20" target="Hx63oCPssNy2-sGb_Ebc-26">
          <mxGeometry relative="1" as="geometry" />
        </mxCell>
        <mxCell id="Hx63oCPssNy2-sGb_Ebc-20" value="" style="shape=image;verticalLabelPosition=bottom;labelBackgroundColor=default;verticalAlign=top;aspect=fixed;imageAspect=0;image=data:image/png,iVBORw0KGgoAAAANSUhEUgAAAFkAAABlCAYAAAAms095AAAgAElEQVR4nO29+bddx3Xn99lVdYY7vQmPAEiCgAgOEklxHiRTkinLsmWLkt1tO5JtOYmHZGVl6l7Jv5A/IPmhV1bcK7Hsbsdye2hFctPWYFmWLJKixEmcRZAgQHDA+PCme+8Zqmrnhzr3vQcIiiGKXKTlFHkJ4tx7zz3ne+rs2vu7v3sfUVXl/x9v6TBv9wH8cxju7fph7V6zIYCgoPHcD4rZ8YkLvD97TwRNe+j29c4ZbxvIcC7QdmvLhT83Gwm8uOPbQroh7Tlb3klD3j6brLN/QUB3QLMT/NmfgW040ysi2n1S7NYs1u79dxLQb+tMBt+ZCAti8SSQZvMUEmDKNsiz9y0GIxcG850EMLzdIGsHn8Dsdo/dK22ZzV5FOuiEbft9LpjyjrPFs/H2giwCOoNxG0BHZxI0YghpsZPZZy4Eo9ne3ztwvI02GXRrzpru7yDaWVf1EBuQAE0NLkdVwFhETAe6gCrBR2yeM5vHIvZtOZ8fNt42kJVzFziDdgtZgOjT7NUAJs32OjowBt+02LzEGWhbT55n3Y4iRiAGj80K3kmG420F2TNbxMCpAm0CN0bUZEQMHks0cDbCI98/yWOPPM1H7rmTqy4fUBhBW+g7KATq8QZlWSB2ZnDeGeNtBbklgZwDRn0yESJEHFO1VAJTge8da/l33zzMUy+cZmPlBJctzfGh2w/ws3deyfW7HQOBvkIRPb6pyHt9fqJBnu1MZv93XiSx0ydou7czFBNbwKNktFjWxfD8euQrj65x3wPP8H32s3G2gtLgpmfYXXj29Rp+62N38YnbSsrWMKJiULhks2c+yAWshpxzxtotwBc4l3M/+EMW3X98vOkgz3xcQ0QIya5uRQkZofOHA8lciEJfPVZrEPDS5/Bm5EtPHee+x1d45Mga6yGn7S0l+zwdU4hifURDyygT7rxmgV+9azc/e/08u40nCxOsK4nREZ3BSzoug2KAPAr45EFKHrZB3hkyCqjEHeeT/nkj4y0BOQJCwOCRmQcRDT4IrWQEEaKAE8gFiBGMYRM4tBr4N59/nH94cZ3X6x51voDiIEyxLrLU7zFd32SzNmSjPbQBXLPC7vAqP3/9HP/qV+7gxkWLrzyul9Eq+Kg4G5OjGA0uGGwXGqoNiCio2XbQRUAUFcWjKIrFYHljXstbYJMjihK7ubxz51bBEBBtk/0NY1SFteISHltV/uhbJ/j7p9d5fWWDEBVnLUEFEUvOAA1Kgyc4RR0QG8RPKZ2QhxZXN1yx0OfeO/bxi++/lKsWhaG0DGKNRIGYg82JVpkSMGLIEAySTIGe65Ps9H6EN+6Gv2UzeRa9zYYGKGxEmylCgzgBKVnVkj/45sv8r/c9y9rcNWyMFfICwhSRiIaAUcOytzTTiqlVfK5oERFpyApLO2kImxGW9kHr6TUnuGqh4b/7pdv45Rvm2SNg6wDBQybEoqWiQsgo6CPdhADZNgja2e6dKL/BtfRNB9l3LwM4jYgGRAKqikpGo4I3hpNj+PqhNf7iwWM8c+Q4EzvH2cYRXB+kSDszgK/ItWJh8xTvu+EA112/myeeOc3DTz9P259nw/aJtgfFIJmd0CAyph9q9piWOy7fxa//9EFuP9BjuQ85AWETMS0Eg5EhYDsbPFuYDbIT5Bnr9E4BOXSvTBWJDWgFElFTMJYeawjPb8D/9cWn+U9PbbAml0CzTiEtzjqCK6mCBQwmjOm3Z9k/jPz3n/5pfvr6jHkD0wa++Hdn+P2/+jbH3W4mw11EI8Cke0XwJTYMGJqcojrNvXfv5zc/ssyNyzCH0gsBGg/ObsfzJnY2IVGnHernMqpvYPzYIO/8uoigwaP1GGMNGCGIJdiMs9HxzOmGrz63whcePMrhlQafLxM1h7YBaxGXEUPExIa8Ps1VvTGfvOUyPv2zV3NgV4GoJxODkLHm4ZnjFZ//1knue/glVqIj5gU14I0l+hKyBSCDOKHHGQ6OpvzqXXv55ZvfxcGRoQhQWo+YCAQwkUjEuIzZ1FVMWhR/COP3loN8PsBAWszaTaJkeOmzkRWsiPDXT3r+4u+f45EXX8cXi6gridWEQdGnosAHB4XDVquMxkf5hesW+R/+5W3csrekLy3oBhCJtqSlj1dLBJoIjx6Z8NkvPMnXnzpNu3Alk2xIJR5MA9pCZqFtWbCGUbXGgYHymXtv55N39llCU8RJcjtVZ6DDjP+LGASLeTv85BjjFsAzkGOoie2UNh9wymQ8eKTiT771Kt986jTrMSe6It11GhmYQKimaD7Eh0i/XeWWy3L+i3sO8gs37WZXFimMQWOD+DWwBnVDxmQIkSxOcBLxvsdrVc5fP7LK575xnKdP19RZIJaeIC0eh5M+YRopnJC1Z7ns0pJPfuggH795mct6hhHQi0pPlILAzE6ovANA3gmwqjIFzgKvVsIf3vccn3/gEKvuEkLvEtogEBSaMdYKJnosgaxZZ2/R8JmP3MxnfmY3ey30Q4tkDhVHG5UijsFmeJsz7ej7XhjjpEWjpQlDJrnhWBv5o7/d5K+/+RCvrKxi5pZoshFaDKl9C80G+2/ax90fuoL5MtKfjnnXXMltCyVXGJhXZURyN9GYfOkuz/hjR3w/DOkOvo5g76jy86LQmbvmVXmpivzJ42f5q68/w/GzFVPTp6Ikmh4hKCbLMKpo8OTaspTXfPzW3Xz6/Qe4aa9lQYCY1vi2acizLNlDB0ETp6ySftAqRO8xJiImojZSYTjuS544Ouar3znJ1x47zbFGaOcKlg4OOXjrbnbv7aPBgwZK5xi1DVcIvHeYceMgY5+FnoJNYWJa/2Qbj3Mpgx8M3c+/FKIalS4ui+d9cItOVw++BslRk9OabZBbTev5VOCbz2zyf3zxYZ5eK2jUgs3xWNo2xYDWpGDEqEd8xc9eKfy3n7iR2/bPMRKhpyB1TD400q3m3S9JOpkWiN0i5DRitUsUSpp1jSo1OR6oovLoK4E/+PYRxgf30FwxxA+FLCj9NlAES9skh6IIMGpq3tPPuXPJcG0Jc0AGRNlOF+SQeJbYgs0AR5DtoOtCnp6oxhlNvh1V7rhi0qXgfdOgWDJnUYl4FWpjWY3Ck8en/McHjvP1J45wNpZsxh5tNKgtEAVjLRJrXLvOMG6yfzHjkz9zE//iliWuHUQsQmg8PedSZDa7Q8z2DELTwafJ4EGUqAEVwYjBqMUEASNUJpmsl33ge+ue5yZwUhwbzuIFFEUIuKgUGokkb8JF5czhDdaef4Eb5gt+7c593HrZPAumu6CdiTPd73q1iHOEDlirKc4Fs0PKABLPMxezcxKdGf8IZIwRclWyWEM7IZTzvDA2/OHXX+CLj77Cq5vCRDNsOUSlIEpGuzFBRvMYatzkDLtZ4VfuvpbP/MwBDs5nlKoQGjKX4bqDCqHF2mzLLOzMnbjO0yKme9k7mGJoUDIVeqRg4pjCAxvrPFpPOKKGqS/phz69xuEUQgnjQom2ofQ1ND1WzgjffeglNk+NCZMJPeO5tqfce3A3/+PHr2O5r8RYISI456i9QuaI3XpUQCK5YgumTPZthmXoQDZbwpEfCIgBy7gFlzvaEFlpDF9+6jU+980XeWpFOONLxBaoBow4fCwQa7Diod5gl5twz3t282t3v4sPXV2wGD2FTkBKlJzuAPDETqQyu9zaASxkM8R3hLoRpRWorDAWOBMjR+uKB9c2OTqZUhV9YjEixpw8GpwH00aiRKJVgiobZzc58vwJjhw6RV0VIH3EZWhVUfia5XrKDUsL/OqHdvOx2y9heS7DBCUzQusDNkukkWPGibcg2bkgt6qakpYz8nHncGh3AzQIZ4GHX2n4N198km+/tEocXcqkCpiyh8ZIHE+hPwIvuLCB23yVmy9x/E+fuYv3HxgxLzDnFPFTJDRELTG2Dy7ZPU8kSEA60saybd9E6YjKtCBISNuDgVeBJ2rluxtneK4aE0aXUmDJvFBNoDbQFIK3AVdPWaxaDuYDBprxpa8d4v7HnsbMLVG3FvIhZrOlt7TMZG0dLDgn7DEbvHcx8nufvJV7rh5R1J5hpohRkBlOimpiF3d6ItKqqgVEO5ZXlaiGaBxeDB6ogadPNnz+oVf5wnePcNzP09ghsW0gs5hmSsSixZAsevLJSa5cEH7lpw7wqQ9ewf4euLqil4HGgEqGGtetVYZIJBARO7OXilVBIuAFrBBcSPwzGYIQFNYVjjTK46stT1YVr1loe33i2JFFyBxEA02mNFKRxymXC9ycl9w+6nG5EY6vwRe/8wqff/Qoz5+taew8mVugGVdI7ogugFNolEEI7JXTfOLGJT71gf3ccOk8/cx05wBBQKOSGzmHFBXfzWTRBlDaNiKuYCKGqcDJDeUv/uFF/vi7r3Oq7TGlxEcLIZEx1gZyqzRNS573KFeO8rs/915+/WMH2FNkDBQWs47eJJFEibgXrELW8QIpC9Gl/6MmgDVLroQq015LAxhyaoQXp/DY+oRnas9rOJqiRBFcEMop1AphkNhNP1ljyU+4ZWHI3XN9rrKW+QhFncziRmF4YqPlP3x7k8/97ROshwG+MWRLi0TxhHYKbhGCJQtnmJsc5dq5wIdu2Mtv3HsX+0YCTWCUWzICgj2HFpWgqslUpIXOa0Ylhtemnu8e2eAvv/YcD7+8xmvlfkIwED3iLMa4tP6Emrw+y1I8y51XLvE7P38j91w9ojSKSGJqm9aT5e6HKiYEtjPVaFrYtLsFu+WhtjCxcNxHHhlP+N7GJq9Kxllboq5HFg1SQ2GSW+kyCFXDyFfcMHDcNSy5oTAsGyXTCBJQ20CsCVrgTZ/TreE7Lwf+7d88wpMnI6c2Bew8Rno0zqEOTKywsSILE/J2nVvftcR/9oED3HvDHPt7BjaPw2AZJN8GOWrU5EmkvHGFZQ343/7yCe575GWO+wFjt8BEkyEvioxmMgaTQ93SzwNXD6f8q4/fyL3Xz7Gct9h2CnkPlZxpEzC5Q0yC2Havnf78OSBLsr0thpY0I6NALfDYmZqHVtc4VlpO5zmVyRHNKYNQ0GlgHNRaUU7GvNsVvH++xy19y54ImSedZxaINjKRdG/0NGKjoNESTMErLdz31Bp//JXnePGEoLKLiQ2EUmlaRaOFooexkbJdZff0Jf6X37yJX7l5P31ZhWxum64F3DbA6eQaYKWFx4+eZcUscooRaJ/cNaCeZryBM0IRN9m3nHHPdcv83i8c4Nq+YRQ90raEYojEFHaXzqAxaSJAEkfbqYHYAngbbcVQI6wLVMCawLFpy8PHAyeCsMqAihKJliIqNgolYCRQNy15PeV6M+WGxRE3DYfst7AQFAmKWkVNJBqIWCQOiFGI1mNihWiF08A+m/Nbty/ywRvex3/421f40gOHeLUSNuoBRTGiNjkaIAbHNGb4cpGTmzW+yNCmh5yXpnLbp7rttrkMNmPBWErIRmByfKygmTK0kWK6wi/ecRW/89H9XL+nz4IF40HFUeUjGgM9ARcjEmOKkEQSuJIlV1d2+L6zOS1CK8ImwgZwqPE8fnKF15rI0XKZxjh6bUHhoaihFUGzCKZB6k32GuW98yM+MRix5CyZJGattQGxEGb2UtNi5bziBNomI2YOI4rVgFGh30autIZ/fe9+fuHuS/j3X32Rr37vBKfHY4rBHiq1IBnWOTankWgzWmBqBvTPy1M538lOs5jSPSWWIRCLEVUzRUyNCljJkfYkd+zO+O0P38En7tzNoHNXSCY0edSqZAoWwaiBIDTW0RjYVKiCElVxJgUPA9OFrhppVNnEcKhpeXQz8vxmzYrMMS0cMbdkvpsOBqIDLwGJE5bClBtHjjvn5rg6c8yzU+S3LQGbJULNjPDJZPsT0sW5krIixoAV6AF37epx06+/l7+5dok/+daLfPnwKWxvmWBzfMzxxQIlwkJUrJFtG7g9kyVlMkgcgJF0gNodnMET1NBqZM7Ar338/Xz0PRmjGHEoIikvPTtYEyOZT8xca2GjEF6oAy+sVxxvG85UDR4oi4z9NmdflrN3LmdkHWdD4MW1DZ5emfKqz1lzfUIvJxpBEp9DNIBEMj9lPjTsHzhuWlji2syyW4QumXTeIvtDSEo5548f2D7jIVz6ST56y2WcajO+8sLjKWpuKsgGRLEprI4RxP7ADi9a1SlGIbb0C0eIYJwkXkMVM5sFxLQtGOoCXhbl/rWKp8YVrweYZhltmaXbXJVnVysu8WP21HPMDR0rGxOOrawTR7uY5CXBmSRdDkpshNKB+JaiXeXKgeXmXT2uG/S4BCh1W8v8Vgxn0tphUAprGbcNkg+3AtAIqOku5hsDWVHfUDhwRAaZxYRZhGg7bUj6KbVC3TMcip4vnTnL4y2czoY0WYFVwca0+KlAmB9wNkROVp44qTF5n3DJkKkmIseQcoW5eHIMvWng0ky5ec88Nw4yLjPKPA0uCkSDmjSL3goFrXql54RhkWFimky6w8ePdGTWBdJUFw2yFSU2Nb6pQfvpRFTTfdQl1AGmYjiq8A+bGzw6mXBmdAmt6dFrYFhD2aaD8TbxDo1YXGnBFFQKVQS1yR5mMVCGMYMwZaSGG3ctcOdizsEIIwVpamwXr4gF4yWFXcWPkZC7wBAFYkTU0lY1RpUiy5k2FZRFh9A2oXW+ubo4kLvbpMwsmZ1F5TNHNylCVFMOvcbw3HrNCyfGyGgRqyVaQdkB7IDGReosohhMFHxQNArOQAnYAK7xDNsNLjETDs7nXD+3wAHruBzImu7a2gJFaQErijOzG/fN17Y7l+RlZWZBPTF4yHs7IeJ87f/Wdy/qFyQxdNrJWo0hBWfpTWa5Aun4hMOTyGooidojC4YsJrJbLVQ2slnUbJQtmXf02qwTfgsmWnpRcHVgURuu7udcPxpwzShnNw19nWBrC5qn5X+m1JfucEzoNsedMpU3bUjyMjGqiGjCY5ZTgB/wKmbjx7jks8UOVAU1iWNY8ZHna2Wt6BONQzu3pnVJV+ZtyzQLtDakmawBqxEbk19t1TLnhKvn+9w2B+8ysACU3mNECXnWsflgOmuVmwRyK+nqF284G3dxQ2eIdtVXorMs0oXHjwzyDhFA4n7VJA4HIaKsqXLCWeosw1gIIRJFCLKtjyzanLLNiV1KSbq0QRTFG2FThSPrSj1WjuWRa+YMe7M+hUkHHDX5130SkSSdvx5I2uY3fyRTGKXzX7bOZZvcnkWub9y70K1kFNtpxB0zmWQJgwqqUMYMFwyEQEsg2OQzqxqyYCi9ULbJ522NgljUBFoxTJ1hw8K6JDLoydVNHlgP7On1ubKfc93IcsAm8yM0YHynnMjJ0tVmS578Zo1uX0rivfWcIrh0RyUm88K/e9GXPZUWJGbMdi6YiNnKas70v7lCGVISsxVFckMU7bQL6extBBeS5NuYdJAxWqIVGiM0FjYi9IyjNCPqGDkpGc+d2uTpEw13LPS4dTHnEpfRN4pRsCQJbKKgk0rTqZzDiyTAIkiqGFQMmkKNbe3beeDOlFqzrxuUIBkRu+VSeMm64M13+/tRvYutDKClVkdU6ThgQcWCSfOoBXIii9ZSmsB6DLS9nNoqIUKmQhYgC+meqopIk0WCVbIWTDDYaMm9okawUXFdRrlvLWsGpvMDXvAlr29OeWLa8p4y49alkiuy9NvoBDXQkpGRYdUi7RY6Sd7GLFHYABke1yVBOSe1tX1RUpprFjU6FE+JJ0kbIkJjyg7kliDuB1TMP6IBm4k8ZiMRF9vZOFg0wv62pWprmrmczaolyzPKNpkIF8FbaKzBqME2yf2TLgrMQsDVkryHzOJzWI2KaRMhr5lj3B/ypJ/yoq94cqPhruGAOzPLPh1hNhrKfrp/RRNPoJLWSm8g4jAIrpvBVrv7a3YSO8DdDq8N507y2ZvbRji9rxeMON/0VWLBKbct5KyeWOPlTaUcDJOp6EyEQCKLcqEIkAXACdEorqkZSWQYLPW4YdNENsuMKndkRYHWCYwpQp33mbgea82UM6+uslr2+cCoz1V5Tha1y2oHcBY10Ai0HWoOi1GL27pLu2G22O1tOLvZLedu/pHGmw5ypp5rFzKO+ZLj6+vkgx5jn1LnTadGrTIY54p6STgYRdqKhVhx3WjAbbtyNiYFr008LzVTjmxuUrmSICXG5dhZaOUFY/pMsoJvr044WU15396C92UmCWWMA4koIeUNd8xeu7V26YyU6FJgs1lpMJ1BntEAb3S86SALngXnuHn3HCfxPD3eQHNLNBnTbBZSR5wGgnH4Tvd2iZ9w61zJ3Us5SxGKUqj7GadDxrGq5Mlp4MX1Dc42hrycw6jDKrgW1Fgm8yO+Kw0vrk3YrBy3LpbMCQzU4EiaO9WAkiFqka0VbdsQJ78hAW26ypet7PgP8RwuZlw8C4d0djOZy7RIXMgCBXIarjAF9+5d5vKNyHdfX2Ut71M7RzTKoAnY2uONR6uKK2Pg7uV5bp/L2I2Sdyce1bBkhCv7OTf34dBcyXdOr/Ps5Cxr+QgtclorSb0v4F1Go/DXKyuckGXev+C4TGAhGEzwKRIUBcmYccdqLGhAmVU6zYLjN88HfNNnsonQF6WIkQUx7BkY3nPlEo+utZyJkappyZuWYQTTg6XlATf3Mq42Qq9VTKyS8baCwZLjyKMlV2EuE/ZdOs+z05aHzo45XI3ZLPo0zgEOFwUh4/W5BR7YGIPr84FhhjOWAQUGJRrFk4Ij0WRAMLZTeiT51oXc7B+HQn3zwyNNbqhrPM5k7HHCfA6XL2esAjU5JUnMZzUdwKJCNk0SA/Jt+xhIXQLECE4NxsO7nLCrl3Fpb4H7z6zxZL3Bac0hG2GNpWmEzV5JzAwPnxhj/Yg7FyzzxmLRLeWx4Mikk1cBrsvM5Uha/3ae0o8Z3Lz5IItJascC0KSwKRV2i7AwI5JINs5GxWnASne22PT9LUJY8F343mhLzzlsVObayI25ZXlxxBVVj4dOb3KsGjMtBgRrsQGsyVkX5XvryuttC01NDC1CYFDkLPRKLs8M1/Qdg+7XjIKoYavPUReMdIHkGx5vOsgqqbopOkg3pscRyFXIcSiWRiyNQG4CVgIVygTFkpNjU5bDJz5CDbQCheRE9SABUxiy6NkdDT/dzxkuL3H/iufZOlL1DIMmpatMWXDCK4fXKrJeibgSiS1uGulNPPt8QzUquPqSHntdF26EuHWRZ2tjUH6sRMAPBXm20KVpJ1uktHa5wJlbI+d+CVSQre3J7d9ODM381ERtiiaiwSGUXeeWLSbLbO/SktxeY9JNHTVgjNJTKNrI+0vD/LIjnN7guSqCG6Gm020YxQ57hE6GazSJVIJXXlJhdVzxfAx8cHefa50hE0FoiFaJ4hA1ZLPcokmKJwGiEXTmj6NEa8F0keM/RhDtuFO3/yexmOdEnfCDbo1KSsE7ne1oS8qy9blztpoMSNnq7PyLtWO/ptt3YrmEKA5PxNFiVBi2jutL4czeHuunN3gtBqJJTpi1nWI9bO9PgWCF9UGPddvj9GRMthFYWDTMmaRsC+IJXWQorSB5+l4WEy+iZtuHFtUEuiT93vmz/p3Tr+D/YwiptMB0tKaSqJhgBXUQNQkQR9Zh1CUf+CKGUcAHgrM8d3KFZ9caNgyoFNiO0xCYucpvePyTAHlGEcxoXOm8Wi8hrZWZ4EU4PVWmY7jY03KANi3eZazklu+dXedkgBaL0RyHJL+6yxO80fFPA+TZ6DgZGwOFtjgCiicapRE4telprb3oWWciZDgqI0xHQ45F5VgbUh+OLioUPGpCVzfyxsY/CZBVEoOm6f5GQsARcUQMEIywBmyIsCFslRj8o/sNkV5maATWEcZlyUmvSQo/00cT8DRduP3GxkWDrGgqQle9cDT9Fg5FaWgI0qQmUN5Dq0QPrRpqYAM4Y6EqUjrsYoYYoW0V64RoLWosjU/h9ZY7dV4NhQjb1bcXOd7mDocXOxSPT7o7l4FYohMqcUyAE8BzYzjR1DR5QdleIMtxgSEimMzS1pFBz5CNA6WYbd2EzJzKHy/k+ycCMlgiPhpELK0znBU4qXCsajl8eszLlXLWZaiVi+YlgypiwUWlbCGbTNi1sJBAkdjhanHYHfKdH338kwBZgBxHlIwGwwmBx4An1muOrY3xU8WWC+SFwfqLByOQ/P8coagqdhlhT5HvAFkRLKpJUBjeMNXZtWhM4UFyQrVLqUQMOrM/uq1l0K3/ajpKkY5eSaHGdppMz/nGbCtbW3eQirr1M+d8Q7Y2Omo1vDKNPLTR8EDd8EpmCP0R/cKRtUL0YDtyabZu7Gx7s3U0s0OwqRLXRk/Pe9416rOYC04jKWsJaJbwNrMjT0ydaEjrFILMui3+cJAbWikRycmjxxBoxYItabIcjYponTLNXhHJqCX1YCOOE5niSgx9KgxW8qRNRhODtpW4nA3TwT/TSEgnFO/y6mqoiESTLpYNkInwmnH8/es1T5/d5MzckJP9EdPkwqJGqC14hZABtkkMn3dk3mK7Ln8KKaROzCjBKmig3Jywzzpu291nHjA6gVinyqss3+r+1TZgpaLPOrntc2azRge7URmk6i2SUPICWrjtNHquHsFg1eIkbGUOJAaMG2A10k7XsbKUDgJQVxKkSCyFhi4Entmw1L5AthUsWwBvxerddFXTFZcZwWIJpNK2MwLfX6/41krkeIB2MMLbDONhZBWCoEGT70ykqDy7ykjVRCa+oZackOc0mpJQIh1nUnsUT0HD1c7ysT19bhBh2Ea0ikivRygcLUrQgMNgRQh5j4kUjMcN8wuLrLYtEiNFdKCSiC/OtcNOZadOIJV45eT0qbHB440FbfFVRa+0LA5LpPGgQnRzjEmNyQai5FpBhGAHnTERAl0DU873F2cqjLTARLFbrXUCsKHwzGbkwbNneKaZsjG/F5WMfhCkjpSqRJdqQAoTcZsb7Mv73Lirz80DOLIOj62s82JY44zN8f1eajkeddUAABEMSURBVO3XBsrG0/eRngoHRkM+vGS5WYTBOKYJkY+oJU1k8DjZJLYF6nqsaslksI+YDVldP4PkNUWo6Md5uqpvcs4dTrsOrem/6Z7KgFI8uaaqUVXF5ko1rnns0CvcdeVVLGdDopkdSJfWj4kSNxq3ekTMwIYkrzLdxmRrU1atFUGNIQBjVQ7VkYc2ap7a3OCMMeTzewjktE3agc1ACOQuktcTLgmBW5bnuH2+4IDAsIUrhnD5YJ6nqpqnJmNON6uECKVXlk3G7n7GZTbjvYuOvQL9WpEs+djBQdsRhyWC9TC1jufXIg8fXccHk+7CYojiumreJCG+kCfhlOQXmtmJdwuXMwKabCPR4ppNsvllPvu1Zzj0+lk+/XM3c+OBkiULfcBEAUqQmKrotVPqnu+46/ZC1xrBSyoqrxSeaeDxxvPtM2dYkQwzXEBczso0smA6rZuFQItrpwwnNdf3+nxw1wIHjGFeodfVAA0MHDSwJyt4/zCnirFTOQmlCP2u9KEfAho0heMutdvJulveNynjPZnO8+XDNX/04Pf55tOHMcs3EKOmqyF9KhOojQMsJS3nFiyDMyl/i+3ky1Gybl3tyhSigOvhLZysA3n/AH/9woSHj9zPr31gP/fedjk37e2nz0qeChFDhRiTKua7XsezWgrtZrRICmfXFF5rA8+PG57cqDnUNFSjRUJWEGJqoWyNJbaRTCPS1Ay15d2jnLuWhrw7d8xpl4gxkapQNLY4MfTVMVBJ7R3UbnswHauWGOcJmveS/61JIWpViQEaKzz62pg//9oJ/uqJl1lxQ6rBZWkC+SYVdrsUOQZAxSGx7moWd4DsOjfEoCCWoA6PUFjB+glFf0TdeILrgbM0KGJyTkrkT775Kl//h6f47V+8k1+5Zx8jkuiwCEI7maYq1NyC+ERw24xWUs12EDg2gWemyqPVhBfbhqktML15spRHZRrSejnXA/EtZb3JwXLATy33uD4XLpkKRdV5oEVkE8+UgDWRAk39J9R20qFtQlu6VxRFJU/tFYg4LE0d0Vx4rYZ/+6Xv8+ePvsxRnSOUy1hTpjUqtEkyEBsyGWPXX8E0l6eujlIk9m7HzSuqjW6H5kKLY13gb55d49//3Us8e3LKiQn4bIkkrU5C6+A9JgYGtqHcfJ3bLu/xO7/4Xu44uJflgSGTRGZnJqC0REmS2EYKVqNydL3i/o0Jh9USvAVX0mQZVUxSrmFQcmIqPaNmX6ncOCq5aZhxZYA531GfBtRF1AS8pJZjs1zCrD3TtmqwWxskLa42OlwEjUq0Sk3ktUnk755f4d997RCPnGqoe4ugNtW61BafDcAFinaFod9kTiL3XLXAv/7ENdy4b44NhaGc6110IMfOQ7cELJvAROD4JPKVR0/xZ195hMPVAtHmqEZqL/i8T4w5Iko/a+lPTrDHbXDHwT18+t7bec/lGblCblLVf4MwBQ4H5dFXzvLqNPJav+RsmdGLOXlrcDHNYOvAxRazscIlErn50mWuG1qWrWGRpBo1mmZiMIpKJEORMDNvMRX+sP2K5/g2qX9sFgQ7hdBT1g3cf2zC79/3IA+8NGXd7UXdqGs9CVnTIq2hKedw0+MsxdNcu2D59M/fzSduHHJZIWQmMpaM8nyQo7aptloBHDEm537qQbPkP3//pPLHf/8CX3v4MJtujhVfMtUcLYYpOT3dQCTQc+A3T3NwaPj4T1/Pz925i/27MqLCqcbzzMo6399oOeVGSS9BRLJO7eAhi9A3SlZPGPlNbl7sc/uuEQc0MlQlE+m6ryfplVfFiMWopDxGNHRpw84t7HTTXSTbxX9bi7wCE4UnT9X86XeO8sWHX+J4M6SVRawWWN+gpeB1StEGYjC43HB17yQfu2GZT/3sbVy6ALtUyaopNo+0kuFMxs5yCgkaUpcATVd41vZJQp2EgG1A8yGnKuHps1P+9//0Mt98aYV1ShpJrowJoNkIdSNMPWHgz1CwwiXzUz79S3eye/eA186ssFmOWCnmOZk5Npyw4GHYwNSBLxQJFb3JBjePRnx4lHNFZuir0hPo+wZjDcEoVScdLDrhoEQHkrIjQZILumUTO1MoO5vRdJtPROWzDzzLH37taV7hMibtAiLzuGAp63UyWxMLmEjLgACbZ/nQHe/hf753mevmewycoY0wEMX5GgnraO4QM2Jn1lKiqm71OJ4Vop2nJCcaqFKp7cuqfOGJY3zuoUM8d3rKWIeoH6AyB6GPCR6TTShGG1x6Tcl1N+5h2MvIpUftcyqbM+nB2EHpoWwgi56hX+XdWeR9833uHA4ZqRIFxiJUwCKQaVoJtzLms5WsoyO31rbYEKIBawlBcWIwKThk08OKRr79/Cr/9zcOcf+xTTZkRCyWgAJUsb4ij2Oc1kT19Pp93re4wW/e/S4+cOsB5m2q0nIK1nS9OUzDFt8hJTsNxsU139NIU1dkWY8xSmMNRzZavvLYKn/2d49wZD2wbgfQmwMm7LnpMm66aT+Lo3SSraYUOl39tcQGiZ6SQFFP2RuF2y9Z5OahZckaSk3euiWVjiWZ8Uwb3YU2Ox+01elaU4SZ2pblAnGyiXV0HETJunN89xX47Jce4f6njnLWLTLOd6FBU5uXMMv7Z0izznI+5XK3yb/84PX86vt2c1nPUdhk7ItZ+p9UlZuyvLPn+sx6ff4IIAcCY63wwTNnRmidRNGtgyeO1/zRN57lW68cp15a5F0/dT29fUNkKpgKUPAFtKXitaGMkSWfMapgl1nj6nnDzQuL7DZQxE4uYFLZgFMl1whBUZfhZXveJnnAecSTpAcdTYJSADk1VBWVG3BoI/K5+0/w5w8c4nRrkbxkKjmN6aHR40QJMWKNoTCRS3ueu68s+d2fu4obFgsyY3AdsDNJg289eebY6hq9xc+cG4xcFMgezzpjCgy9kGNqm2xHDe0cvFDB85N1XgyWIxp4NUaEEWJs4gAyCHlLppF+a8lOWsaHK+7YG/nE7QMWgcLDQpYehWFM2NIzEA2oIWTSFRnPmpJEtsxcOhW2RDgxIsYybpXKCX/x4Aqf/epTPLcmtOUyUSzNdIwtcrz36UEwsUXqDXZnNXccGPLbH303dxxcYKCRngFn092SqlNTob/ZafhlRrWZ87zkiwRZ8TShIgZP6XoQDBItRCHYJOreFGECfH+j5Ymx5+jUs5IXrBohWCEXyKaGtVcqjj55htcPr2MnL/OxW3bzX3303dy2d8gCkdzVYJvul3MIvcRbZWzVW1ud0ac7mT3bgax437JGxgNHxvz+V47ywItnmdp5NOvTVjWS9zC9IWGyhmFKpg0jM+WmS3t84qZl/vN7DrCIT4u/LWnFEbwnQ7E2tfmZNYO152XHZwmrHxlkVNEQkB0ij7BD36+kq6qaaqtf9cqT0ymPra5zKptnIiUrxwOPfesoq6en1HVi+zJbkG2uc6kb83PvXeA3PnIdt15RUkhLRovEFKhYk6MWQgy4WZlS6CqYTMqYBEncRg08caLhc197jq8+dYbX/IDK9NEA1tlUO2hKsAPEjynqV7ly2PLrH3o3v3TLAlfOZYwcmC1TZIgiO3KG3YyWGRbnQvpjgLxN/aqBWYEWKDYVW6VbO4AaQy2WM6K8GiNPnKn50799lm89dhbNLqehSEw8E+y0QLSPLSfo9GWuWoZfvvNqPnXbFVy/6JAmhX81noHNkdhxejGgxhLUEIyhFmGqcHKt5WuPn+T//MYRXjg1xecDKOcIWJxz6UEvThAfsNGz3FfuuXrEb3zkWm67FOZRstBgXCqlS3bfd9y5AzNrdLOdI4HtyZYAPeevFw+ykpSNsy/PrtRslRfpIkaNRHXdg7CUIMrpAN88vMaf3H+EbzyzwtgsgCmIbUtf5mijo8lamDNARe/kK/zUZUv81l37+eiduxmUHrXCACWPMxViss/jSIpOjfDQs5t89s/+lqPrhlfzA5D1CG1N1PSII1wJvmIhaxltvsz798/xu/feyi1XjBiUsiWJjAFK2zUSUZ8W1xgAC2Zb16c7wN1OkXXz+I2C7Nm+ZlvVl1tjVl+hBFLU5aJCU6OlZSyWQxV8+cmTfP4bz/PaKUvUOU6j+H6JhgxtAJchscaEVRb0DB+6Zhe/+4lreO/yiEUr9B20Mb3UwmqAF05v8tn7DvOl7zyHW7qCde/wpti2mb0SLwYjQt6c5bpBze/dc4BP3bmPS2wDNETbZ6KWWoRCoKea+m4SUTKiyTrtctcQ6xx7oFtly7Oo8lyN9cWCPPMHZzBLTFxA982doAcinkgmLlX/R8W3kVphnDteWKn5jw+8xt88+BLHXJ+NYLHaI6NHqJVs2KPxYzSsMtQJy6blX3zgBn7vnsvYM1CMFbyBl04G7nvoWe779oscnfQY9y+laguiLcCn1uwmz8BXOJ2wqKv8+oev41fvvJyrFwt2WVIvURSDIcSuSqptcEWP5CBKx6ylAlEzazvRnWxqJjF7+hpb0SX2Dbhw6T6KW9N4ux+tbBXzmi5IVAlE41HNCMEkt3z24wLTDNaABw97/uCrj/P06zUbk0CIJd702WgjlD2cE2hqSiJmfJrreqf4rV/7IDdeu4dHD23w/3z5QV54fZ26WGTTzlPni+BGIILxa1hfkVEzjGt88NpF/uuP38Atl5YsynZjp7aDotCI+AnQJpMgBdHks4eLYkjR3Wxu6jkx+uz5gTuwMjNBzI8C8uzLsEW8nz+2zYduSQrO3Z7GrDQgAK9PI9949iyf/8azPHF8g9NmjnUzAk2VHM4amGxSWkGpsZljcdcu1lbXWd/YpBgmrpsQcXmefjsETKzZXUauXoh85iNX8uGrl7l8YCjEp1teMqJsPxTU7FzZt4D8QQXbhcvMLojGed97Gx8VN9XUxuz1Cr744Gv85QPf5+imYepGBC0IAbIsJ1QVBVMaX6OuAFcQZj3SFEyeoSHVhQzyyHXzDe+/Zhf/5Sffzb4C+l4ZmlRakRr/zUC+UOetN3+8rSBHVeoobIQUFT51ouIL95/iW08d5eXVmpjPM1aLiMWFKdY66miQrCTa9EwSS4tpKlyYcNmuEbdeucx/8+FFbrh0QN+ATmv6VslcR3R2IM/UQD/RIIMS2klqPELJeiVQpE63979Q89n7HuHp1zZZ0YLW9Qgxw2Ql7Swx7Aw2VGT1Krvzlhv2zfGLH3g3v3DLPPskYkPAiOIMbC3aXYlFFLuz3vQnG2SoCG3V5SlyghZEa5gYeLVWvvHcWf70757jhdObrLCb2heQZRhNz9yb002uWTJ86oMH+eh793DlnJL7GsFj7fYDmUG6QGI2k7cXmLe2kU73K2+fuZgtf22K5KJ2AU1qYD22wjqwKvBHXz7CF75zgtMTwTc1TgJ7RwUfvPFSPvPRd3HdHMz7lowN8JOu62uW+nGQHjy+vWbFrl8/aYu89QbjbbXJM8me04jElq1myepQlzERQyWwFuDZky3f+s5LvHj4Za64fDd337qfGw4usGBS4rIfGoxOQQPq5lJn8h2PptgOpGYgz0zIOXmUt2S8zSBvd3HbehBtlwpL3QozPIaJF6xLRGIdUrGMFbaaj2YkQYrpKgGCObd1sNn6c+bTzjI//wxm8syHT251N7c7AJJc1aJd+0Il9aVLGZps9jQPjEvuWNTtylGRncCSeGftMiqylVsB+Mm2yVshaBdSdc+GJaoSYiA3qRGv8YAIdYy4TDAiNJur5AYkT75yyrBnSJZ36qRZVnrn/QIJ9tTgZPZgxp9sF24GMHR8wFYSp3tfIUQym+RV0ZCSonbW7XYHeLNbXgzeR6yzO/KA52dPZo9/27bTP7kg/zMa/y8BpxVjnUuOmgAAAABJRU5ErkJggg==;" vertex="1" parent="1">
          <mxGeometry x="780" y="251" width="44.94" height="51" as="geometry" />
        </mxCell>
        <mxCell id="Hx63oCPssNy2-sGb_Ebc-21" value="" style="edgeStyle=orthogonalEdgeStyle;rounded=0;orthogonalLoop=1;jettySize=auto;html=1;" edge="1" parent="1" source="Hx63oCPssNy2-sGb_Ebc-22" target="Hx63oCPssNy2-sGb_Ebc-15">
          <mxGeometry relative="1" as="geometry" />
        </mxCell>
        <mxCell id="Hx63oCPssNy2-sGb_Ebc-22" value="" style="verticalLabelPosition=bottom;html=1;verticalAlign=top;align=center;strokeColor=none;fillColor=#00BEF2;shape=mxgraph.azure.user;" vertex="1" parent="1">
          <mxGeometry x="608.13" y="440" width="33.75" height="40" as="geometry" />
        </mxCell>
        <mxCell id="Hx63oCPssNy2-sGb_Ebc-23" value="" style="edgeStyle=orthogonalEdgeStyle;rounded=0;orthogonalLoop=1;jettySize=auto;html=1;" edge="1" parent="1" source="Hx63oCPssNy2-sGb_Ebc-24" target="Hx63oCPssNy2-sGb_Ebc-26">
          <mxGeometry relative="1" as="geometry" />
        </mxCell>
        <mxCell id="Hx63oCPssNy2-sGb_Ebc-24" value="" style="verticalLabelPosition=bottom;html=1;verticalAlign=top;align=center;strokeColor=none;fillColor=#00BEF2;shape=mxgraph.azure.user;" vertex="1" parent="1">
          <mxGeometry x="950" y="256.4" width="40" height="40" as="geometry" />
        </mxCell>
        <mxCell id="Hx63oCPssNy2-sGb_Ebc-25" value="" style="sketch=0;aspect=fixed;html=1;points=[];align=center;image;fontSize=12;image=img/lib/mscae/Machine_Learning_Service_Workspaces.svg;" vertex="1" parent="1">
          <mxGeometry x="785" y="340.87" width="36" height="39.13" as="geometry" />
        </mxCell>
        <mxCell id="Hx63oCPssNy2-sGb_Ebc-26" value="" style="sketch=0;aspect=fixed;html=1;points=[];align=center;image;fontSize=12;image=img/lib/mscae/Chart.svg;" vertex="1" parent="1">
          <mxGeometry x="866" y="257" width="40" height="38.4" as="geometry" />
        </mxCell>
        <mxCell id="Hx63oCPssNy2-sGb_Ebc-27" value="" style="edgeStyle=orthogonalEdgeStyle;rounded=0;orthogonalLoop=1;jettySize=auto;html=1;" edge="1" parent="1" source="Hx63oCPssNy2-sGb_Ebc-28" target="Hx63oCPssNy2-sGb_Ebc-3">
          <mxGeometry relative="1" as="geometry" />
        </mxCell>
        <mxCell id="Hx63oCPssNy2-sGb_Ebc-28" value="" style="shape=image;html=1;verticalAlign=top;verticalLabelPosition=bottom;labelBackgroundColor=#ffffff;imageAspect=0;aspect=fixed;image=https://cdn2.iconfinder.com/data/icons/competitive-strategy-and-corporate-training/512/705_Automation_factory_hand_mechanism_package-128.png" vertex="1" parent="1">
          <mxGeometry x="70" y="249.5" width="50" height="50" as="geometry" />
        </mxCell>
        <mxCell id="Hx63oCPssNy2-sGb_Ebc-29" value="" style="image;html=1;image=img/lib/clip_art/computers/Server_Rack_128x128.png" vertex="1" parent="1">
          <mxGeometry x="156.95" y="350" width="50" height="40" as="geometry" />
        </mxCell>
        <mxCell id="Hx63oCPssNy2-sGb_Ebc-30" value="Factory Line" style="text;html=1;strokeColor=none;fillColor=none;align=center;verticalAlign=middle;whiteSpace=wrap;rounded=0;" vertex="1" parent="1">
          <mxGeometry x="65" y="200" width="60" height="30" as="geometry" />
        </mxCell>
        <mxCell id="Hx63oCPssNy2-sGb_Ebc-31" value="5580 AllenBradly" style="text;html=1;strokeColor=none;fillColor=none;align=center;verticalAlign=middle;whiteSpace=wrap;rounded=0;" vertex="1" parent="1">
          <mxGeometry x="146.95" y="200" width="60" height="30" as="geometry" />
        </mxCell>
        <mxCell id="Hx63oCPssNy2-sGb_Ebc-32" value="MES/IDC" style="text;html=1;strokeColor=none;fillColor=none;align=center;verticalAlign=middle;whiteSpace=wrap;rounded=0;" vertex="1" parent="1">
          <mxGeometry x="151.95" y="395" width="60" height="30" as="geometry" />
        </mxCell>
        <mxCell id="Hx63oCPssNy2-sGb_Ebc-33" value="FactoryTalk Edge" style="text;html=1;strokeColor=none;fillColor=none;align=center;verticalAlign=middle;whiteSpace=wrap;rounded=0;" vertex="1" parent="1">
          <mxGeometry x="254.32" y="296.4" width="60" height="33.6" as="geometry" />
        </mxCell>
        <mxCell id="Hx63oCPssNy2-sGb_Ebc-34" value="OT Firewall" style="text;html=1;strokeColor=none;fillColor=none;align=center;verticalAlign=middle;whiteSpace=wrap;rounded=0;" vertex="1" parent="1">
          <mxGeometry x="325" y="214" width="65" height="30" as="geometry" />
        </mxCell>
        <mxCell id="Hx63oCPssNy2-sGb_Ebc-35" value="IT Firewall" style="text;html=1;strokeColor=none;fillColor=none;align=center;verticalAlign=middle;whiteSpace=wrap;rounded=0;" vertex="1" parent="1">
          <mxGeometry x="422.75" y="300" width="65" height="30" as="geometry" />
        </mxCell>
        <mxCell id="Hx63oCPssNy2-sGb_Ebc-36" value="IoT Hub" style="text;html=1;strokeColor=none;fillColor=none;align=center;verticalAlign=middle;whiteSpace=wrap;rounded=0;" vertex="1" parent="1">
          <mxGeometry x="510" y="223" width="65" height="30" as="geometry" />
        </mxCell>
        <mxCell id="Hx63oCPssNy2-sGb_Ebc-37" value="Stream Analytics" style="text;html=1;strokeColor=none;fillColor=none;align=center;verticalAlign=middle;whiteSpace=wrap;rounded=0;" vertex="1" parent="1">
          <mxGeometry x="592.51" y="220" width="65" height="37" as="geometry" />
        </mxCell>
        <mxCell id="Hx63oCPssNy2-sGb_Ebc-38" value="Historian/&lt;br&gt;ADX" style="text;html=1;strokeColor=none;fillColor=none;align=center;verticalAlign=middle;whiteSpace=wrap;rounded=0;" vertex="1" parent="1">
          <mxGeometry x="535" y="345" width="65" height="30" as="geometry" />
        </mxCell>
        <mxCell id="Hx63oCPssNy2-sGb_Ebc-39" value="RCA/Trends" style="text;html=1;strokeColor=none;fillColor=none;align=center;verticalAlign=middle;whiteSpace=wrap;rounded=0;" vertex="1" parent="1">
          <mxGeometry x="592.51" y="480" width="65" height="30" as="geometry" />
        </mxCell>
        <mxCell id="Hx63oCPssNy2-sGb_Ebc-40" value="Storage" style="text;html=1;strokeColor=none;fillColor=none;align=center;verticalAlign=middle;whiteSpace=wrap;rounded=0;" vertex="1" parent="1">
          <mxGeometry x="687.27" y="293" width="65" height="30" as="geometry" />
        </mxCell>
        <mxCell id="Hx63oCPssNy2-sGb_Ebc-41" value="Big Data/Synapse" style="text;html=1;strokeColor=none;fillColor=none;align=center;verticalAlign=middle;whiteSpace=wrap;rounded=0;" vertex="1" parent="1">
          <mxGeometry x="769.97" y="220" width="65" height="36" as="geometry" />
        </mxCell>
        <mxCell id="Hx63oCPssNy2-sGb_Ebc-42" value="Machine Learning" style="text;html=1;strokeColor=none;fillColor=none;align=center;verticalAlign=middle;whiteSpace=wrap;rounded=0;" vertex="1" parent="1">
          <mxGeometry x="770.5" y="380" width="65" height="30" as="geometry" />
        </mxCell>
        <mxCell id="Hx63oCPssNy2-sGb_Ebc-43" value="Power BI" style="text;html=1;strokeColor=none;fillColor=none;align=center;verticalAlign=middle;whiteSpace=wrap;rounded=0;" vertex="1" parent="1">
          <mxGeometry x="853.5" y="293" width="65" height="30" as="geometry" />
        </mxCell>
        <mxCell id="Hx63oCPssNy2-sGb_Ebc-44" value="User" style="text;html=1;strokeColor=none;fillColor=none;align=center;verticalAlign=middle;whiteSpace=wrap;rounded=0;" vertex="1" parent="1">
          <mxGeometry x="937.5" y="293" width="65" height="30" as="geometry" />
        </mxCell>
        <mxCell id="Hx63oCPssNy2-sGb_Ebc-45" value="" style="edgeStyle=orthogonalEdgeStyle;rounded=0;orthogonalLoop=1;jettySize=auto;html=1;" edge="1" parent="1" source="Hx63oCPssNy2-sGb_Ebc-46" target="Hx63oCPssNy2-sGb_Ebc-41">
          <mxGeometry relative="1" as="geometry" />
        </mxCell>
        <mxCell id="Hx63oCPssNy2-sGb_Ebc-46" value="" style="sketch=0;aspect=fixed;html=1;points=[];align=center;image;fontSize=12;image=img/lib/mscae/App_Services.svg;" vertex="1" parent="1">
          <mxGeometry x="782" y="130" width="40" height="40" as="geometry" />
        </mxCell>
        <mxCell id="Hx63oCPssNy2-sGb_Ebc-47" value="" style="edgeStyle=orthogonalEdgeStyle;rounded=0;orthogonalLoop=1;jettySize=auto;html=1;entryX=1.04;entryY=0.465;entryDx=0;entryDy=0;entryPerimeter=0;" edge="1" parent="1" source="Hx63oCPssNy2-sGb_Ebc-48" target="Hx63oCPssNy2-sGb_Ebc-46">
          <mxGeometry relative="1" as="geometry">
            <mxPoint x="890" y="150" as="targetPoint" />
          </mxGeometry>
        </mxCell>
        <mxCell id="Hx63oCPssNy2-sGb_Ebc-48" value="" style="verticalLabelPosition=bottom;html=1;verticalAlign=top;align=center;strokeColor=none;fillColor=#00BEF2;shape=mxgraph.azure.user;" vertex="1" parent="1">
          <mxGeometry x="950" y="128.99999999999997" width="40" height="40" as="geometry" />
        </mxCell>
        <mxCell id="Hx63oCPssNy2-sGb_Ebc-49" value="User" style="text;html=1;strokeColor=none;fillColor=none;align=center;verticalAlign=middle;whiteSpace=wrap;rounded=0;" vertex="1" parent="1">
          <mxGeometry x="937.5" y="169" width="65" height="30" as="geometry" />
        </mxCell>
        <mxCell id="Hx63oCPssNy2-sGb_Ebc-50" value="IoT Dashboard" style="text;html=1;strokeColor=none;fillColor=none;align=center;verticalAlign=middle;whiteSpace=wrap;rounded=0;" vertex="1" parent="1">
          <mxGeometry x="756.5" y="99" width="89.5" height="30" as="geometry" />
        </mxCell>
        <mxCell id="Hx63oCPssNy2-sGb_Ebc-51" value="&lt;font style=&quot;font-size: 18px&quot;&gt;Smart Factory Reference Architecture&lt;/font&gt;" style="text;html=1;strokeColor=none;fillColor=none;align=center;verticalAlign=middle;whiteSpace=wrap;rounded=0;" vertex="1" parent="1">
          <mxGeometry x="314.32" y="50" width="420" height="30" as="geometry" />
        </mxCell>
      </root>
    </mxGraphModel>
  </diagram>
  <diagram id="AE5EWpotIst67q-H9iaz" name="SmartFoundry">
    <mxGraphModel dx="1038" dy="579" grid="1" gridSize="10" guides="1" tooltips="1" connect="1" arrows="1" fold="1" page="1" pageScale="1" pageWidth="1100" pageHeight="850" math="0" shadow="0">
      <root>
        <mxCell id="QVFtLVlcKrwCf3kHJC9H-0" />
        <mxCell id="QVFtLVlcKrwCf3kHJC9H-1" parent="QVFtLVlcKrwCf3kHJC9H-0" />
        <mxCell id="QVFtLVlcKrwCf3kHJC9H-2" value="" style="edgeStyle=orthogonalEdgeStyle;rounded=0;orthogonalLoop=1;jettySize=auto;html=1;" edge="1" parent="QVFtLVlcKrwCf3kHJC9H-1" source="QVFtLVlcKrwCf3kHJC9H-4" target="QVFtLVlcKrwCf3kHJC9H-6">
          <mxGeometry relative="1" as="geometry" />
        </mxCell>
        <mxCell id="QVFtLVlcKrwCf3kHJC9H-3" value="" style="edgeStyle=orthogonalEdgeStyle;rounded=0;orthogonalLoop=1;jettySize=auto;html=1;" edge="1" parent="QVFtLVlcKrwCf3kHJC9H-1" source="QVFtLVlcKrwCf3kHJC9H-4" target="QVFtLVlcKrwCf3kHJC9H-30">
          <mxGeometry relative="1" as="geometry" />
        </mxCell>
        <mxCell id="QVFtLVlcKrwCf3kHJC9H-4" value="" style="shape=image;verticalLabelPosition=bottom;labelBackgroundColor=default;verticalAlign=top;aspect=fixed;imageAspect=0;image=data:image/png,iVBORw0KGgoAAAANSUhEUgAAAFoAAAB7CAYAAAD0WJeRAAAgAElEQVR4nO2d+5Mc13XfP/fe7p73zD6xiwd38ST4AgmKpkSRdvSgxZIjuSSWnfzi2K5USc4v8StxHPoPcFViSymVI6dKsUuWpWIs0XZZlGiJki1RkRVRsUSRIkSKNEm8CIAAdhezs7Mz089788Pt2zv7ALEQFiAD61Q1d7c5mO4+ffrcc77ne04LY4zhJ3LVRb7RJ/DPRX6i6GskP1H0NZKfKPoayU8UfY3kJ4q+RuJd6Re46FAIseHfaz69wW8roo2x/84YBCkIsN8iMEbm3ysx+V73JWLtl4nVvxf/e4NzM+6YV1muWNFgTzaOYwCCILjEya9XcWo0EoHGIJAsLl0gijqMtRqUS1WMEdiHT6K1QGv7t5IKTK5XwzoFrz2q2/VGpA5bomgA3/cRQhDHMUoppHx9ryRYrXLjNqP59ne+w5EXn2bX7p0cPnQHMztmKQcBRktKsoTyBGiDyVLQgO9trGSxZpcQ9riv+9RdHRFXmhkaY9BaY4xBKYUQAq31RRTt1LnyF0CmNRkaKSSnTp/ikb/6S053z5F6GSUvYNf2Hdx56+3sndnD+MgYFVVCInJLFlh7WaM0sfJj2HVsdLmXMoqtkC1zHcvLy2RZxshICyEkG3vh1fucEqQQYCQgePHFF3np5ZeIqqCqAXGmefZHz/Pcc88zOT7B3XfcyS0HD7Jregclz8cgUVIAqvjO4Y2hnwhrxcO6FoXf2Ui2zuKvWNFCgNYpn/zkn/LEE0/wnve8h3e9610cOnRoc/8e6PaWWVhYIIxCfvSjH9FZ7NC9ENKcHKVer9Ff6tPv95ibO8/LR19ibHSE3XtmufPwndx68Da2NXYgc2U5b75ORbkutdHEcUyapnieRxAEF7HorXUrW+I6jMn42Mc+xic/+UmklPi+z4MPPsjP/dzPcfPNN9PtdllYWGB+bo6F83O89tprvHrmNKdOnaK7vMz8/DztziKLi4tWAYFPKjKmpqep1mvgS5SSGM/QHG+RmAwkBOUSu3bcwM+/4/0cuuk2to1MoqRAClBGIJwvNpCEEaoUgICFhQU++9nPMjIywt13382+ffvwPA8pZX49bukUGGOK/VprPO/Hs80tUTRkfPS/fZRPfepTeMqecJqmNJtNDh48SBAEHDt+jMWFNtEgxBhDpVZFa0OSJujcv/uBj9aGXr+HyDRCCDI0quxTblTJPEOmDFoJjCdojY+gY802f5Sdk9vZt3cvdx4+zO23HqJVqyOALE45fvQozzz9NDOzs+zcPcOZ06f5+699jSiMqNaqjI+PMzszw+7de9ixcweNeh1jJP3+gFqtxvLyMvV6nSRJ8H3/jVG0XfY1f/CHf8BnPvMZfN9Ha02/36derxNFEVprbrvtNnZN72Tu/Bxnz56l2+3SDwdobahUK0gpybRGKUVrZISw06W/3CNKE+5/73s4cPONHHnxec6351mOB8y351lot5nZNYOMNA2/QrPZZNvkNibGxxlttsiihDgMMdq6i21TUzz+93/HtqltzMzMFIYihMDzPEqlEjt37uTw4cNMT++gXmuSZVlhOFJKlFJvlKIzwPCHH/lDPv3pTxcnIoQgyzKUUqRpah9BLchie8JCSYIgoNlssnvfXnr9PgsLCywtLWGMIUs1SRzjBz6jY6OMjo4yMjrC+OQEfinAYAijkMAPqFWrlIIAKSTL3S79Xg9hoNVsotOMwPdtyKkUnV6XTGuOHj1Ks9kkDEPCMGRxcZHl5WWUUiilGBkZ439+4k9ptVpIKQtr/nFDwivPDPP/ep7CGE2WWTegtUbrDN/3UEoSxzFZakjjxPq5TNDr9VhaWuLoieNMTU1x+M47qdVqfPd73+W183OUSmViY0BIlPA4dexVfvTMc0xNTHLjvn3s2raNzGiMEfSXlpBKoYBapcLpV19l4fx5wsGAXq/HwsICgyhisbuEkII0TRkMBnieR5IkVKvVIvFqNBq88vJR/vIv/5IPf/jDRFFEqVRadcUrsjnFb0F4ZxcMTwUYDcpXGCOQUqF1njEagRQeWmbgSTKjAYHyrT8v+x6dToevf+1r1Op1duzYwS233kZ7cZFXXn6Zc2fPkiUJvvKYmztPHIW0LywghGR8Ypxz7XNESUKn0yFN0yJtz9IMrTXlICDVGgOkOsPzPdJUU6s2ACgFlTzOM0xPT1CpVPGUottd5OTJ48Rxwg037KJUChBCkWUaISDTKUr6CCEvaelXHt7lOIRVLCjpk2UZWaoRqKFVHDJtioVPa+1SQRuSSXuyy90ux48d4+grrzAzM8Pdb3kLU1NTlMtljh8/zivHXqGXhMx1LhAEAaKq6A36zM3N02g0KJfLnD17nlKphBACqQKi1CClotFokGRpsY64xMrzPBoNq/SRkRGmp6e59dZbuOXWgxw99jIA7cV5RkdHObD/AEkaUS6VSTONlJvzvFuWgl+JGGOKRcfdBKUUR48epdPp0Gq18H0fKSWDwYDR0VF27drFPffcw969e/jCFx5ldnaWOLYu4Lbbbqff79NuL2K0hQeyzFp3pValVqsBkCSJfaLKZUZGRjDGEAQBExMTlEpl5s4vMD4+wcTEBGE44NzZec6fm2dychsTExO0Wk3S1CClQcqrbNFbIS5tF0KglCJJEpaXlxFCEIYhlUqleDR1HkGcO3eOMAzZvn2a7du302g06Ha77Nu3j8OH38LMzAzdpS7f+ta3eeGFF6hUKgDcMDvD6OgorVaLer1Os9kkCIIibHPnEEVRjt0kxHHCxMRUnpxBp9Ph6ad/wGDQ533vez/btk1e8hrfFIp2IZZLCoQQ1Go1hBAMBgOiKKJcLqOUYmZmhkqlQhzHfPvb3+bMmVNIKbn99kNMT2/n5MmTPPHEE5RKJWZnZzl06BD33nsv5XLZurH8pmqtyfKfy70+/X6fcDAgimMG/T6DQUSn06HXGzAIB5w4cZzTp09bf4yg0ajTbre54Ybd3P+z77rkkvimUPTwQuIU7X6vVqskSUKv1yuyNxcZTE5OMj4+TrvdJggCoihiz549HDhwkGPHjvG1r30NowU333wzrVaLcrXK/MIFFhcXabfbLCwsMDc3R6/XK26oc2G1Wp3R0XGCIKDRaDAzM8PBgzdTqVTYsWMHnudx9uxZprfvtDj31V4MjbEWWa1WEUKQJMlFV2AhRJHODhcKNvq82+9w7uGMLE1Tm7a325w4cYwbb7wRrQ2e5xGGIVqHLC8vc+uttzJ3foHjx49z9OhRytUqnh+glKJerzMxMcHevXtRSjE6OlrcVBv/+/T7A5RSzM/P4/s+xhgajQYvvPACjUaDXbt2XUq/hbwpLPpyRUpZ+OowHOR4xIrrSRK78IVhRKPRYDAYMDc3x+8+9BDL/RAjBDM33ECn06G9uEin0+H4q6+SJClaa1rNJv3+gHPnzlOtVgvQaffu3ezZt4+p7dup1Wq02226y71NnfOWKFoIsW67GlWMYezbLVpCGLTOcPG8+1wYhnieTxKnxT6AF158kWqtxpNPPsnCwoL1zWHIoUOH+OEPf8h73/te+v0+45UqY2NjNJpNlJTUajWiOGa5Z7PHOI64cGGBW2+7+ZJuA7YIJl2r06ulaBdrZ1lWHMeGhB6+v3Ip7vhJkuB59pH3PI9yucLMzAwvvfwyu3bt4r777uOZZ57hxhtvZP/+/Xzwgx9ECMHi4iL9fp/FxUXm5uaYm5tjaWmJOI7pdDoFiuf7Pj/zL356XRVtI7kqFn21ZDj5ccdJ04xarVYkKO5znufZtB9JGFrE8MiRI1SbI0xPb2epu8T3nvo+YRjy5He+wxcf+1v6/T7G6Nz9xMRxCAhKpRJRFKGUvame59FqtUAYPH9zINOW+WhnbcNRw9USd0NdYiOlZGpqmh/84AdMT0+TJMmqJ8rzPIwxPPro35Aa0GmG5/sIZUM1AWQ6Q3kewthox1MS6XtobSBL8ISxBQWdEocxqtXApDHNWm1TaMeWFMuuZZHzYsdbWlpicXFxVUw+7L2MMegsw1cCP5AoaVBCI8nApEg0QqcI7JZlCVmS5rV3YWuUxmAyjS8VjVodtCGJovW+cwP5/zLqWCtBEBTlKVfhASyOMhSTe56HzmJAkpkUKd0TKJFSkGUppaCEr3wGYUSWWSxkuNR17733MjMzw6lTp8iybNOFgOtC0UopgsCnVCqRpkNRhqCozBtj8ANJpdwAbZBKUiqXCAchjUYDpSS9wYByqYQwcHZunn6O/rnYH+DcuXMMBoOiGL3Zp/m6ULSt4634bSnVUESiimJEKSgxOT5GEkcWsWs2aV+4QLVaRnkeaRxR8pRlTOW4s9aaLMsKl/TKK6+gtWZ2drY4xmaUvWV0A6VUUcgc3r82zLuSsG/Y/65cnCAI/GJfEASkqV6nBM/z7D4hCheTpSlxHBfsKqdUYF0U5VzI9PQ0u3fvRinFsWPHNl2s3TKLdierlCpO9mrIsJLdz35/wKuvniTLMjzPY3HxAmmarvKfnueRpClRFBVpfbfbJUmSYhENw3Ao60yQUq2rE+7bt496vb7qRm6Gv3dduI4syxgMQiYnJ4tFz/pm+3Q5tC6JM86cO0eWpCjP1hDTJMFReSzGkdMOWK1IJ08++SRhGLJ7927K5fKm64jXhaKNMWzfvp1yuZyn3ituwrkErS2FUpsMKRSpBsiQUgESg0YqZUEyoVCepeGsfYJKpRKVSoV6vU6apiRJsqlzvC740S7SyLKswJ2zLEOvwUaEEAjpIZTdpPSRykcoBUIhhY/WglRrYGU9Gf73UWRxapspquJ4l5LrwKItlOoW4jT3w1LKHCce+qS0maA2NgFBgEagM4PWgGfrmiARwpDlN9At8C6CKZVKNia/DObSFVu0u5lriejDmESx2UtArdmkYdXmiOVmg01ICUKQ5VXtTBvK5SpagxAKIayVpWlqeXZJiFSQaVsfTFLDIErQQrLcj4iSjEGcoIUijDPizJAhcpw9Q+sUz5MYk2HvXYbnSbRO8X2F1ummMOlr7joMjtu08WaGGfqbFKVUUbx1OIfv+wwGgwIPgdwFAI1qFV8qSr6PSTPKgY8wmkqpZBWibdSktbbgERRJi+/7xHF8ySLHWtkSmNQlC5dE8ITYGE8c4tea4js3LwsLC3S7XcrlcrEgunAzSRIWFhYsNUEYapUKYV6DxBgOHNhfFGdPnDjBzTfdRKvV4skn/w979uzh/vvv56mnnuL5558nyzKSJCEIAiYnJ+l0OrmPvvQ5b5mPHlbw1cKjLyb79u3j+PHjHDtmy1rNZpMDBw7Q7Xbp9Xq8+OKLhGGIHwTs3DnLu++/nzAM+cpXvsJdd92F1pq5uTlOnDjB4uIivV6PJIk5efIkX/ziF1lcXCySIef/XZXcKv7SUOmWL4aXCuAvTU8f+q5NHnPXzu3snpnllVde4cgzT9NoNNi+fTuTk5N4Alr1GoduuZmXXjnK3NxZ/vaxL7C0tMRgMOCRz/0Fg8GASqWC53l0Fi/YjFZnxHHE2ddeK0K53vIyY2Nj1Ot1pBDcfujQppA72KLi7Dom/0UseiPlDz8FPw7cKgAyTZrE7J6d4YZdO1lYWOCll17i+099j4mJSTwl+am77uK1117j/EKbCxfa1sLzzLFSqRAEAWNjY4yPj1OtVmnUazSbDer1esGAcvySIAhIkoRWq3XtQaVhXOGiSltbTxz22YIVR3cJK1mdgq92kL7vMzY2xv3338+ZM2f4wQ9+AMD8/Bzbt29n58xuGo0mjWaD0ZFRxsbHqFarKKWo1Wp4ystPQZOmCUbbmmSWZbbXJg/5kjghTRLL89iErrfUdTjgRecB/1oRApBrwgohhraVfet6B1m/DthfrFJcVOCSl06nw/T0NGCVn6Ypb7vnHlJNngGaIva2FIWMQb9XZHueUighVx0bwFcegecjDQSeb/tnNlE03HKLdsH9xovhaotea/mrYvE87h6WjdrWBLaVQqLRRiMxCGFothosLS2RRAPQae5/F/HLFQx2EXMcjtHRUWuxOShVrVZRwqJ7w3i221xEY3ncGUL61ybqcApwJ3Ux1yGEjZWReWdU0TolEFLYTraCdAvrVb3epwshUFIVeIZDD5eXlwulpGlqQ7+gjBEWw6iULHGdPK3OkgStLZCv04RyqYxEYrSlGBtjMBjSNLOWLCS+8vCUt6lFe0vDu2EFXORTKHJ2E+SFUVEo25nFBuvr6x9b2Z6szBikENg2Zk25WuXc+TnGx8ds+i1WmFIm02hpD10pl1BSYHRelZEKISVplhH1Q7IsK5qYlJAEvmdxFAzG6PzK1suqAvHmL2fz4nBp97s7oCcEGIm1jeHTE8WmhzR80RBxuACQPx3C8zHakGTWqnUKqTZkQJikBEGATlMCzyMchNY9SMVgMIAoKVwJ2IwQJWi0GvhlH6U9RCqpVqvW+oUmSmKqOiUzGd7rmLS7/i3ndbi/L9oGnAcKxe9bIL4fkGUZpVKpSI8znSGNLJC8JEnI0oyF/qIlomN5dBpDp9NhaWmpcD2NRoPACzh37lxBCQuCgMVF+28jYYEsbTRSbYxiDC+2cJUSFvdzXRlLCOuj17CbrlTf7oIs8SUZAv5X6oa+7+P7PvV6q0D52u02//iP/8gzzzxDp9MplNJsNrnjzjs4dPsher0eo6OjGGMYHR0liqIiuXHEx82c31VNwTdkieYWbVx0Juzvwx+9XMXHcUQQBAwGA6rVatENNtyI6cprFxbOW351kvAP3/wmP/rRj4qDp1lGHMf0+30uPHGBStVSyObn55mYmAAs5u3KYVmWIZXaMOJYYVLZyGXL0bt1ce4aGYY8V83SsH+ugkk3fUwpWV5e5vjx44WrGFawQ93K5TKT01OUa1W+/o0n+N7T3yfRme13zG94pValXKuSpClf+tKXCq5dmqYFr9pRzIQQGK0vml+5J00IsXWKHh4dcdFpAUJg1NAm7bYWy754eLgSh7ukSOQAf7/fL0Ae1wwkhFgVB7tn5dixYzz//PN4nreqUVMIUfS6+L5f3DygcEmTk5M0Gg2azWbRrnGxiGP4Oq5a1LG2AGBcOMTqsQ4i99tFSA2vu1huRF84feYMnqfYsWMHQNFA6izabUJIeuGA737ve4RhiPI8VN6xa4ZvXC6+77O4uEipVCo6AbTWRFGEI6W/ng5W0L1ga13HMH+5KIgO78PFnrYNzjjFbRCYvJ6ssnhj2LF9R/H3cEeBgwSKarawx3vuuecKherc1cRJsjJqCPuEunCuWq0WT0gcxwX9zGWwG4l7qh20uqUW7S5Qb1DcdD9d1AGgMbZ2dxnfD6tTdVvesn0qvV5vFZnHbcVNz2zbc6/Xo9Vqrfo+l347N5OlKVpntFqtojZoOdblwrItl8+WuDa6iiiKijEVW2bR7qSHlbx+G3Ih+d9FmggWiLvEQrguPjeGUlAiSRJOnjxZKHn4HJyiHdI3MjKyqqFzmGVV4BrYCGPfvn0rj38O+KdpumYNWH+eLvIRwjb0b5miPaXyu5vjA0O+1PlfaQwy08hUIzON0iav0VlrM0av8+/Dm1PwWqpZlqW0mi0O7N9vs8MotkVgIZHCDrnylEfgeTQaNWZmbyCOI5QSGJMBGgvUaYQwCAFpmnDj/gPs3bMHX3n4yiOOYiqlCp4MwEjQEqPlhlGHi93d4rqlUYfWuiCtDCu4yBwNyMwgM4PIDEIbhAa0KSx7rbtZK2ujEeeq0iQh8APKpVKRSCilLPZhvxBjDOVymTvvPEypHOAHPnESE0Yh09NTCCmI4gg/8JgYH+etd99Ns96gUi5TKVco+SVbtzUgjSTwyijlbwh+OXHJ01Wrgm/kOlhjqe73KxUh7AJYr9cZDAaFkh0MOnysKAq5/fbbue2224q2tlarxfz8fLGQVqtVHnjgAW6//XZLhszRwMFgwGDQIwxDojgiSaP8Sbz0OV5TAs3a87koHnKZEkURzz77LLOzs0xNTRUQqfO5Ll1WvleElB/4wAeo1+t861vfot1uF3XBvXv38r73vY99e/YQhyFplhQpexD4eF6AlCvkGaEuUtlfI1dN0Rta6hp/+3pF3MuRUqnETTfdRJqmBQvfLcoOlYuiCB2FxFmG7wdUq1Ue/OCD3HfvfSwszOd95TuYmBjHGEjzhnzLeMKSIoWd7SQdYngZp34dUMKsMl3NL03T3PqCIqrwfdsNIJUiyPJKjBB0l5Zo1OvUazXK5bIdlKLs5LDOYrvgUoO9mTozZNlKMqT15unJV+yj3ULjYsswDIuWg1XxrjHrXMflytrIw2IN9qKPHDlCr2e7WJ1FuzERtsM2REqBlKJYLC2pRlAul8myrEhMBoMB5XIZIQyeZ8O/brfLcq9Lu93mwoUFLlxYsCQc8rDxEnJdWLQxmltuuYVKpVKgZYPBoLghSZIwMjKCkoo01cSDsFBwtVYljmOkVPSXe7TbbRYXF1nqLhLHA7LMGkmtVmdiYpJ6vU65VM1JjilZmiC90rWpGb7RUiqVOXr0KDMzM9TrdbTWxeImpWR+fr54GsIoJooiwjAseHpuQphzP5OTk0xv34bvS4KgRLlcQSkPY2wiYrQhzctbQoprTzd4o2RpaYnZ2dkC3O/1egUCNz09jTGWhtAfDGg2W0xPT9NoNAq3Uq1W6fV6tmqSRxOVagkpHUooWFxsc/r0abZtm2Z0dBRfeJsaduvkulB0tVrl1VdfzUf0lAoecxiG1Ot1JicnixYIIWyottztFsBTN01J04RGo8m5c+c4eeIEaRKis5Ak0wgp8P0SgyhiebnL3Xe/zfKpHYzApSOQa56wrJRh14SfUhSbucRJD4eIWZYRhiELCwtFluh+un5wl7w4bKJcqVAql0FJWwn3FdV6lV6vS2dxgZ3TU/z8z9zDdtMnOfUSp5/7Pqf+6Vnu/5m30aiVMFlmr0ULNmur19SiXQVlIx6TS9UBMgwb8TMvFnO74VPDg69gZZqNy/hclieMIdW29cIeWJNpg1ACKQzVcsC3v/wlTj39JOVGg97JU3gjowwuXCAQAmNSEAF4FjTaTMJynfSwJAV27LI4F/8CBUI3jNTBSpiYZRlCCiqVClprOp0Oz333Ke47cCvve+t9BMshfj9istZEZpokigiThESIvJjxzyS8w8DevXuLuNlZ/jAHcNjVZLml+74PErLUFlrRphjPlvYGlCJN2l6mogXjrVFUmuIVwxIlWkAqNhwTvk6uC0XLPCxrt9tF+Wg4GiimguVN9EmakmYZGkNmMoxOKQWBZS+5oYOlEkG1TKlWASkI44RyuYpAUgoChMr7CzeZh1812u7roXIrTNCVk7Q0MLeEX96xwzDk6aefZnR0lO3bt5OmKZVKpUDuVjZNFCVkWoO0YJMnPNIEyqUyvuexOD9HkiQsmZT//U/PIU6WaaPxSwGRgMRRRzONJ5St2m/inK/cR+eUgddjkRZ4NGLN3yti9GrA6XKkVCpx4MABWq1W0f/njjN8PCll0ZBZKVfwfb8Yl+mGYXW7XXbt2sUD//oXec2XHLkwxw0/9Rbe9t4H8EdG6AwGCM9HoJDaYJL09U6tkOvCdQwGfS5cuFAwiNyCN+yjnbKTJLG0BxvmgLQJT+D7jDRb1Go1zp8/z/T+A9xd+QB+UKLb7bNkBH/z+FfZsXOGLGdhKiHwpLq2bNI3UiqVKi+//DLbtm1j9+7dRSSxVtwCaJmn2lbic6BfGEMURbRaLU4dP8ncYomx6W1IqdgxvhNjJNO7NOVymW53GZPTq2y5Wb5ulQWuE0WnqcUsHM/CuYm1nQfG5CU3VyjWNjhLkgQlJElsR80fOnSIxIAISiwtLaFEhTRLqddqRFFKqVTBSMEgiWyStQm55hWWtaDihqdZ8Kc3+b3afmO5XC4ijGHqwDB+PBgM8vNwZB6N71u0r9looJOEzEClXKHbHTBeHyXTmqAUMAhDglLZUoOll3fxbu5Mr+mUMCNAD/+vPA9fm3LLoc+vk9y3ipytj7QkmO3btxdKdtXnjRZW6a0Q0odf0FNqlCzG7fkYI4jTlErFx5BgpCA1Gb6vgCyffGB50ZuNJq6969giTvSwBIFfxNAOvN/ohhdJSi5rF0x3grZNeiXjM0N3/MctvV0XPjqKYnzfp9FoFNWT4fERMESQxKyK84VYGf0zTKiXgMjbJpRceYVOkqYYIRFDA602I9eFotM0YWJ8nPHx8YLx7wCkjSrta/cNd1m5G2SyDFzzEENpvQEjZNFCt1m5LhRdKpXzIdqCsbGxi1bZhVhpNVihiVGEgsOKk4By1j30sgTf89FihZ682S6RLZvkOAxFXsqPOatx/3btd220//VEKcUNN9zA5KQdAT9cAR+OPJL8zRbLy8sAtlEIioyxXC4Xg7k9z6Ner1tOSB7BuFeIAMWYis1a9dYoevj3SyhoI5L5Rs1Ga/e/3vdqnXHmzJnivQBu8sDa7wEYHx9nYmICKSXNZpNyuVzwnx0V1/nsbl6FSfKC79LSUpHeLy8vs2fPnku2Uzt5Q/DozSjvckRKVSjiYl0HSqliPE+v1yvGtTl2qLNqOxs6zqdDBvT7dv7/3Nwczz33nE3X8wb9qenpVcT11z3HLbnSyxBXSdnsBMTNiMpJMsNvnnAy/Gg7a3evB4EVN7a8vMzZs2cZDAbMz89z7tzZgicyNjZGs9nkhRdeKG7O/v377XsYNylvqEVvlRisv3WKXjtN0lFnXZnLWfORI0f4zGc+w2AwYGxsjDiOefrpp3nkkUd49NEvEMcxMzMzNJtNzpw5wx133EG9XqderzM+MYFU6tq5jpxta+csF3PiHGdY5PtzxiegZQ6WC2H7DsVKOqyxmeNKorCeH71eBL7nFb2AWmtL38ojio1aPKIoIkkTHv/K49x6263s2bOHx/72MX73Pz/E5x75HMeOH0N5isOH7yTThrGxMY4cOcL+AzfS7fW46eBNNJt2Vg0CQikAAAocSURBVIdtx7i0nrbEoo0R7N6zl1/4xX+FH5QJoxjPD0BIlOfj+SUybew8ubzOlhpdIGhuaBX5TbB4yMX50cORhBCCNEuLt2a4PhNn1S50s2CSRvkSLTTP/vBZnv3hs3S6HX7jt3+Dv/va3zGxbYygHFBr1Lj/Z3+W5f4AIxT/6y8+y45dNxBUqkxNb2dichvWiEBKb1NGvSWK1lozNTXFQw89xMc+9jHuuuuuVQhaFEX4vm/bfYWbSCCLzRnEOgrCJiXLMvr9/jp8wzX1uM9EccxSZxnfK/F/v/NdAr/MY1/8Ekr6fPhD/w5PBXSXeuzds58bbzzI0tIS7Xab73//+9xxx2H6/T47duygnE+iuVQlaVi2RNGO3mqM4Z577uGjH/0ov/Vbv8Xk5CRZllGpVOzqPkQMLzKwLSCiu/enhGEIUIRqbvCgG9XmKY9Go8mJE69y/vw8H/rQh2m1RlhYaHPXXXezZ88eqtUa9977M0hpffnXv/513vrWtxIncRESXo6CCx1d8VVC4ffcVMPR0VF+6Zd+iT//8z/ngQceKFrIlFQrL3HMGzGH2zBWNSFexnUkScru3buZmppalTS5Znn3RiLP80lTzWc/+znuuede3va2t/Pe9/5LyuUKi4sd7r//Ad7xjncRhiFf/OJjfPWrX+W73/0uO3futET2oam7w65rM7Jl0w2ckoctddu2bfz+7/8+73//+/nUpz7Fk995kjiJVvEsir5AVjD0yzVyrW3lw3XPOqDIZYdRFFlw3/N58Z9e4fixk9ywa5bPfPphOp0OY6MT/Nf/8odFfP1496s0GxVm8kFYjUYDJRVGrH41iWvy3IxswYDB1aGa4725t1r6vs+73vUu7r77bh7/ypd56qmnOHHyBEtLS4RhyMmTJ4sb5ft+8fi76KEguIgVrvUwBOr4zt1ul0ajkc9H0oXbcBbu+z7K8+nnafM3v/nNYlKBcy+OVbpnzx6mto2zd/cMt99xuLhpamiaQRzHxaj7zcwnvWqgUhAExe9aaxqNBg8++CC/+Au/QKbte06WOku8euoUH//4f+cf/uEfSJO8XBTHeCWPNEsLFM5d2Ebi6n5nzpyxTM88eXEvhSxScakolwK2bZtkdHSEHTt2Uq1VGRkZsWPX6nVq+av3KqUAdEpQKufvZzGrLNj93Kzr2IKX+24sLq11FC1rWZZL7KwMVvz7o48+ykc+8hHm5+ep1Wr2FXhD07+cVbrko7BwnfIffv03CXyPkydPcvjwYYQQdDqdIo12xzE5bhFGcT5k2z5FSeKGVJFbL/hK2Fd/iLyPRUr8oMS73/1uGo0WmV59bpeSq5YZDhMNnTsZBtfdY+0evQcffJBHHnmEX/u1X7OtEUYTBMGqlzpGUbThsU6depX5+XnGx8eL9o6NuMvGWApuo1FDKfs6EDsSQpOmMVEUkmUpYGdyNBqNlapNpjl48CC1en2lxTpX9mbkqqbgbsFwd91NGxgG5l0PdhAEjI+P89BDD/GJT3yCnTt3Fn7c9aNUq9UNjzM5MUm32y389/A8J3dMp5R6vUKmUwwZyhMgMrRJ7HhiafB8iR8ogsArRlKEYUi9UWffvn2AzYLX9udcUhdXy3VsdLftvvU+zaXLTvkACxcWePzxx/njP/4ftNsXUMrDvv7ah3xuneVca/7Tb/8mtVoVrS3lwDZypjjieVFTF+QdWQoh7dwly9nOP5NzuywtwXKrEYLAK3HgpoMcOnTIqe2iOPrF5KpZ9EaPlCxqb6s3+3YIBQiU8lDKY2x0nF/+N7/C5//m89zztrfTvtCmXKqQpZreco/ADwjyfkEAISXzC/P0B33iJC7wFFc1N+RJUgZZmpHGKSY1xd9ZqskSTZZk6DQjim0TkDYSIyV79uzFvoFotQvcLED2puVHe55HFEVMTEzwR3/0R3zuc59j7969q3DkJElIU/tChFKpRKvVWjdJZngwysW2jWSYlXrzzTfTaDSuKIt90yraGFPM0ldK8fa3v51Pf/rTvPOd7yxCNnszwmJBbbVaRSQwDI0OK3Wjlo+L3QBjDJVKhZtuuumiNLPNypu2OGuMKSZxffKTn2RhYYFDhw7xwgsvoLWmVquxtLSUDyxRhSJcvL32tR3G0cDM+saOjYbWpjql1mgyOztbLK6bfXHCRvKmVfRww/w3vvENXnzxRf7kT/4ErTXNZpN+v8/OnTs5efIEURQXinVDptI0XaEIOExab0zf2mg9Ucq2xh08eBC48r71N62iXdSiteY973kP586dK+bqt9ttlFKcPHkSMChlb4qLn136PQz6g8VQ3PAW5x6G8RaXXGmt8Uplbr/1tmKO3mbj5YvJm1bRDn+4cOECH/rQh6hWq/zZn/0Z7Xab8fFxAM6ePQtotDarFAoUily7XyALGNX53H6/D6y8ydPzPLxSeRVR8kpLb29aRbuGzEqlwsMPP8zDDz9Mv9+nXC4Xvnl2dpazZ8+g1MrERhdxuKEow1ZtDKRJWoRkDj6dnJwsFOx+Cs9/3S6Gy5U3raIdvp0kCX/913+NMaYo///qr/4qH/jAB5idneV3fuc/EuXTC8IwLCBS94Y3WKEaKOVRH68X2alb3Obm5goCpLPeoFwtFsmtKCS/aRXt6LRBEHDffffx5S9/ubCws2fP0ul0eOyxx+h0FvFziHUtZdd9h/s+gOXeMlFoJ+XCSsTh+z5+PglMYCdMOjBsK9zHVUvBr1TcsBMXPXzzm9/k4x//OC+88ELBt1BKMTba4t/+yi8zMT5WDPMTQtBdXibMR0m4lrc4TsDzMZnB8z2CUgAGfC9ACJCeQGKz1DhNeMtb3sKdd95ZjGO7EprEm9aiHWLn2EXvfOc7ueWWW3j44Yf5/Oc/z/z8PIPBACmtWzBAGEZkOQMUY/sPdWYt1r51qIKWHm7YlW3uzEjCQbE4BoFN6x1/QwixaubdxTDxS8mb1qJdm7G7MGfhxhhOnz7N7/3e73HkyBHA8Nu//u9ptZosLy8XbRWOwOgWxzAMCeOYJFuJqx2nev/+/UxNTbFr166ipxwojucqMe77fhx50yoarEKc6xhuqNda0+/3+au/+iu+8IVHecdP38e2yQmSJFkFl4J9Imq1GhMTE9RbLaq1JqOjo4yNjRWsURezO1W4FzIMV1FcpnrdWbQL5YYtaBi7cGl2u93mia//Pb2cijs+McHBgweZnpqiUq0iXcHBGAwC5a1UaYbbLFyd0ZEdh9UyTDH+sS1aO84W69PMta0JVyoXu6fDIPrwvrUXO3wODsWz+w1xFBE4Klj+2Y2ZnnLVdw23YLjs0D0RwxY9XFD4cWSVop2sBe23SuFrmfjupxCCfr9fVKKHB6huTjZ+k9HGsl75a2+oWyiHC7uOyP7jug7PLTJrDzrMz7iSOzksw1wIZyUuwSiVSqv2Xd4NvTIcwvlzF0667LDX6xWz9C7vxq+X/wcE9UsItem8pAAAAABJRU5ErkJggg==;" vertex="1" parent="QVFtLVlcKrwCf3kHJC9H-1">
          <mxGeometry x="160" y="244.4" width="43.9" height="60" as="geometry" />
        </mxCell>
        <mxCell id="QVFtLVlcKrwCf3kHJC9H-5" value="" style="edgeStyle=orthogonalEdgeStyle;rounded=0;orthogonalLoop=1;jettySize=auto;html=1;" edge="1" parent="QVFtLVlcKrwCf3kHJC9H-1" source="QVFtLVlcKrwCf3kHJC9H-6" target="QVFtLVlcKrwCf3kHJC9H-8">
          <mxGeometry relative="1" as="geometry" />
        </mxCell>
        <mxCell id="QVFtLVlcKrwCf3kHJC9H-6" value="" style="shape=image;verticalLabelPosition=bottom;labelBackgroundColor=default;verticalAlign=top;aspect=fixed;imageAspect=0;image=data:image/png,iVBORw0KGgoAAAANSUhEUgAAAE0AAABfCAYAAACtF0ogAAAgAElEQVR4nO29ebQdd3Xn+9m/oepMd9LVaFmyZEnGNh7AIxiaIYE4QMKYRybyCAk00OR10iHpXk1eXkjSTWh43Wk6vTJ2EiAJkNAJCU0YAwbCYOMBG89YWJZlS9Z0daczVNXv99vvj6pzr2TJliBu2v0Wv7WO7q2659TwPXv87r1LoqrK99a3tcz/6gv433F9D7TvYH0PtO9gfQ+072B9D7TvYLn/1Rdw0jqdL5fxe/S4HWewzvBtZ7KenKCl5vfmRlVWt0UBVdDxm2z9mUeDciqQniDgnnzqOZak8YsatNS86l0JJLKC7mMBJqf42xNxiU+24FaJKEXzu6AYwAKCAIaEoKA1mPFRqAja7JHjMEvUSmWfkGt80qlnAkpASRhAiFgCBsFgAQPqAENEKYnUAGnzkuZd6VFHTfz/FjQwKDnaSIwjYlQRNdSA1VIHYEVwZnwLtUyKrmql1Lvrf0SeMFV9EqpnLWkATsEqkLQ2/gCY09ssPcXvDeZPxHrSSZoo+LE2xXSc4U+ItSCKihAbD+o0QkrUrrVGRhUwgqghpfoYIuYJ83pPOtAATFWAc6gXNCnqLKUKZUqoCKZRNdtYPbURi0FIxFRijUVVEY2IswgQg2Js6wm5vicfaJKoCBiFYHOGAiOBQiwLwXJ4rmTQ7zMajoghMDs1xZqpSWYmoGst1jgyQDTQtgKpQIg4/8QABk9G0BAka7FQQQUMBT5zR8F//9QNPHhomYV+BQjeWUQsiKUaLjPdVp5xyU5+6LkX8pSzHeucwwCZOCwlRRHI8yfoCh/tCFaSkxWvM94vK3+X4969+vvxFvn4yPS4v8np3JeSgOUoPHBowKdu2sPHrt/HfccMy2aGIT2COiQpVpVkMpLNcRJwYYFWnGfaLHPeph4/9KxzeOFVW1mXwYQDv+I/avunIsclYglRbfabk+7mtKCl5kYNgEaQ0BzMEZropw4ywaSAkQj4es8KooEUhqARYzPAgVgShpgU5+oLiyGhGuv3GUtRDDGdCb6yb5m3/b+f5mhqs3/kKdvrCaYD4kAjmQZyLakkZ2SnICyRpyXaHvplImZtXOizTuZ4xxuu4RUXT9LTRhDKRTCW0ncpBJxAS4dIKkE8lek0oc63AZrWwTZGASIQQIQkhoBbwcUCmgIaS0Q8RnxtfAWgQExqQHE424BKQlEMiqKklLDOUyZhGWGxiPz9DYd4z0fv4/DIMUqKOI/NHeWwz0zbcdZMl3VdoecDURwHqxblwhJzB/cxijDsbGLEDIVv4xkwvfwtfvGVl/Mj12xgk4MuQ7CGEsexYOm1oJMGiI5AMgrTw34noDEWmCZ7rtMV08TbYEmgtStXcVSVYgFrhRCg0oDLDJVCQhARPEodxysmKYQhkCiipep0eUjhV/7odj7/9UMsVOuIExP4cIwpFtnUGvJjP3g5l583yfZZT8fVfrMooTBgNXBooeDLty3w55+5mbsOgZ0+h1IynFOcDnjZxWt4189uZ31SWpoYVRVkOWKETIsVSStNq7nObwO0sTkaMwtJOE4lFaMJNNRgpoCKBWkR1TAMEB3Ml3D/4WUOL/ZZGFYUUdjQccx0cjatm2TjhGECyIgohocr+I2/uo8P3jTHwG8G14LFg+ycHfGqq9fyk9+/ja250pWATYokYCUTiCQMlTH0ER4cwEe+sp8Pfu4BHhq2GWkPtRO0ygP8+FVr+Tev2MKOLlitGI0K8m4XISKaAEMU1wQy3w5oTcqmAkFqBaVB3hExKQARVFEtEaP0+y202+bBZeEvPrWbz976TfYtBoKdYhA8IXgmWhWmWmLddJtLz13Ly67ZxT+7wFOO4LM37+U3P3ALD+hmtL2OvL+XSze3+bevv4LLN1rWkmilAUIJakByouakUOJthboWZXJUIkQDx0bK3rmKX/rtz3Dvco8l2QBZhjt8L//u9Zfw08/YzHofgBKxGYg9LomQ4/49Y0mrI20VSykQGsBMDGRG0VBijG1OFCmKkv3DjL/50sP8xefv5cFhzrLrUarBZF0kKCRDsqa+31jCaIGN7ciV503znMs38v4PfJnDsc0gW09Vlbzi3BG/8JPPYMf6Fj5CzwbQUWMSPGpyolhAsUQSjmqsDUlxKVKJsHcgvPvDd/KBLz1EObWTZCzbynv503/9fK7e7MlShViD4oki9X2u2KfHhu0UoMX64oxn1AieATKN2FjUKUy0DDWj8HCggre9+1N84xHDnMyy7KfACpR9TLlEqxrQQil6s/SjB7FgPRJLjEQ8ARsLjFY4gcu2T/PHP3MhWybtmHFERUkKYmxjPepwYaxGFavkT5YqJPRRHMn1uO1I5F0fupWP3N6nnN7OZP9+nr1hwPv+nxcxEwPWKopbBS3FJrl/bKt2aichekLOa1EMkVgWSN6jsJbSwlcPjPjl3/8Gew+20c5GiuUC0zJk1RF2bczZOWVYh6GVlANhgUPVNHv3H+LoMDHK11GlDlFy8EqW5uimI7zl/9jFximDjkaYPKMyltgk5uNQx2nCsEpCingUwWhNJSEgKWASbF1recOPXs7XH/4K31w4SuW73PTAQT5+00FedcUGOuNjMP6O0uMC9tigjbFrLtKSIJWYzLM8LKl6Xe5bgHd9aA/3LUyS2muQ0YjpVsEGu8i/ev2lXLixw/YJw5QBk6AvcLQfWFzs87ef38ef/sPtHOzsgqldsDiHTUN+4gcu5LINbYiKyXPU1Mn3WFPqUCDVwDQagShWEoqrfbsYsG0wkAzkwM5ZeMlVa5m/fsiRvtCa3cnHbn6I5zxtA2c7qb3lo5mRxzFqjwHaqjEUFKMBiSVJDa3eNEcq+LOP7eHGew+RutvIBnOsscv88KUb+Fev2cl6D10iViOSHCFAhrC1ZcmzFk991flctGs97/zobu7cfw9m7Vqml+b42Rc8k01S4a0nqRBLxXutWQxNGGMaLTB15C6NomodCtVRvqeKinWGEJXcwhqNvPSKrXz0i9dz2MxwbKDcuGeZxVgRvcdpWjnOmazHkMNV0Gp6uQJbMwYlcOM9R/nI579O8j0ySqbSIV73vPP4tZ/cyfZYsUb7tHQJxwAjieiFzEJbElZH9OyQH7p8Hb/+M1fw1K2G3vwdvOEHL2V7nvDVAoSIAbxTTCwwaYSRCrRqpMCSxBLEkcSTxKHiGrcgJGMICtaAKQf0zIhLt7bYMhXIXQJaHBlabthdO7o6GYysWsdvFzS1EB2iY96uAhmiUhJVOFQqn7j5MMutnVShR48BL71oire8fB1TxpDnDpGMoF0kGhjMI1qriVaB0rcYmJwocPX2jF/7kV18/7rDvPrKLnkURNqIOY7rtx6kBWR1GgWIVjityJqQe+wQxulPZiBrUiSXtRHTJhf4+Z96LmZ0BNvN6ccWn75ljr7CECFKBBnUBRt5fF72FOqpYLS5FKjzyg4SDDFrMxhG7txzhKWyA60uunyUlz//cjI1tDxIqMBahpXSy3NM8/2VwL2P5Hzia49gWobnXLWOc9fBNU+ZYucvvJper0vhIdcBxmS1jIshYuoqVMNdW8Cq1kn2CYTBqhmyJ+ypPUgGXLrN03OGoiox0fDAg4/gZEMDugU8Ki3GRZkzBk1NQolEao9k1YJ2iTGnipYHHhqx7+AhyM/BmSHre5bLLpyiK0BUNEWSWHw7I8QKwbMcEn/+yQO895P3csSspahGfPDTX+bNL72IV3/fDrbMThKBQhLkHVorJZWGwGUc+jTJnQgW05iOM7RDUZnywlS7y6HlRJa1WTi0j0wVr2DEgLYpjTlt3eok9VQSkRo4ofEqCYw4ksBt9xyiFMFMtDFxmZe/4Eq6AjaAhAK8JTZ0dJmE5DKuv+sgf/TZO9mdMo7kgaV2xt5iHX/+8QfYs2/AhEZmdUSuhkq7hOaSnSqZRloa6GigRSAj4Bq7kzCnLciP17iu0m53IApGHLEYIVXChmqFMg+c3qqdBJpgkYZIdjoOIxV8nVbt3X+IpJ5UgYkVV1/awSYwGhGTkBRBDCMA7ygx3HzXQ+xTQ2h3sUWJqRKj1hruHuTcuCdgK7CjEVk1wOi4qpQQLZHUx8QFTJzHhHlMXMakIVZDQyGcIWwiVEC/SuAdVajw3mCNgglAARpYrXU99jrZpqkg0WJEEClRIqBUpk0lhrnFZVJ0SJmTGUc3By/gnZCSQgwYK1gRVGFUQlElos6AzuKqecBRZBP0c8eNRzzHRFjjwJijtOlCmiQki9jGM6JUVSJ3gqaIE9A4wlgHkp3BbUIhMADmhgW4KVJVcta2rSTT2D2tc+qMCeQ0JZiTQBMVbBJUEjGMMLkSrKWvNVc/tXELnYeOsLQcEZe4//6SZz1NyEQxIqirObeYajAnWrBuepKWBAbJghWMJkQM0OHuQ0O+eihy2YYWa03CqCGJYz4o9z+yzJ5jQ/YvOPJcOGddziVnd5lJ0KWAosDk2RnVM0vghj0Vg1SBS2AsIbMsYBlpRlcSGQVxeAzfmlrx1GcEGkAoIs4bbN6lJDDAsaBw68MV9zx8jOVCwViMdXzjzrvhiksBJWlEUFKKZNYhVcQ5w3Mu3872L9/A3sEiwQVQQy8OaLW63HPHHn7ugT6veu65vPFF57HewsGFgv/6oRv5wr1zPBimGaQuYiwz+YhXPmszb3zhFrZay5q8dwYUenNPwD988RvEqoBqHnzO/vmKv7/1EZ7z9I0MUouzjGBl0GQaj30s+/a3v/3tJ+xRxVhBHfQDLJIxH4XPfnOed7/3Bu45WJHyGapRSZ6VdGWOV1yzAytCCgXWGlQcSQ05ASkKpmc7XHPVNg4+dAeZGGbzimefB+/8l1dy9fmb+NbuY9z49QX+4Uv7SN1pfuW/foav7h1yNDub5ThNam0gtddSiOfrt9zK3vsPcPFFW/C5o23PzH8+shz5ww9/jsU4iZGMpJajxxa57c57eaBYx9atLdZkOS0EMaYmFh5jnZrlIDKshMI4loDf+etv8Zdf+CZzMs1AOlifE43il/fzrG3C77/5eWyZsjgNWCrUZCwVMOkjUg4YZdOg0AcerCl6zu5BR0cEDHuXhA98/jD//XO3M1d5Bn6WKgqhSpjOFGKEthYM+4fZNCkUj+zmp175XP7FK7exlTqSPN3aPRd4+3u/yBd2VywXOVVnPYOiotseMUzKlefm/MZLL+D52/Na/cy3Qw1Rkajoa4eFBH/8sYf54//xdRZaW1kcCZMb15CO3svlOzq89pWXcvW5bbYqmCrScopIJERDch6fAhIqkm/XHj2Bc3XdQSNgIAzmMe0OR22Pv7tviV/8z/fQD9OQZ2Q+kkaLSCgxMdBr55RL88z0HMRl3v/Ol/CMqdh4UItRgxszzwai6Aq9PlJhyQh3LQjv+/Bt/OPtB+nnGznaV8ruZszSA7zg3Ir/8NOXc8H6DK/aEANjzlpIBpRwajcRcSwp/N2NB/jQ5+9gXqboJw/escYu886fvZS/eN0FvGabY2eCrkLHSt2ogsG4+ruvjKPK2kSBgYXoErCIMI86y8jkhM46jPW0UIYHC0xVYa3DxApGCzgpME6IfpLlNEuRnc3RosNSzLjp9iWUSIkybGKscTSsWtux0HSHtHTA2jjiqqnEf3jDpfzJL13D667sMT08BgND6u7gs3vht/72ZvYNA1WjdRoDBF3pZiqIp8gI1FAB984V/MFH7+ZbS55W3mIizLFjc49ffculXDYLm1KBaXg3GVMpsho5jXPBuq4AWaXAEHxCpYdiyOomC0bkLCDcP2cg6xKNBZMozbgu5EHbBMlAIzHvMioGPLTQB53EU6dJmSpQgQkY8Rg8CSGYhE1KikoUpWvgsi09LtzSY1C1+L3r7qeQWVqTG/j09V/jqq1n8bM/cA5GciQNsVZW+mfGLWCPkjLLolre86E7ua8/RdXZgsbAU3pLvOund/KMaVgDpJQIMdVGuAEsNS8Yc1+xppVS0dRQBSWjIKdsTu1SRZaWsTGxYb1lOKq5e6SoxWaMfhwBI3AFKfZRSjp5hkmQl5CVjYQZIdm6GdAlcGpqOty1qfIO1lpyhXYMTKfAz738LF73ku3k4WEGR+cJvV28/2M3cttDAwaAuAxUkdB0MR2Xla+sIPDlO4/xpbuPMmIaMR0yHfLrb7qWq9a1WVcskRdLKIq1NU8/LsJUYxVBMVR1RK8lkEjeEVybJNlYpusfqcKlZSZNYvs6TzYxg4sjbCggKAQHwUJSTCjoEGmXJbM+52lPma1ZGE11oUeEgfEsS5sKi4ngAmSaE9UxBEKgzmBSiU2LbMyGvPUVa7hgI+S5ZTjo8uBSl099bTdzCaK1DJaWEQuOgD2VpBUJ/vGOh1mKXTAeics895KNPGMntHWISf266i5C7UMiSm0/4goU6cQ9YigFChFAySloqWITIC2CzDDEcP9BcBrphECrElxoQ5yA1MXbSdwokRWRbnKs66xl19mQTAA3D36Z6CKD2gjU+WOqtZWibt9qkWibZr/WJGbuC6aAV1xzFr24jHVtynw9N9xfsFAEipTIO60abQWLYFSVsQNNKXFsmPjGAwnrO0gxTy8+wiuevYEWYHOPdiaxWRdjPSJj0GpDueKGtUK09jwqHsWTV0q3GmE0EENkND9PVDhmLZ+fs7zud2/mPX/6KTZli3TMEGctMTmQLqQWoT9iYnqCUdFnYqLH0bkF3vkH32JPmTG0XYIpGOkiokqG4tIA5BDY5ca3JtqM6mTfgLoctV00KSaNePGV57KlV5LrCPXT3P7AMQ4PC0pjMFbGDQIItnYEKdVUsjGGUSh58FhBjI6ZvGKqf5DLtj0bCyTjSOJIGByNS+bENhgDWE21xpiMCkcQoZNKonGM6mQFO+3ZP4T3f+Yu/urL32I4XORlV+/kJ194MQdL4U8+ege37TvMkdE8qol2PiIfLfEDz93Fs56+ic9d901uvfUbvOMDgX/70+cxkyZoa0mPiDcBK0fALqBmln7s4YnkjGpra3KiCElakJQp4zhrAp5z6Vb2XHeEZZnFmQ73PJy4ZBaSCEZrukq07hRAmlREVSlC4JHFiuRyTFjmrGnDpilbd+kghMY7ehpmUE4EzDBmOixBLAOE+aiMCqEsE+1JqJzj4HzgV3/rsywEodOK/PLPvJgfuXSayaQsWbj6rU/nE7ePeO9HvsbhuWNcuG2Sf/7ql7BrPUxZ+L6dl/Nrv7PAp284yNzcEX77F54JwTNhE1IMIVfUZowwLDmYYqySgSQZVXMfGTk2JTqqXHrBVvjCvvpmXIvdew7CJROIczTGGsaSNgYthMCgEpJa8G2Gw2Nsu2gHANKwV3bcBKNjmPQ4wMBqLX0pJCpvOBLgv31sHx++7gEWQ2BmjbBz6zr23fMwWYy88Iod/MRLtrFzGibTElL06doEZpZrL2hzw+cGTIz6/OYbfpgtXeilAVpG1uRd3vEvn8evvO8ubrn1Ht71Jzfwttc/k34y5K0pAl2GKBFLRkIwJOlgCCQC4Gv6K9VtBLko09Oewsd6riMmlpeXVwhQO46jtLFp4yUiGCOI9QQ8lW2xXJlGCSOiJU4TfqX9zHI8x2mahhlQUohEgS/dtswHP3kTD5c9jrrt7A7buO7uATMZ/Kc3/jPe8VNPYddsTrI589IlZLOY6Mi9Z2kxcmA/TPfWMtW2OAQvLVp+Eq+WTR3Db73pIi7aNslNtx/l//w3H+ebo8SDQbhrINw9D/MjaKeIJTEio2bhSgyBfOzBioAxhmGpVN6Cs6QQ6HXaK4TkKk6CG0uZiGCtpe0rMr9MtOtJVY+H9i40NGQtZwlTF2WLBLkSxFLBSje/xYJ4TDtjKcGXv3EfC9IltGaBDJYO09V53vL6q7n8wgnypj1rhIC1lNaSuRlsNBxZHHD3oMMvv/gpdBs/P8LSBZKtw96zJPLOX3wB73zfLXzyhgf5pT+6jSpkHDhwlKVjxzh7jeeF12zjjddewJb2kGQ8FR7FYAWcqcAKBXBoDnzqEZLinGV6YpYMiOUIbx00WrYC2hi43Aq91pB+vyDTHsWo4NiCMtELeGspY01HZdaAjpvXDfX4w2ouIGIwAmvXzpD7oyxnDjMqmbQjNtFnMhsHxnXrk8NSIUSBJB4Nwrf2Bw5HyzMv2cAkkaiNVCdFTMJQ4lNkc97l/3rdlYTJ7fz1l77JEHB+hpB5FkvY+7UhZ08/xFueP0OpbYLUWqFaojIkZl2WDXz9zj2kkQEpEFuxeV0bp5CZ0NgjWzsFHrVaeca2zbNYCpJVjiz3uXfvUcQYhJLMNLbfgoYCl0a0NJGj5ErtBKoCCYGJBK99wTaecVaLNfO7WTN8iNn+AZ69YyOXnj2FGSVMFIiCS9BS6CTwMZAc3HLz/Vy8Lue86USeKtpAJwIx4gh4FEKFLQLrLbzsOVO0whBrc0JoIZ1NlEwyvxT5wi17GUqP2JQT27HAF/OIBMRbDvbhxnt3kzJLK0/MZBUXbLVIoqaKVgbYTlEj6OWGC87OkLhIoRULKnzu9ocpcAyrsv52HWAC4qROMRScCtIwArVZi7gSNrfh37352bzqikmu2niUf/Gqi/iln3kmazqWTkvB9sEMQfqIFBiJBCzHBG6+bx9X7FhPG1bqFhJT05JgUXJCBbn35ApH9wRaJoLJwUyifj0p9lA3w6GB51isGZ9WSrhqsakGOY4U8MVv3E/fdqlCRRYXOWfasb6Tk9sEVdOTpKutGiesHHjeeWcxI4tkJpIm1vN3X9vDzQcLgp+mShZUqcohGAPiUTFUApXUsRy+SxwU5B5cBVsm4Df++dP5w19/Ka958XbWTgZSGlHEZVQimFg3fEiFSiAYw1cOwEMD5em7cowKQUzNWJiqppTEMsJAZ4qgibbAxedacl0ilsuQZ7DcB+9wYcD6mS4pgVeF2G/UrcXQdtk7Ev7H1xZ4+OgI3+nih4f4vss2MuHrDs7j+2HGRfSTQLv2orVcublDnkYUpeURcxa/8Duf4VtLwlJlSQ3qYMA0JTtYAa5EsBMTVOWAlk10FaYF1kjFFBEfQ12wcW0CHSIdEm0gJ1HboS/cuYyfnWXHhhyjSkhah0oSwSpRhEqE+WGBdQYNiR3rHVfumqGbDmLKRyBfoh0OMDXYywuvmGHag9cKqiHYFsHN8HBy/Np7b+Ur9x6ju3YbLCyw3g55yTW76BkgRNScWH4+CTSvJTOp5K0/fiXrbR/XalHoLLv76/n377uN/X0YKSQ3QVAhNd074xqpqNbqKyU+V4wMycyALBS0k5AnR0datKWL0QzUQ/JI8hA8JhoyB3feezcbZwxnr+miqVrpGMIMUVMiEjEKE502Jo3ougFrrPKLP3oVP3LFDNv0HrZVt3HNmkP85muexksv20yXCqQk5T2W3QR7RPjtjx3gi3cuEdwGhkfmmfWRN736+WyZrv2cswZJTXOMjKXtpPbRIaSKPpP8l48/wn/81H6O2kmQwJqwwNMnAm99zdO58qIObaAFRE11NX4cvjT9bKKrraakpm4tNCpN3Xc2Fvlxyzqwd6HPq//z5zh3xwZ+96euYCopKSkuE2ARxVHRITWhttMCUkmoElVrmiOMQyCYACaBFEuMNfSDUDnLnUfhbf/ta9y8pyK1N2KLAbMMuGZHj//0c09l1oOGSMcnqrLA+zbjmPRkElIsMY7IJfHaH9zItw71+eDN+xhl6xgywe37D/N//94/cuUzzuGFV23mKRsnWDtpao+aajNXd4E7BLeaKdSkAo2zXEnwGx7yBLHft1jwyJFlXnjts+ljKC20TI19IdMriiKM07kWzrYoNBGaawiN5JfAokKUjIUI9+1b4ot37+ej1x9mzzFHlU3gY59OeZAtkxU//6OXsSYDlxJiqVu6TN36ZRr9PEnSKlVGRHpJSQH2lo53f2I3v/+J3eSdc8iiI3dDCjuPLebYlFk2ru2ybmoCa6AsS7JOb6VlYNwRbgiojN32eMzu+FM3VSX1HDnmuO6+/TztyvPZ1e5TjHpMxz6RPsfyDEuFjzm2dBBG2DynX4wwLY8xYEXRVKEpsbTUJ897VCFw9/376Ntp0tQW5kpHWQLVItN6jGvOafHONz+Dzd2caVfn0Em0/hLEIIlVTXo0aAOFJWBiNEfHComce2KHP7/pKH/2kQc5MsgpjKKTGVJFpFQIAzIqMgMYSxGFaPwK+yGqGG2EWhKiqSYpSQipwU6arMMTtEXqdFCdx1V9ymqGmbiIuCHHWhMYHeGCJw8OL4kKR2EMyQkmFUga4SVgrEVNi2HwpBDo+JxCc0KAlHssA9aaozz3/Jw3veh8LtsySTsFvEY01e0LRQJrHG4saejJoJVak3idVOEpURGG0mEB5e6DiT/863u47rY9LLZmGGkO4sHU0b8opGRQbaLfscIpNXHZMFu1XkZyiYRhn263w6A/gN4MQTykvA5BwhJogXNttByBEaLL6+MkIAUsoW7VGbcXEJGmQ9IYAXGEBEi7mb6NtGxJtzrM5k6fX33jtVyzM2PCCO1U09l1326FSkKpx5QkNZpgipNBiyh143kFqYQUQHJG0RG9Z1GFG3Yv89nb9nL7A0P2z0eWFpYohiUqFms9onUWujpVLkQ7IJpEwoM6rIJNgcwkyioQszZDHMG2UclwJuFTHx8HEAqMy6iwRFxz1FQzD+OgWkCbs3nnSSlRxQpNijMO4xKdTNmxcZbzNwhX7Jzh+y87izVe6ZkSOza4pUDmwFYgAcVDypDUeC3bP9WYT0Q1YKSxO+NhqRBQm3NsqcBNTFNaWA6J5agMqsTyEiz1lWIkOKtNLsoKjRSdjqn++taa8KSVCQtDRVvCfCl85eaHufOO3bzqJVexbX2LnlOGi9Du1e1bsWlPkea4p2oaqkpwvnEwAhMTwoaeMuMUby0TzpKbuoJldYiJw5plDiDahryWdJUR4B4F2uBUDTAWSbbu02pOaqJiLZCUmYk2SSEbQV5JjfUAAAtASURBVDszzHigZZEJVhpf3HHRnzZK6utvhCAnNkdpqruwB0A/wTc+fhO7wmF+/KnXsGHKk2kTz7rV53KsPnSicSenKIbL+HxajzWEKDgDMSreQFlBYQFaiMvRJBgvpFSHFEYMhuNGfsbnEDlFyEGdygxtmyVqM9DxgibIvVA233DuYJRWqPMVfsOY1cH941fRvGds2WhuvB5Wg/kIBxYTDy14Nm3eReq0GDThiV2R0NXPjUELjz7Ro++nudm2rftwx0174qHSuqsyNC2mpsaECmruDkdW//WEr+MU6pkoFW45kvjwDQfZc3CIC31ySooA0u6RqohPQ7x1hOAQEURoHIA0TLA57phCMJFg6xokUIchsSJ3hqII+IlZjgwqbr3nAXq9LhfuOAcp+9gwZKKVMapCM0SmWA04rTuxw3EpzsptiRBjImlq5t0FHwsyDSTN645wY2sG10RiKsl9i1QKU90e1145yTOfuoYO0EoFVn39iAsDeipHkBI80oc3/94tfGZPRehsgMFRWlJRmBaV7QLg4xL2Mb/nE7MzRer8VCwqpi5OaIENI7wGMt9iYVAh7TWEYEh5u+5K1AKfSgyJ2IziCOA04LVCEQIdzqRBrTKGZADNUEzjIUucCaRUYZKQgsFXgQu6h3j3W1/ApVtzphlh1CHJ1USBCSerZ5J69PCr995DOXkxUQTbEopQEIxBbQsEolTENJ4qPum7PnmP1lGENpS4aKpJzeVlrPE4n1EmRY3FpIBohWlKgQlBG0mui4bjkZ6ESnXK8520xjdOPf5jKDEUGKr62GRY30ZIPLJQsufAHJecs4moik0RkqC2JitOYdOaMQSdITIDZLiiZDosUpkRQ1OBJCbDUYwaamrwcfFa8aJJDLEpGFsCVitmptsMyxGSTzFaXCafmEbCHFkaYamwGuqpZvHE5gsyVPhUYSQ0perTr6h1/dUo+FRP4SCBUgPRtxnGHsF1wXeYMbMsFbHGIVRkJltpvdJTgSbAaAjOtTEpoctHuHxrh998/Q8jUk/yGoU1sTaowzNrRMQ2ni+ME3WBFOuqWlC475HEu3/373ntj53Ps3dd0ASaqx6yaloflLqnwml9H4/lPU+5ms/ZpkUkChQOlh381ef289effQg1jlGZqNTWk33WoqnWjNS0XJ3cPiq1B4xhCVseZWJ9hx6HuHxjHdfE5qLzNAAjlCZb6VFZnd3TZrteRuveCUmCmrr5OIhQSO1plyu442t7ONsv8pxzPFevgx6KTSV1AzGoeKKpu4AsqVFhoS7dngFqUvP8qSbJV16lwDzw1dYCrbiAcRkqgstb9Wh6MiukgtH65ynVUwV81qNyiWP9Ywym1pOAvInERQ3q6odcZCeMKZw62hSUVI4Q36McWmJbWALuPLTEX35uN5/96iEGRY8ybeG3/+Ygb3hx5LKzp9iQZbQUbBiCB6F++IAgGGOax0Kc6TKUYviz6x7k5t1zpBh5/uW7eNkVk8wAng4juw5TeTLx+JRYJ4ranCRSt+iniFN76kblWtzrQrCKUhnfxDHj+fWMZqDxUZMdY5l79EqYrEWqAraT0wfuOgzveP/1XL+nZJDOxvi1RKN84b6j7HnPnbztdd/HS57WxSaD9RnjiTtZOY+BFdbk9GtYKXPA1w/1+Zub9mJFWbNhlh++ou5vM6JEqaf7otaP2rFoE9dJc58J09Qq/ucvAcShpq4lzFXKhz55G9fftUyZbUN7G4lZC2ybgh7HdIo/+MvPc2ggROsZjSrGYczKcIRKbRDP0KBZbxELZRgxGixgpcD72q6N7azKeBIvPu6xvkuPzWnoQi+MgINzQ66/eR9ZZzuD2IM4rOv+IdDptFnod3loecB1txziJ561nplWF1K1UuCo8045oY/ktFeQKtp4XnT5di4+dwNVBReeM4FQZyuFqWfsXSwxTxrQRCiCoh7mFxeJwUHM6rS+PSQ3fYwOSUctbmqWpcECB44uEcx6NNXFaJSmvasB67hfT7e8BGaIPGfHNN5PM4yQNVX6AVCJbdiXktONDn131LNZtikR5HmGtQZvPD7L0FCRJCJGMM5TDgeIgXanRRonHfpPvNRYz/HNLRbsOQTf3FuxuFxP4LWAPAFYIp3GIz/2+u5I2vgRq6nCS8b66QnO2jjF7jsPEtdsxbenKZcqQncGK5CzyAwF1zxtM20HqUqYJptecQW1YeNMRU1ti/nK8p6/vZmPfeleWpnntT9wCf/65TuZSDBRBUwSCplAtHjcY32XHIGSiiWcJExIrJv0vPzaS1gzWxHDEaoqwuRZJDNNJRa3tI/XvuipnL8esqg4Uw+EjMOhtALYmYccpVqGGSxNr+fB9lN4ODuHpWwtSkTSMp0Y6pRNWsTTPHDzu/b8NPEOFYtWyoSHay9vc2h+Bx++7h7uP3IUqWYoRwWzE4mf+MEL+bFnbWIyKTkVKQ4wvoWKIdBQSk3MWIvc6aXNGcUiTJrIudORnlMmzABhAjWOwtb5LVLXVB/3WE8EIKdbipBcixiUdu5JSVkvgTc87yye+5QJbrprkYMHImvXtrlgR8bF22dZm0FbK0QHaDEAn6/UsOoo7duTNBMGzDrh55+/mdc/azMpKet6DiMVA9dm3nuShSzN4/VUjODqeoyEXXE6xKUWMVkqY5mDpjhrsWaVVDx+6H6F3j5pWxgmh3cNaVkJ1lu8U87fMsN5W2ZO+AxaH39UOdp+ArpTlFoHn5GGhBSLwa4UhR/73PXLui4WWDsFZwkMi4jJDUfJmQeWrIE0INcKpwPUKEM1ZCgm1cUaFUM8VRoVgJQrLZbo6CwD6fLA3BI/94c3MxGUVhRUIpUdAtQz7mewHstkP5asPFrp9LifZx6dra4oligG0YTVGlIFKgzRZnzzUEUWC1yngx8cJqSSRYVZ0Xp4xLo6/+VUoCkUYhiUik50CLHN3ELFp++oaFeQRUs0SuUUUYuJT9CDFv+nLiGZRDQRqwmr48cJ1M9rVqcUdEh+mrKKbLYWE0dYAxqbUmCo0Gbm6yTQnMDaDsy0HcPRAj63pMyhpakfHmIyolFK4xD1WM1p6mfj/GY1tTntdiM//6RtWRXDx9wWVAKJCksaP/IEgDIErPUQ6r4Jk1nScIHNs5NIbACqSnDZiik6CTSrsN7Cm17xLN73ia/z8KBPEouViDW+HoA1hsokVEc4029u4kwsy/HbDYCraH6H29/OuesHZlpCPRJOoj0zwahcrlOpCD4krr3yPJ6+cy0+gXWJshiReY80RPkpCyuD4ZCYdbjjoSUOLA8JxtYf0Lrwm6h7Y/WEhzwcz6CdyfYTuc7k3HWCL+hKGduoEmPdfyampgJ85tixoctZXaFrwMcRGkaYrAWSEcWeqtWqAi1R6ynxjZccj+7pCkjHkzT/O6w6XFkdQTToqiAeh0BNy9dUUIbWz4ocBzriUTkVnyauCRjrJoAcD00rgKXEMqwPoDmMm1qOV0/Rx9huLkl4/O36Ik69LePi5+Ntn/pa1OhKX540qroK5/HLoDh0PFgi456UVfE4uRqFNLVJoe7ajyuUch2D14+qERVQezKf9WgN/Ha3H2/9E44tmk6I9JUGwebn6jOZmmd+10/rRFceNTEmQU+Rzgs1ISq26cZQRbVpxBNHIsdhEfIVHnBFYMYH+E63T+Ukn6BjI2alUWZ8p2n1LU2n0fj8oXHysjKOWf8nErIiUieClsBGoOlPRROSWoiBaEytvk27VJ08Vycbtidy+wk4lkA9Rad2RfpEVtmKsXWW4z8E42cCrqzx+0+2aeMZMTFAq/7ZqLRZ+Ugj0vJdJuSe4PVoy7m6akpAWK2BrN7nKUKO763Tr/8Pv1FufyQEAVQAAAAASUVORK5CYII=;" vertex="1" parent="QVFtLVlcKrwCf3kHJC9H-1">
          <mxGeometry x="260" y="245" width="48.63" height="60" as="geometry" />
        </mxCell>
        <mxCell id="QVFtLVlcKrwCf3kHJC9H-7" value="" style="edgeStyle=orthogonalEdgeStyle;rounded=0;orthogonalLoop=1;jettySize=auto;html=1;" edge="1" parent="QVFtLVlcKrwCf3kHJC9H-1" source="QVFtLVlcKrwCf3kHJC9H-8" target="QVFtLVlcKrwCf3kHJC9H-10">
          <mxGeometry relative="1" as="geometry" />
        </mxCell>
        <mxCell id="QVFtLVlcKrwCf3kHJC9H-8" value="" style="aspect=fixed;perimeter=ellipsePerimeter;html=1;align=center;shadow=0;dashed=0;spacingTop=3;image;image=img/lib/active_directory/firewall.svg;" vertex="1" parent="QVFtLVlcKrwCf3kHJC9H-1">
          <mxGeometry x="340" y="250" width="30.5" height="50" as="geometry" />
        </mxCell>
        <mxCell id="QVFtLVlcKrwCf3kHJC9H-9" value="" style="edgeStyle=orthogonalEdgeStyle;rounded=0;orthogonalLoop=1;jettySize=auto;html=1;" edge="1" parent="QVFtLVlcKrwCf3kHJC9H-1" source="QVFtLVlcKrwCf3kHJC9H-10" target="QVFtLVlcKrwCf3kHJC9H-12">
          <mxGeometry relative="1" as="geometry" />
        </mxCell>
        <mxCell id="QVFtLVlcKrwCf3kHJC9H-10" value="" style="aspect=fixed;perimeter=ellipsePerimeter;html=1;align=center;shadow=0;dashed=0;spacingTop=3;image;image=img/lib/active_directory/firewall.svg;" vertex="1" parent="QVFtLVlcKrwCf3kHJC9H-1">
          <mxGeometry x="440" y="250" width="30.5" height="50" as="geometry" />
        </mxCell>
        <mxCell id="QVFtLVlcKrwCf3kHJC9H-11" value="" style="edgeStyle=orthogonalEdgeStyle;rounded=0;orthogonalLoop=1;jettySize=auto;html=1;" edge="1" parent="QVFtLVlcKrwCf3kHJC9H-1" source="QVFtLVlcKrwCf3kHJC9H-12" target="QVFtLVlcKrwCf3kHJC9H-15">
          <mxGeometry relative="1" as="geometry" />
        </mxCell>
        <mxCell id="QVFtLVlcKrwCf3kHJC9H-12" value="" style="sketch=0;aspect=fixed;html=1;points=[];align=center;image;fontSize=12;image=img/lib/mscae/Azure_IoT_Hub.svg;" vertex="1" parent="QVFtLVlcKrwCf3kHJC9H-1">
          <mxGeometry x="520" y="253" width="45" height="45" as="geometry" />
        </mxCell>
        <mxCell id="QVFtLVlcKrwCf3kHJC9H-13" value="" style="edgeStyle=orthogonalEdgeStyle;rounded=0;orthogonalLoop=1;jettySize=auto;html=1;" edge="1" parent="QVFtLVlcKrwCf3kHJC9H-1" source="QVFtLVlcKrwCf3kHJC9H-15" target="QVFtLVlcKrwCf3kHJC9H-16">
          <mxGeometry relative="1" as="geometry" />
        </mxCell>
        <mxCell id="QVFtLVlcKrwCf3kHJC9H-14" value="" style="edgeStyle=orthogonalEdgeStyle;rounded=0;orthogonalLoop=1;jettySize=auto;html=1;" edge="1" parent="QVFtLVlcKrwCf3kHJC9H-1" source="QVFtLVlcKrwCf3kHJC9H-15" target="QVFtLVlcKrwCf3kHJC9H-17">
          <mxGeometry relative="1" as="geometry" />
        </mxCell>
        <mxCell id="QVFtLVlcKrwCf3kHJC9H-15" value="" style="sketch=0;aspect=fixed;html=1;points=[];align=center;image;fontSize=12;image=img/lib/mscae/Stream_Analytics.svg;" vertex="1" parent="QVFtLVlcKrwCf3kHJC9H-1">
          <mxGeometry x="600" y="256" width="50" height="39" as="geometry" />
        </mxCell>
        <mxCell id="QVFtLVlcKrwCf3kHJC9H-16" value="" style="sketch=0;aspect=fixed;html=1;points=[];align=center;image;fontSize=12;image=img/lib/mscae/Azure_Data_Explorer_Clusters.svg;" vertex="1" parent="QVFtLVlcKrwCf3kHJC9H-1">
          <mxGeometry x="605" y="340" width="40" height="40" as="geometry" />
        </mxCell>
        <mxCell id="QVFtLVlcKrwCf3kHJC9H-17" value="" style="sketch=0;aspect=fixed;html=1;points=[];align=center;image;fontSize=12;image=img/lib/mscae/ClassicStorage.svg;" vertex="1" parent="QVFtLVlcKrwCf3kHJC9H-1">
          <mxGeometry x="700" y="259" width="39.53" height="34" as="geometry" />
        </mxCell>
        <mxCell id="QVFtLVlcKrwCf3kHJC9H-18" value="" style="edgeStyle=orthogonalEdgeStyle;rounded=0;orthogonalLoop=1;jettySize=auto;html=1;" edge="1" parent="QVFtLVlcKrwCf3kHJC9H-1" source="QVFtLVlcKrwCf3kHJC9H-21" target="QVFtLVlcKrwCf3kHJC9H-17">
          <mxGeometry relative="1" as="geometry" />
        </mxCell>
        <mxCell id="QVFtLVlcKrwCf3kHJC9H-19" value="" style="edgeStyle=orthogonalEdgeStyle;rounded=0;orthogonalLoop=1;jettySize=auto;html=1;" edge="1" parent="QVFtLVlcKrwCf3kHJC9H-1" source="QVFtLVlcKrwCf3kHJC9H-21" target="QVFtLVlcKrwCf3kHJC9H-26">
          <mxGeometry relative="1" as="geometry" />
        </mxCell>
        <mxCell id="QVFtLVlcKrwCf3kHJC9H-20" value="" style="edgeStyle=orthogonalEdgeStyle;rounded=0;orthogonalLoop=1;jettySize=auto;html=1;" edge="1" parent="QVFtLVlcKrwCf3kHJC9H-1" source="QVFtLVlcKrwCf3kHJC9H-21" target="QVFtLVlcKrwCf3kHJC9H-27">
          <mxGeometry relative="1" as="geometry" />
        </mxCell>
        <mxCell id="QVFtLVlcKrwCf3kHJC9H-21" value="" style="shape=image;verticalLabelPosition=bottom;labelBackgroundColor=default;verticalAlign=top;aspect=fixed;imageAspect=0;image=data:image/png,iVBORw0KGgoAAAANSUhEUgAAAFkAAABlCAYAAAAms095AAAgAElEQVR4nO29+bddx3Xn99lVdYY7vQmPAEiCgAgOEklxHiRTkinLsmWLkt1tO5JtOYmHZGVl6l7Jv5A/IPmhV1bcK7Hsbsdye2hFctPWYFmWLJKixEmcRZAgQHDA+PCme+8Zqmrnhzr3vQcIiiGKXKTlFHkJ4tx7zz3ne+rs2vu7v3sfUVXl/x9v6TBv9wH8cxju7fph7V6zIYCgoPHcD4rZ8YkLvD97TwRNe+j29c4ZbxvIcC7QdmvLhT83Gwm8uOPbQroh7Tlb3klD3j6brLN/QUB3QLMT/NmfgW040ysi2n1S7NYs1u79dxLQb+tMBt+ZCAti8SSQZvMUEmDKNsiz9y0GIxcG850EMLzdIGsHn8Dsdo/dK22ZzV5FOuiEbft9LpjyjrPFs/H2giwCOoNxG0BHZxI0YghpsZPZZy4Eo9ne3ztwvI02GXRrzpru7yDaWVf1EBuQAE0NLkdVwFhETAe6gCrBR2yeM5vHIvZtOZ8fNt42kJVzFziDdgtZgOjT7NUAJs32OjowBt+02LzEGWhbT55n3Y4iRiAGj80K3kmG420F2TNbxMCpAm0CN0bUZEQMHks0cDbCI98/yWOPPM1H7rmTqy4fUBhBW+g7KATq8QZlWSB2ZnDeGeNtBbklgZwDRn0yESJEHFO1VAJTge8da/l33zzMUy+cZmPlBJctzfGh2w/ws3deyfW7HQOBvkIRPb6pyHt9fqJBnu1MZv93XiSx0ydou7czFBNbwKNktFjWxfD8euQrj65x3wPP8H32s3G2gtLgpmfYXXj29Rp+62N38YnbSsrWMKJiULhks2c+yAWshpxzxtotwBc4l3M/+EMW3X98vOkgz3xcQ0QIya5uRQkZofOHA8lciEJfPVZrEPDS5/Bm5EtPHee+x1d45Mga6yGn7S0l+zwdU4hifURDyygT7rxmgV+9azc/e/08u40nCxOsK4nREZ3BSzoug2KAPAr45EFKHrZB3hkyCqjEHeeT/nkj4y0BOQJCwOCRmQcRDT4IrWQEEaKAE8gFiBGMYRM4tBr4N59/nH94cZ3X6x51voDiIEyxLrLU7zFd32SzNmSjPbQBXLPC7vAqP3/9HP/qV+7gxkWLrzyul9Eq+Kg4G5OjGA0uGGwXGqoNiCio2XbQRUAUFcWjKIrFYHljXstbYJMjihK7ubxz51bBEBBtk/0NY1SFteISHltV/uhbJ/j7p9d5fWWDEBVnLUEFEUvOAA1Kgyc4RR0QG8RPKZ2QhxZXN1yx0OfeO/bxi++/lKsWhaG0DGKNRIGYg82JVpkSMGLIEAySTIGe65Ps9H6EN+6Gv2UzeRa9zYYGKGxEmylCgzgBKVnVkj/45sv8r/c9y9rcNWyMFfICwhSRiIaAUcOytzTTiqlVfK5oERFpyApLO2kImxGW9kHr6TUnuGqh4b/7pdv45Rvm2SNg6wDBQybEoqWiQsgo6CPdhADZNgja2e6dKL/BtfRNB9l3LwM4jYgGRAKqikpGo4I3hpNj+PqhNf7iwWM8c+Q4EzvH2cYRXB+kSDszgK/ItWJh8xTvu+EA112/myeeOc3DTz9P259nw/aJtgfFIJmd0CAyph9q9piWOy7fxa//9EFuP9BjuQ85AWETMS0Eg5EhYDsbPFuYDbIT5Bnr9E4BOXSvTBWJDWgFElFTMJYeawjPb8D/9cWn+U9PbbAml0CzTiEtzjqCK6mCBQwmjOm3Z9k/jPz3n/5pfvr6jHkD0wa++Hdn+P2/+jbH3W4mw11EI8Cke0XwJTYMGJqcojrNvXfv5zc/ssyNyzCH0gsBGg/ObsfzJnY2IVGnHernMqpvYPzYIO/8uoigwaP1GGMNGCGIJdiMs9HxzOmGrz63whcePMrhlQafLxM1h7YBaxGXEUPExIa8Ps1VvTGfvOUyPv2zV3NgV4GoJxODkLHm4ZnjFZ//1knue/glVqIj5gU14I0l+hKyBSCDOKHHGQ6OpvzqXXv55ZvfxcGRoQhQWo+YCAQwkUjEuIzZ1FVMWhR/COP3loN8PsBAWszaTaJkeOmzkRWsiPDXT3r+4u+f45EXX8cXi6gridWEQdGnosAHB4XDVquMxkf5hesW+R/+5W3csrekLy3oBhCJtqSlj1dLBJoIjx6Z8NkvPMnXnzpNu3Alk2xIJR5MA9pCZqFtWbCGUbXGgYHymXtv55N39llCU8RJcjtVZ6DDjP+LGASLeTv85BjjFsAzkGOoie2UNh9wymQ8eKTiT771Kt986jTrMSe6It11GhmYQKimaD7Eh0i/XeWWy3L+i3sO8gs37WZXFimMQWOD+DWwBnVDxmQIkSxOcBLxvsdrVc5fP7LK575xnKdP19RZIJaeIC0eh5M+YRopnJC1Z7ns0pJPfuggH795mct6hhHQi0pPlILAzE6ovANA3gmwqjIFzgKvVsIf3vccn3/gEKvuEkLvEtogEBSaMdYKJnosgaxZZ2/R8JmP3MxnfmY3ey30Q4tkDhVHG5UijsFmeJsz7ej7XhjjpEWjpQlDJrnhWBv5o7/d5K+/+RCvrKxi5pZoshFaDKl9C80G+2/ax90fuoL5MtKfjnnXXMltCyVXGJhXZURyN9GYfOkuz/hjR3w/DOkOvo5g76jy86LQmbvmVXmpivzJ42f5q68/w/GzFVPTp6Ikmh4hKCbLMKpo8OTaspTXfPzW3Xz6/Qe4aa9lQYCY1vi2acizLNlDB0ETp6ySftAqRO8xJiImojZSYTjuS544Ouar3znJ1x47zbFGaOcKlg4OOXjrbnbv7aPBgwZK5xi1DVcIvHeYceMgY5+FnoJNYWJa/2Qbj3Mpgx8M3c+/FKIalS4ui+d9cItOVw++BslRk9OabZBbTev5VOCbz2zyf3zxYZ5eK2jUgs3xWNo2xYDWpGDEqEd8xc9eKfy3n7iR2/bPMRKhpyB1TD400q3m3S9JOpkWiN0i5DRitUsUSpp1jSo1OR6oovLoK4E/+PYRxgf30FwxxA+FLCj9NlAES9skh6IIMGpq3tPPuXPJcG0Jc0AGRNlOF+SQeJbYgs0AR5DtoOtCnp6oxhlNvh1V7rhi0qXgfdOgWDJnUYl4FWpjWY3Ck8en/McHjvP1J45wNpZsxh5tNKgtEAVjLRJrXLvOMG6yfzHjkz9zE//iliWuHUQsQmg8PedSZDa7Q8z2DELTwafJ4EGUqAEVwYjBqMUEASNUJpmsl33ge+ue5yZwUhwbzuIFFEUIuKgUGokkb8JF5czhDdaef4Eb5gt+7c593HrZPAumu6CdiTPd73q1iHOEDlirKc4Fs0PKABLPMxezcxKdGf8IZIwRclWyWEM7IZTzvDA2/OHXX+CLj77Cq5vCRDNsOUSlIEpGuzFBRvMYatzkDLtZ4VfuvpbP/MwBDs5nlKoQGjKX4bqDCqHF2mzLLOzMnbjO0yKme9k7mGJoUDIVeqRg4pjCAxvrPFpPOKKGqS/phz69xuEUQgnjQom2ofQ1ND1WzgjffeglNk+NCZMJPeO5tqfce3A3/+PHr2O5r8RYISI456i9QuaI3XpUQCK5YgumTPZthmXoQDZbwpEfCIgBy7gFlzvaEFlpDF9+6jU+980XeWpFOONLxBaoBow4fCwQa7Diod5gl5twz3t282t3v4sPXV2wGD2FTkBKlJzuAPDETqQyu9zaASxkM8R3hLoRpRWorDAWOBMjR+uKB9c2OTqZUhV9YjEixpw8GpwH00aiRKJVgiobZzc58vwJjhw6RV0VIH3EZWhVUfia5XrKDUsL/OqHdvOx2y9heS7DBCUzQusDNkukkWPGibcg2bkgt6qakpYz8nHncGh3AzQIZ4GHX2n4N198km+/tEocXcqkCpiyh8ZIHE+hPwIvuLCB23yVmy9x/E+fuYv3HxgxLzDnFPFTJDRELTG2Dy7ZPU8kSEA60saybd9E6YjKtCBISNuDgVeBJ2rluxtneK4aE0aXUmDJvFBNoDbQFIK3AVdPWaxaDuYDBprxpa8d4v7HnsbMLVG3FvIhZrOlt7TMZG0dLDgn7DEbvHcx8nufvJV7rh5R1J5hpohRkBlOimpiF3d6ItKqqgVEO5ZXlaiGaBxeDB6ogadPNnz+oVf5wnePcNzP09ghsW0gs5hmSsSixZAsevLJSa5cEH7lpw7wqQ9ewf4euLqil4HGgEqGGtetVYZIJBARO7OXilVBIuAFrBBcSPwzGYIQFNYVjjTK46stT1YVr1loe33i2JFFyBxEA02mNFKRxymXC9ycl9w+6nG5EY6vwRe/8wqff/Qoz5+taew8mVugGVdI7ogugFNolEEI7JXTfOLGJT71gf3ccOk8/cx05wBBQKOSGzmHFBXfzWTRBlDaNiKuYCKGqcDJDeUv/uFF/vi7r3Oq7TGlxEcLIZEx1gZyqzRNS573KFeO8rs/915+/WMH2FNkDBQWs47eJJFEibgXrELW8QIpC9Gl/6MmgDVLroQq015LAxhyaoQXp/DY+oRnas9rOJqiRBFcEMop1AphkNhNP1ljyU+4ZWHI3XN9rrKW+QhFncziRmF4YqPlP3x7k8/97ROshwG+MWRLi0TxhHYKbhGCJQtnmJsc5dq5wIdu2Mtv3HsX+0YCTWCUWzICgj2HFpWgqslUpIXOa0Ylhtemnu8e2eAvv/YcD7+8xmvlfkIwED3iLMa4tP6Emrw+y1I8y51XLvE7P38j91w9ojSKSGJqm9aT5e6HKiYEtjPVaFrYtLsFu+WhtjCxcNxHHhlP+N7GJq9Kxllboq5HFg1SQ2GSW+kyCFXDyFfcMHDcNSy5oTAsGyXTCBJQ20CsCVrgTZ/TreE7Lwf+7d88wpMnI6c2Bew8Rno0zqEOTKywsSILE/J2nVvftcR/9oED3HvDHPt7BjaPw2AZJN8GOWrU5EmkvHGFZQ343/7yCe575GWO+wFjt8BEkyEvioxmMgaTQ93SzwNXD6f8q4/fyL3Xz7Gct9h2CnkPlZxpEzC5Q0yC2Havnf78OSBLsr0thpY0I6NALfDYmZqHVtc4VlpO5zmVyRHNKYNQ0GlgHNRaUU7GvNsVvH++xy19y54ImSedZxaINjKRdG/0NGKjoNESTMErLdz31Bp//JXnePGEoLKLiQ2EUmlaRaOFooexkbJdZff0Jf6X37yJX7l5P31ZhWxum64F3DbA6eQaYKWFx4+eZcUscooRaJ/cNaCeZryBM0IRN9m3nHHPdcv83i8c4Nq+YRQ90raEYojEFHaXzqAxaSJAEkfbqYHYAngbbcVQI6wLVMCawLFpy8PHAyeCsMqAihKJliIqNgolYCRQNy15PeV6M+WGxRE3DYfst7AQFAmKWkVNJBqIWCQOiFGI1mNihWiF08A+m/Nbty/ywRvex3/421f40gOHeLUSNuoBRTGiNjkaIAbHNGb4cpGTmzW+yNCmh5yXpnLbp7rttrkMNmPBWErIRmByfKygmTK0kWK6wi/ecRW/89H9XL+nz4IF40HFUeUjGgM9ARcjEmOKkEQSuJIlV1d2+L6zOS1CK8ImwgZwqPE8fnKF15rI0XKZxjh6bUHhoaihFUGzCKZB6k32GuW98yM+MRix5CyZJGattQGxEGb2UtNi5bziBNomI2YOI4rVgFGh30autIZ/fe9+fuHuS/j3X32Rr37vBKfHY4rBHiq1IBnWOTankWgzWmBqBvTPy1M538lOs5jSPSWWIRCLEVUzRUyNCljJkfYkd+zO+O0P38En7tzNoHNXSCY0edSqZAoWwaiBIDTW0RjYVKiCElVxJgUPA9OFrhppVNnEcKhpeXQz8vxmzYrMMS0cMbdkvpsOBqIDLwGJE5bClBtHjjvn5rg6c8yzU+S3LQGbJULNjPDJZPsT0sW5krIixoAV6AF37epx06+/l7+5dok/+daLfPnwKWxvmWBzfMzxxQIlwkJUrJFtG7g9kyVlMkgcgJF0gNodnMET1NBqZM7Ar338/Xz0PRmjGHEoIikvPTtYEyOZT8xca2GjEF6oAy+sVxxvG85UDR4oi4z9NmdflrN3LmdkHWdD4MW1DZ5emfKqz1lzfUIvJxpBEp9DNIBEMj9lPjTsHzhuWlji2syyW4QumXTeIvtDSEo5548f2D7jIVz6ST56y2WcajO+8sLjKWpuKsgGRLEprI4RxP7ADi9a1SlGIbb0C0eIYJwkXkMVM5sFxLQtGOoCXhbl/rWKp8YVrweYZhltmaXbXJVnVysu8WP21HPMDR0rGxOOrawTR7uY5CXBmSRdDkpshNKB+JaiXeXKgeXmXT2uG/S4BCh1W8v8Vgxn0tphUAprGbcNkg+3AtAIqOku5hsDWVHfUDhwRAaZxYRZhGg7bUj6KbVC3TMcip4vnTnL4y2czoY0WYFVwca0+KlAmB9wNkROVp44qTF5n3DJkKkmIseQcoW5eHIMvWng0ky5ec88Nw4yLjPKPA0uCkSDmjSL3goFrXql54RhkWFimky6w8ePdGTWBdJUFw2yFSU2Nb6pQfvpRFTTfdQl1AGmYjiq8A+bGzw6mXBmdAmt6dFrYFhD2aaD8TbxDo1YXGnBFFQKVQS1yR5mMVCGMYMwZaSGG3ctcOdizsEIIwVpamwXr4gF4yWFXcWPkZC7wBAFYkTU0lY1RpUiy5k2FZRFh9A2oXW+ubo4kLvbpMwsmZ1F5TNHNylCVFMOvcbw3HrNCyfGyGgRqyVaQdkB7IDGReosohhMFHxQNArOQAnYAK7xDNsNLjETDs7nXD+3wAHruBzImu7a2gJFaQErijOzG/fN17Y7l+RlZWZBPTF4yHs7IeJ87f/Wdy/qFyQxdNrJWo0hBWfpTWa5Aun4hMOTyGooidojC4YsJrJbLVQ2slnUbJQtmXf02qwTfgsmWnpRcHVgURuu7udcPxpwzShnNw19nWBrC5qn5X+m1JfucEzoNsedMpU3bUjyMjGqiGjCY5ZTgB/wKmbjx7jks8UOVAU1iWNY8ZHna2Wt6BONQzu3pnVJV+ZtyzQLtDakmawBqxEbk19t1TLnhKvn+9w2B+8ysACU3mNECXnWsflgOmuVmwRyK+nqF284G3dxQ2eIdtVXorMs0oXHjwzyDhFA4n7VJA4HIaKsqXLCWeosw1gIIRJFCLKtjyzanLLNiV1KSbq0QRTFG2FThSPrSj1WjuWRa+YMe7M+hUkHHDX5130SkSSdvx5I2uY3fyRTGKXzX7bOZZvcnkWub9y70K1kFNtpxB0zmWQJgwqqUMYMFwyEQEsg2OQzqxqyYCi9ULbJ522NgljUBFoxTJ1hw8K6JDLoydVNHlgP7On1ubKfc93IcsAm8yM0YHynnMjJ0tVmS578Zo1uX0rivfWcIrh0RyUm88K/e9GXPZUWJGbMdi6YiNnKas70v7lCGVISsxVFckMU7bQL6extBBeS5NuYdJAxWqIVGiM0FjYi9IyjNCPqGDkpGc+d2uTpEw13LPS4dTHnEpfRN4pRsCQJbKKgk0rTqZzDiyTAIkiqGFQMmkKNbe3beeDOlFqzrxuUIBkRu+VSeMm64M13+/tRvYutDKClVkdU6ThgQcWCSfOoBXIii9ZSmsB6DLS9nNoqIUKmQhYgC+meqopIk0WCVbIWTDDYaMm9okawUXFdRrlvLWsGpvMDXvAlr29OeWLa8p4y49alkiuy9NvoBDXQkpGRYdUi7RY6Sd7GLFHYABke1yVBOSe1tX1RUpprFjU6FE+JJ0kbIkJjyg7kliDuB1TMP6IBm4k8ZiMRF9vZOFg0wv62pWprmrmczaolyzPKNpkIF8FbaKzBqME2yf2TLgrMQsDVkryHzOJzWI2KaRMhr5lj3B/ypJ/yoq94cqPhruGAOzPLPh1hNhrKfrp/RRNPoJLWSm8g4jAIrpvBVrv7a3YSO8DdDq8N507y2ZvbRji9rxeMON/0VWLBKbct5KyeWOPlTaUcDJOp6EyEQCKLcqEIkAXACdEorqkZSWQYLPW4YdNENsuMKndkRYHWCYwpQp33mbgea82UM6+uslr2+cCoz1V5Tha1y2oHcBY10Ai0HWoOi1GL27pLu2G22O1tOLvZLedu/pHGmw5ypp5rFzKO+ZLj6+vkgx5jn1LnTadGrTIY54p6STgYRdqKhVhx3WjAbbtyNiYFr008LzVTjmxuUrmSICXG5dhZaOUFY/pMsoJvr044WU15396C92UmCWWMA4koIeUNd8xeu7V26YyU6FJgs1lpMJ1BntEAb3S86SALngXnuHn3HCfxPD3eQHNLNBnTbBZSR5wGgnH4Tvd2iZ9w61zJ3Us5SxGKUqj7GadDxrGq5Mlp4MX1Dc42hrycw6jDKrgW1Fgm8yO+Kw0vrk3YrBy3LpbMCQzU4EiaO9WAkiFqka0VbdsQJ78hAW26ypet7PgP8RwuZlw8C4d0djOZy7RIXMgCBXIarjAF9+5d5vKNyHdfX2Ut71M7RzTKoAnY2uONR6uKK2Pg7uV5bp/L2I2Sdyce1bBkhCv7OTf34dBcyXdOr/Ps5Cxr+QgtclorSb0v4F1Go/DXKyuckGXev+C4TGAhGEzwKRIUBcmYccdqLGhAmVU6zYLjN88HfNNnsonQF6WIkQUx7BkY3nPlEo+utZyJkappyZuWYQTTg6XlATf3Mq42Qq9VTKyS8baCwZLjyKMlV2EuE/ZdOs+z05aHzo45XI3ZLPo0zgEOFwUh4/W5BR7YGIPr84FhhjOWAQUGJRrFk4Ij0WRAMLZTeiT51oXc7B+HQn3zwyNNbqhrPM5k7HHCfA6XL2esAjU5JUnMZzUdwKJCNk0SA/Jt+xhIXQLECE4NxsO7nLCrl3Fpb4H7z6zxZL3Bac0hG2GNpWmEzV5JzAwPnxhj/Yg7FyzzxmLRLeWx4Mikk1cBrsvM5Uha/3ae0o8Z3Lz5IItJascC0KSwKRV2i7AwI5JINs5GxWnASne22PT9LUJY8F343mhLzzlsVObayI25ZXlxxBVVj4dOb3KsGjMtBgRrsQGsyVkX5XvryuttC01NDC1CYFDkLPRKLs8M1/Qdg+7XjIKoYavPUReMdIHkGx5vOsgqqbopOkg3pscRyFXIcSiWRiyNQG4CVgIVygTFkpNjU5bDJz5CDbQCheRE9SABUxiy6NkdDT/dzxkuL3H/iufZOlL1DIMmpatMWXDCK4fXKrJeibgSiS1uGulNPPt8QzUquPqSHntdF26EuHWRZ2tjUH6sRMAPBXm20KVpJ1uktHa5wJlbI+d+CVSQre3J7d9ODM381ERtiiaiwSGUXeeWLSbLbO/SktxeY9JNHTVgjNJTKNrI+0vD/LIjnN7guSqCG6Gm020YxQ57hE6GazSJVIJXXlJhdVzxfAx8cHefa50hE0FoiFaJ4hA1ZLPcokmKJwGiEXTmj6NEa8F0keM/RhDtuFO3/yexmOdEnfCDbo1KSsE7ne1oS8qy9blztpoMSNnq7PyLtWO/ptt3YrmEKA5PxNFiVBi2jutL4czeHuunN3gtBqJJTpi1nWI9bO9PgWCF9UGPddvj9GRMthFYWDTMmaRsC+IJXWQorSB5+l4WEy+iZtuHFtUEuiT93vmz/p3Tr+D/YwiptMB0tKaSqJhgBXUQNQkQR9Zh1CUf+CKGUcAHgrM8d3KFZ9caNgyoFNiO0xCYucpvePyTAHlGEcxoXOm8Wi8hrZWZ4EU4PVWmY7jY03KANi3eZazklu+dXedkgBaL0RyHJL+6yxO80fFPA+TZ6DgZGwOFtjgCiicapRE4telprb3oWWciZDgqI0xHQ45F5VgbUh+OLioUPGpCVzfyxsY/CZBVEoOm6f5GQsARcUQMEIywBmyIsCFslRj8o/sNkV5maATWEcZlyUmvSQo/00cT8DRduP3GxkWDrGgqQle9cDT9Fg5FaWgI0qQmUN5Dq0QPrRpqYAM4Y6EqUjrsYoYYoW0V64RoLWosjU/h9ZY7dV4NhQjb1bcXOd7mDocXOxSPT7o7l4FYohMqcUyAE8BzYzjR1DR5QdleIMtxgSEimMzS1pFBz5CNA6WYbd2EzJzKHy/k+ycCMlgiPhpELK0znBU4qXCsajl8eszLlXLWZaiVi+YlgypiwUWlbCGbTNi1sJBAkdjhanHYHfKdH338kwBZgBxHlIwGwwmBx4An1muOrY3xU8WWC+SFwfqLByOQ/P8coagqdhlhT5HvAFkRLKpJUBjeMNXZtWhM4UFyQrVLqUQMOrM/uq1l0K3/ajpKkY5eSaHGdppMz/nGbCtbW3eQirr1M+d8Q7Y2Omo1vDKNPLTR8EDd8EpmCP0R/cKRtUL0YDtyabZu7Gx7s3U0s0OwqRLXRk/Pe9416rOYC04jKWsJaJbwNrMjT0ydaEjrFILMui3+cJAbWikRycmjxxBoxYItabIcjYponTLNXhHJqCX1YCOOE5niSgx9KgxW8qRNRhODtpW4nA3TwT/TSEgnFO/y6mqoiESTLpYNkInwmnH8/es1T5/d5MzckJP9EdPkwqJGqC14hZABtkkMn3dk3mK7Ln8KKaROzCjBKmig3Jywzzpu291nHjA6gVinyqss3+r+1TZgpaLPOrntc2azRge7URmk6i2SUPICWrjtNHquHsFg1eIkbGUOJAaMG2A10k7XsbKUDgJQVxKkSCyFhi4Entmw1L5AthUsWwBvxerddFXTFZcZwWIJpNK2MwLfX6/41krkeIB2MMLbDONhZBWCoEGT70ykqDy7ykjVRCa+oZackOc0mpJQIh1nUnsUT0HD1c7ysT19bhBh2Ea0ikivRygcLUrQgMNgRQh5j4kUjMcN8wuLrLYtEiNFdKCSiC/OtcNOZadOIJV45eT0qbHB440FbfFVRa+0LA5LpPGgQnRzjEmNyQai5FpBhGAHnTERAl0DU873F2cqjLTARLFbrXUCsKHwzGbkwbNneKaZsjG/F5WMfhCkjpSqRJdqQAoTcZsb7Mv73Lirz80DOLIOj62s82JY44zN8f1eajkeddUAABEMSURBVO3XBsrG0/eRngoHRkM+vGS5WYTBOKYJkY+oJU1k8DjZJLYF6nqsaslksI+YDVldP4PkNUWo6Md5uqpvcs4dTrsOrem/6Z7KgFI8uaaqUVXF5ko1rnns0CvcdeVVLGdDopkdSJfWj4kSNxq3ekTMwIYkrzLdxmRrU1atFUGNIQBjVQ7VkYc2ap7a3OCMMeTzewjktE3agc1ACOQuktcTLgmBW5bnuH2+4IDAsIUrhnD5YJ6nqpqnJmNON6uECKVXlk3G7n7GZTbjvYuOvQL9WpEs+djBQdsRhyWC9TC1jufXIg8fXccHk+7CYojiumreJCG+kCfhlOQXmtmJdwuXMwKabCPR4ppNsvllPvu1Zzj0+lk+/XM3c+OBkiULfcBEAUqQmKrotVPqnu+46/ZC1xrBSyoqrxSeaeDxxvPtM2dYkQwzXEBczso0smA6rZuFQItrpwwnNdf3+nxw1wIHjGFeodfVAA0MHDSwJyt4/zCnirFTOQmlCP2u9KEfAho0heMutdvJulveNynjPZnO8+XDNX/04Pf55tOHMcs3EKOmqyF9KhOojQMsJS3nFiyDMyl/i+3ky1Gybl3tyhSigOvhLZysA3n/AH/9woSHj9zPr31gP/fedjk37e2nz0qeChFDhRiTKua7XsezWgrtZrRICmfXFF5rA8+PG57cqDnUNFSjRUJWEGJqoWyNJbaRTCPS1Ay15d2jnLuWhrw7d8xpl4gxkapQNLY4MfTVMVBJ7R3UbnswHauWGOcJmveS/61JIWpViQEaKzz62pg//9oJ/uqJl1lxQ6rBZWkC+SYVdrsUOQZAxSGx7moWd4DsOjfEoCCWoA6PUFjB+glFf0TdeILrgbM0KGJyTkrkT775Kl//h6f47V+8k1+5Zx8jkuiwCEI7maYq1NyC+ERw24xWUs12EDg2gWemyqPVhBfbhqktML15spRHZRrSejnXA/EtZb3JwXLATy33uD4XLpkKRdV5oEVkE8+UgDWRAk39J9R20qFtQlu6VxRFJU/tFYg4LE0d0Vx4rYZ/+6Xv8+ePvsxRnSOUy1hTpjUqtEkyEBsyGWPXX8E0l6eujlIk9m7HzSuqjW6H5kKLY13gb55d49//3Us8e3LKiQn4bIkkrU5C6+A9JgYGtqHcfJ3bLu/xO7/4Xu44uJflgSGTRGZnJqC0REmS2EYKVqNydL3i/o0Jh9USvAVX0mQZVUxSrmFQcmIqPaNmX6ncOCq5aZhxZYA531GfBtRF1AS8pJZjs1zCrD3TtmqwWxskLa42OlwEjUq0Sk3ktUnk755f4d997RCPnGqoe4ugNtW61BafDcAFinaFod9kTiL3XLXAv/7ENdy4b44NhaGc6110IMfOQ7cELJvAROD4JPKVR0/xZ195hMPVAtHmqEZqL/i8T4w5Iko/a+lPTrDHbXDHwT18+t7bec/lGblCblLVf4MwBQ4H5dFXzvLqNPJav+RsmdGLOXlrcDHNYOvAxRazscIlErn50mWuG1qWrWGRpBo1mmZiMIpKJEORMDNvMRX+sP2K5/g2qX9sFgQ7hdBT1g3cf2zC79/3IA+8NGXd7UXdqGs9CVnTIq2hKedw0+MsxdNcu2D59M/fzSduHHJZIWQmMpaM8nyQo7aptloBHDEm537qQbPkP3//pPLHf/8CX3v4MJtujhVfMtUcLYYpOT3dQCTQc+A3T3NwaPj4T1/Pz925i/27MqLCqcbzzMo6399oOeVGSS9BRLJO7eAhi9A3SlZPGPlNbl7sc/uuEQc0MlQlE+m6ryfplVfFiMWopDxGNHRpw84t7HTTXSTbxX9bi7wCE4UnT9X86XeO8sWHX+J4M6SVRawWWN+gpeB1StEGYjC43HB17yQfu2GZT/3sbVy6ALtUyaopNo+0kuFMxs5yCgkaUpcATVd41vZJQp2EgG1A8yGnKuHps1P+9//0Mt98aYV1ShpJrowJoNkIdSNMPWHgz1CwwiXzUz79S3eye/eA186ssFmOWCnmOZk5Npyw4GHYwNSBLxQJFb3JBjePRnx4lHNFZuir0hPo+wZjDcEoVScdLDrhoEQHkrIjQZILumUTO1MoO5vRdJtPROWzDzzLH37taV7hMibtAiLzuGAp63UyWxMLmEjLgACbZ/nQHe/hf753mevmewycoY0wEMX5GgnraO4QM2Jn1lKiqm71OJ4Vop2nJCcaqFKp7cuqfOGJY3zuoUM8d3rKWIeoH6AyB6GPCR6TTShGG1x6Tcl1N+5h2MvIpUftcyqbM+nB2EHpoWwgi56hX+XdWeR9833uHA4ZqRIFxiJUwCKQaVoJtzLms5WsoyO31rbYEKIBawlBcWIwKThk08OKRr79/Cr/9zcOcf+xTTZkRCyWgAJUsb4ij2Oc1kT19Pp93re4wW/e/S4+cOsB5m2q0nIK1nS9OUzDFt8hJTsNxsU139NIU1dkWY8xSmMNRzZavvLYKn/2d49wZD2wbgfQmwMm7LnpMm66aT+Lo3SSraYUOl39tcQGiZ6SQFFP2RuF2y9Z5OahZckaSk3euiWVjiWZ8Uwb3YU2Ox+01elaU4SZ2pblAnGyiXV0HETJunN89xX47Jce4f6njnLWLTLOd6FBU5uXMMv7Z0izznI+5XK3yb/84PX86vt2c1nPUdhk7ItZ+p9UlZuyvLPn+sx6ff4IIAcCY63wwTNnRmidRNGtgyeO1/zRN57lW68cp15a5F0/dT29fUNkKpgKUPAFtKXitaGMkSWfMapgl1nj6nnDzQuL7DZQxE4uYFLZgFMl1whBUZfhZXveJnnAecSTpAcdTYJSADk1VBWVG3BoI/K5+0/w5w8c4nRrkbxkKjmN6aHR40QJMWKNoTCRS3ueu68s+d2fu4obFgsyY3AdsDNJg289eebY6hq9xc+cG4xcFMgezzpjCgy9kGNqm2xHDe0cvFDB85N1XgyWIxp4NUaEEWJs4gAyCHlLppF+a8lOWsaHK+7YG/nE7QMWgcLDQpYehWFM2NIzEA2oIWTSFRnPmpJEtsxcOhW2RDgxIsYybpXKCX/x4Aqf/epTPLcmtOUyUSzNdIwtcrz36UEwsUXqDXZnNXccGPLbH303dxxcYKCRngFn092SqlNTob/ZafhlRrWZ87zkiwRZ8TShIgZP6XoQDBItRCHYJOreFGECfH+j5Ymx5+jUs5IXrBohWCEXyKaGtVcqjj55htcPr2MnL/OxW3bzX3303dy2d8gCkdzVYJvul3MIvcRbZWzVW1ud0ac7mT3bgax437JGxgNHxvz+V47ywItnmdp5NOvTVjWS9zC9IWGyhmFKpg0jM+WmS3t84qZl/vN7DrCIT4u/LWnFEbwnQ7E2tfmZNYO152XHZwmrHxlkVNEQkB0ij7BD36+kq6qaaqtf9cqT0ymPra5zKptnIiUrxwOPfesoq6en1HVi+zJbkG2uc6kb83PvXeA3PnIdt15RUkhLRovEFKhYk6MWQgy4WZlS6CqYTMqYBEncRg08caLhc197jq8+dYbX/IDK9NEA1tlUO2hKsAPEjynqV7ly2PLrH3o3v3TLAlfOZYwcmC1TZIgiO3KG3YyWGRbnQvpjgLxN/aqBWYEWKDYVW6VbO4AaQy2WM6K8GiNPnKn50799lm89dhbNLqehSEw8E+y0QLSPLSfo9GWuWoZfvvNqPnXbFVy/6JAmhX81noHNkdhxejGgxhLUEIyhFmGqcHKt5WuPn+T//MYRXjg1xecDKOcIWJxz6UEvThAfsNGz3FfuuXrEb3zkWm67FOZRstBgXCqlS3bfd9y5AzNrdLOdI4HtyZYAPeevFw+ykpSNsy/PrtRslRfpIkaNRHXdg7CUIMrpAN88vMaf3H+EbzyzwtgsgCmIbUtf5mijo8lamDNARe/kK/zUZUv81l37+eiduxmUHrXCACWPMxViss/jSIpOjfDQs5t89s/+lqPrhlfzA5D1CG1N1PSII1wJvmIhaxltvsz798/xu/feyi1XjBiUsiWJjAFK2zUSUZ8W1xgAC2Zb16c7wN1OkXXz+I2C7Nm+ZlvVl1tjVl+hBFLU5aJCU6OlZSyWQxV8+cmTfP4bz/PaKUvUOU6j+H6JhgxtAJchscaEVRb0DB+6Zhe/+4lreO/yiEUr9B20Mb3UwmqAF05v8tn7DvOl7zyHW7qCde/wpti2mb0SLwYjQt6c5bpBze/dc4BP3bmPS2wDNETbZ6KWWoRCoKea+m4SUTKiyTrtctcQ6xx7oFtly7Oo8lyN9cWCPPMHZzBLTFxA982doAcinkgmLlX/R8W3kVphnDteWKn5jw+8xt88+BLHXJ+NYLHaI6NHqJVs2KPxYzSsMtQJy6blX3zgBn7vnsvYM1CMFbyBl04G7nvoWe779oscnfQY9y+laguiLcCn1uwmz8BXOJ2wqKv8+oev41fvvJyrFwt2WVIvURSDIcSuSqptcEWP5CBKx6ylAlEzazvRnWxqJjF7+hpb0SX2Dbhw6T6KW9N4ux+tbBXzmi5IVAlE41HNCMEkt3z24wLTDNaABw97/uCrj/P06zUbk0CIJd702WgjlD2cE2hqSiJmfJrreqf4rV/7IDdeu4dHD23w/3z5QV54fZ26WGTTzlPni+BGIILxa1hfkVEzjGt88NpF/uuP38Atl5YsynZjp7aDotCI+AnQJpMgBdHks4eLYkjR3Wxu6jkx+uz5gTuwMjNBzI8C8uzLsEW8nz+2zYduSQrO3Z7GrDQgAK9PI9949iyf/8azPHF8g9NmjnUzAk2VHM4amGxSWkGpsZljcdcu1lbXWd/YpBgmrpsQcXmefjsETKzZXUauXoh85iNX8uGrl7l8YCjEp1teMqJsPxTU7FzZt4D8QQXbhcvMLojGed97Gx8VN9XUxuz1Cr744Gv85QPf5+imYepGBC0IAbIsJ1QVBVMaX6OuAFcQZj3SFEyeoSHVhQzyyHXzDe+/Zhf/5Sffzb4C+l4ZmlRakRr/zUC+UOetN3+8rSBHVeoobIQUFT51ouIL95/iW08d5eXVmpjPM1aLiMWFKdY66miQrCTa9EwSS4tpKlyYcNmuEbdeucx/8+FFbrh0QN+ATmv6VslcR3R2IM/UQD/RIIMS2klqPELJeiVQpE63979Q89n7HuHp1zZZ0YLW9Qgxw2Ql7Swx7Aw2VGT1Krvzlhv2zfGLH3g3v3DLPPskYkPAiOIMbC3aXYlFFLuz3vQnG2SoCG3V5SlyghZEa5gYeLVWvvHcWf70757jhdObrLCb2heQZRhNz9yb002uWTJ86oMH+eh793DlnJL7GsFj7fYDmUG6QGI2k7cXmLe2kU73K2+fuZgtf22K5KJ2AU1qYD22wjqwKvBHXz7CF75zgtMTwTc1TgJ7RwUfvPFSPvPRd3HdHMz7lowN8JOu62uW+nGQHjy+vWbFrl8/aYu89QbjbbXJM8me04jElq1myepQlzERQyWwFuDZky3f+s5LvHj4Za64fDd337qfGw4usGBS4rIfGoxOQQPq5lJn8h2PptgOpGYgz0zIOXmUt2S8zSBvd3HbehBtlwpL3QozPIaJF6xLRGIdUrGMFbaaj2YkQYrpKgGCObd1sNn6c+bTzjI//wxm8syHT251N7c7AJJc1aJd+0Il9aVLGZps9jQPjEvuWNTtylGRncCSeGftMiqylVsB+Mm2yVshaBdSdc+GJaoSYiA3qRGv8YAIdYy4TDAiNJur5AYkT75yyrBnSJZ36qRZVnrn/QIJ9tTgZPZgxp9sF24GMHR8wFYSp3tfIUQym+RV0ZCSonbW7XYHeLNbXgzeR6yzO/KA52dPZo9/27bTP7kg/zMa/y8BpxVjnUuOmgAAAABJRU5ErkJggg==;" vertex="1" parent="QVFtLVlcKrwCf3kHJC9H-1">
          <mxGeometry x="780" y="251" width="44.94" height="51" as="geometry" />
        </mxCell>
        <mxCell id="QVFtLVlcKrwCf3kHJC9H-22" value="" style="edgeStyle=orthogonalEdgeStyle;rounded=0;orthogonalLoop=1;jettySize=auto;html=1;" edge="1" parent="QVFtLVlcKrwCf3kHJC9H-1" source="QVFtLVlcKrwCf3kHJC9H-23" target="QVFtLVlcKrwCf3kHJC9H-16">
          <mxGeometry relative="1" as="geometry" />
        </mxCell>
        <mxCell id="QVFtLVlcKrwCf3kHJC9H-23" value="" style="verticalLabelPosition=bottom;html=1;verticalAlign=top;align=center;strokeColor=none;fillColor=#00BEF2;shape=mxgraph.azure.user;" vertex="1" parent="QVFtLVlcKrwCf3kHJC9H-1">
          <mxGeometry x="608.13" y="440" width="33.75" height="40" as="geometry" />
        </mxCell>
        <mxCell id="QVFtLVlcKrwCf3kHJC9H-24" value="" style="edgeStyle=orthogonalEdgeStyle;rounded=0;orthogonalLoop=1;jettySize=auto;html=1;" edge="1" parent="QVFtLVlcKrwCf3kHJC9H-1" source="QVFtLVlcKrwCf3kHJC9H-25" target="QVFtLVlcKrwCf3kHJC9H-27">
          <mxGeometry relative="1" as="geometry" />
        </mxCell>
        <mxCell id="QVFtLVlcKrwCf3kHJC9H-25" value="" style="verticalLabelPosition=bottom;html=1;verticalAlign=top;align=center;strokeColor=none;fillColor=#00BEF2;shape=mxgraph.azure.user;" vertex="1" parent="QVFtLVlcKrwCf3kHJC9H-1">
          <mxGeometry x="950" y="256.4" width="40" height="40" as="geometry" />
        </mxCell>
        <mxCell id="QVFtLVlcKrwCf3kHJC9H-26" value="" style="sketch=0;aspect=fixed;html=1;points=[];align=center;image;fontSize=12;image=img/lib/mscae/Machine_Learning_Service_Workspaces.svg;" vertex="1" parent="QVFtLVlcKrwCf3kHJC9H-1">
          <mxGeometry x="785" y="340.87" width="36" height="39.13" as="geometry" />
        </mxCell>
        <mxCell id="QVFtLVlcKrwCf3kHJC9H-27" value="" style="sketch=0;aspect=fixed;html=1;points=[];align=center;image;fontSize=12;image=img/lib/mscae/Chart.svg;" vertex="1" parent="QVFtLVlcKrwCf3kHJC9H-1">
          <mxGeometry x="866" y="257" width="40" height="38.4" as="geometry" />
        </mxCell>
        <mxCell id="QVFtLVlcKrwCf3kHJC9H-28" value="" style="edgeStyle=orthogonalEdgeStyle;rounded=0;orthogonalLoop=1;jettySize=auto;html=1;" edge="1" parent="QVFtLVlcKrwCf3kHJC9H-1" source="QVFtLVlcKrwCf3kHJC9H-29" target="QVFtLVlcKrwCf3kHJC9H-4">
          <mxGeometry relative="1" as="geometry" />
        </mxCell>
        <mxCell id="QVFtLVlcKrwCf3kHJC9H-29" value="" style="shape=image;html=1;verticalAlign=top;verticalLabelPosition=bottom;labelBackgroundColor=#ffffff;imageAspect=0;aspect=fixed;image=https://cdn2.iconfinder.com/data/icons/competitive-strategy-and-corporate-training/512/705_Automation_factory_hand_mechanism_package-128.png" vertex="1" parent="QVFtLVlcKrwCf3kHJC9H-1">
          <mxGeometry x="70" y="249.5" width="50" height="50" as="geometry" />
        </mxCell>
        <mxCell id="QVFtLVlcKrwCf3kHJC9H-30" value="" style="image;html=1;image=img/lib/clip_art/computers/Server_Rack_128x128.png" vertex="1" parent="QVFtLVlcKrwCf3kHJC9H-1">
          <mxGeometry x="156.95" y="350" width="50" height="40" as="geometry" />
        </mxCell>
        <mxCell id="QVFtLVlcKrwCf3kHJC9H-31" value="Factory Line" style="text;html=1;strokeColor=none;fillColor=none;align=center;verticalAlign=middle;whiteSpace=wrap;rounded=0;" vertex="1" parent="QVFtLVlcKrwCf3kHJC9H-1">
          <mxGeometry x="65" y="200" width="60" height="30" as="geometry" />
        </mxCell>
        <mxCell id="QVFtLVlcKrwCf3kHJC9H-32" value="5580 AllenBradly" style="text;html=1;strokeColor=none;fillColor=none;align=center;verticalAlign=middle;whiteSpace=wrap;rounded=0;" vertex="1" parent="QVFtLVlcKrwCf3kHJC9H-1">
          <mxGeometry x="146.95" y="200" width="60" height="30" as="geometry" />
        </mxCell>
        <mxCell id="QVFtLVlcKrwCf3kHJC9H-33" value="MES/IDC" style="text;html=1;strokeColor=none;fillColor=none;align=center;verticalAlign=middle;whiteSpace=wrap;rounded=0;" vertex="1" parent="QVFtLVlcKrwCf3kHJC9H-1">
          <mxGeometry x="151.95" y="395" width="60" height="30" as="geometry" />
        </mxCell>
        <mxCell id="QVFtLVlcKrwCf3kHJC9H-34" value="FactoryTalk Edge" style="text;html=1;strokeColor=none;fillColor=none;align=center;verticalAlign=middle;whiteSpace=wrap;rounded=0;" vertex="1" parent="QVFtLVlcKrwCf3kHJC9H-1">
          <mxGeometry x="254.32" y="296.4" width="60" height="33.6" as="geometry" />
        </mxCell>
        <mxCell id="QVFtLVlcKrwCf3kHJC9H-35" value="OT Firewall" style="text;html=1;strokeColor=none;fillColor=none;align=center;verticalAlign=middle;whiteSpace=wrap;rounded=0;" vertex="1" parent="QVFtLVlcKrwCf3kHJC9H-1">
          <mxGeometry x="325" y="214" width="65" height="30" as="geometry" />
        </mxCell>
        <mxCell id="QVFtLVlcKrwCf3kHJC9H-36" value="IT Firewall" style="text;html=1;strokeColor=none;fillColor=none;align=center;verticalAlign=middle;whiteSpace=wrap;rounded=0;" vertex="1" parent="QVFtLVlcKrwCf3kHJC9H-1">
          <mxGeometry x="422.75" y="300" width="65" height="30" as="geometry" />
        </mxCell>
        <mxCell id="QVFtLVlcKrwCf3kHJC9H-37" value="IoT Hub" style="text;html=1;strokeColor=none;fillColor=none;align=center;verticalAlign=middle;whiteSpace=wrap;rounded=0;" vertex="1" parent="QVFtLVlcKrwCf3kHJC9H-1">
          <mxGeometry x="510" y="223" width="65" height="30" as="geometry" />
        </mxCell>
        <mxCell id="QVFtLVlcKrwCf3kHJC9H-38" value="Stream Analytics" style="text;html=1;strokeColor=none;fillColor=none;align=center;verticalAlign=middle;whiteSpace=wrap;rounded=0;" vertex="1" parent="QVFtLVlcKrwCf3kHJC9H-1">
          <mxGeometry x="592.51" y="220" width="65" height="37" as="geometry" />
        </mxCell>
        <mxCell id="QVFtLVlcKrwCf3kHJC9H-39" value="Historian/&lt;br&gt;ADX" style="text;html=1;strokeColor=none;fillColor=none;align=center;verticalAlign=middle;whiteSpace=wrap;rounded=0;" vertex="1" parent="QVFtLVlcKrwCf3kHJC9H-1">
          <mxGeometry x="535" y="345" width="65" height="30" as="geometry" />
        </mxCell>
        <mxCell id="QVFtLVlcKrwCf3kHJC9H-40" value="RCA/Trends" style="text;html=1;strokeColor=none;fillColor=none;align=center;verticalAlign=middle;whiteSpace=wrap;rounded=0;" vertex="1" parent="QVFtLVlcKrwCf3kHJC9H-1">
          <mxGeometry x="592.51" y="480" width="65" height="30" as="geometry" />
        </mxCell>
        <mxCell id="QVFtLVlcKrwCf3kHJC9H-41" value="Storage" style="text;html=1;strokeColor=none;fillColor=none;align=center;verticalAlign=middle;whiteSpace=wrap;rounded=0;" vertex="1" parent="QVFtLVlcKrwCf3kHJC9H-1">
          <mxGeometry x="687.27" y="293" width="65" height="30" as="geometry" />
        </mxCell>
        <mxCell id="QVFtLVlcKrwCf3kHJC9H-42" value="Big Data/Synapse" style="text;html=1;strokeColor=none;fillColor=none;align=center;verticalAlign=middle;whiteSpace=wrap;rounded=0;" vertex="1" parent="QVFtLVlcKrwCf3kHJC9H-1">
          <mxGeometry x="769.97" y="220" width="65" height="36" as="geometry" />
        </mxCell>
        <mxCell id="QVFtLVlcKrwCf3kHJC9H-43" value="Machine Learning" style="text;html=1;strokeColor=none;fillColor=none;align=center;verticalAlign=middle;whiteSpace=wrap;rounded=0;" vertex="1" parent="QVFtLVlcKrwCf3kHJC9H-1">
          <mxGeometry x="770.5" y="380" width="65" height="30" as="geometry" />
        </mxCell>
        <mxCell id="QVFtLVlcKrwCf3kHJC9H-44" value="Power BI" style="text;html=1;strokeColor=none;fillColor=none;align=center;verticalAlign=middle;whiteSpace=wrap;rounded=0;" vertex="1" parent="QVFtLVlcKrwCf3kHJC9H-1">
          <mxGeometry x="853.5" y="293" width="65" height="30" as="geometry" />
        </mxCell>
        <mxCell id="QVFtLVlcKrwCf3kHJC9H-45" value="User" style="text;html=1;strokeColor=none;fillColor=none;align=center;verticalAlign=middle;whiteSpace=wrap;rounded=0;" vertex="1" parent="QVFtLVlcKrwCf3kHJC9H-1">
          <mxGeometry x="937.5" y="293" width="65" height="30" as="geometry" />
        </mxCell>
        <mxCell id="QVFtLVlcKrwCf3kHJC9H-46" value="" style="edgeStyle=orthogonalEdgeStyle;rounded=0;orthogonalLoop=1;jettySize=auto;html=1;" edge="1" parent="QVFtLVlcKrwCf3kHJC9H-1" source="QVFtLVlcKrwCf3kHJC9H-47" target="QVFtLVlcKrwCf3kHJC9H-42">
          <mxGeometry relative="1" as="geometry" />
        </mxCell>
        <mxCell id="QVFtLVlcKrwCf3kHJC9H-47" value="" style="sketch=0;aspect=fixed;html=1;points=[];align=center;image;fontSize=12;image=img/lib/mscae/App_Services.svg;" vertex="1" parent="QVFtLVlcKrwCf3kHJC9H-1">
          <mxGeometry x="782" y="130" width="40" height="40" as="geometry" />
        </mxCell>
        <mxCell id="QVFtLVlcKrwCf3kHJC9H-48" value="" style="edgeStyle=orthogonalEdgeStyle;rounded=0;orthogonalLoop=1;jettySize=auto;html=1;entryX=1.04;entryY=0.465;entryDx=0;entryDy=0;entryPerimeter=0;" edge="1" parent="QVFtLVlcKrwCf3kHJC9H-1" source="QVFtLVlcKrwCf3kHJC9H-49" target="QVFtLVlcKrwCf3kHJC9H-47">
          <mxGeometry relative="1" as="geometry">
            <mxPoint x="890" y="150" as="targetPoint" />
          </mxGeometry>
        </mxCell>
        <mxCell id="QVFtLVlcKrwCf3kHJC9H-49" value="" style="verticalLabelPosition=bottom;html=1;verticalAlign=top;align=center;strokeColor=none;fillColor=#00BEF2;shape=mxgraph.azure.user;" vertex="1" parent="QVFtLVlcKrwCf3kHJC9H-1">
          <mxGeometry x="950" y="128.99999999999997" width="40" height="40" as="geometry" />
        </mxCell>
        <mxCell id="QVFtLVlcKrwCf3kHJC9H-50" value="User" style="text;html=1;strokeColor=none;fillColor=none;align=center;verticalAlign=middle;whiteSpace=wrap;rounded=0;" vertex="1" parent="QVFtLVlcKrwCf3kHJC9H-1">
          <mxGeometry x="937.5" y="169" width="65" height="30" as="geometry" />
        </mxCell>
        <mxCell id="QVFtLVlcKrwCf3kHJC9H-51" value="IoT Dashboard" style="text;html=1;strokeColor=none;fillColor=none;align=center;verticalAlign=middle;whiteSpace=wrap;rounded=0;" vertex="1" parent="QVFtLVlcKrwCf3kHJC9H-1">
          <mxGeometry x="756.5" y="99" width="89.5" height="30" as="geometry" />
        </mxCell>
        <mxCell id="QVFtLVlcKrwCf3kHJC9H-52" value="&lt;font style=&quot;font-size: 18px&quot;&gt;Smart Foundry Reference Architecture&lt;/font&gt;" style="text;html=1;strokeColor=none;fillColor=none;align=center;verticalAlign=middle;whiteSpace=wrap;rounded=0;" vertex="1" parent="QVFtLVlcKrwCf3kHJC9H-1">
          <mxGeometry x="314.32" y="50" width="420" height="30" as="geometry" />
        </mxCell>
      </root>
    </mxGraphModel>
  </diagram>
  <diagram id="VlkwQUPHlAUJNVSEUc6K" name="Page-3">
    <mxGraphModel dx="1038" dy="579" grid="1" gridSize="10" guides="1" tooltips="1" connect="1" arrows="1" fold="1" page="1" pageScale="1" pageWidth="1100" pageHeight="850" math="0" shadow="0">
      <root>
        <mxCell id="Y4pA-HR1xvWslqWZ-xb_-0" />
        <mxCell id="Y4pA-HR1xvWslqWZ-xb_-1" parent="Y4pA-HR1xvWslqWZ-xb_-0" />
      </root>
    </mxGraphModel>
  </diagram>
</mxfile>
